<svg width="145" height="178" viewBox="0 0 145 178" fill="none" xmlns="http://www.w3.org/2000/svg">
<path d="M70.6975 168.688C70.3798 191.647 158.29 153.046 165.769 148.236C167.387 145.309 171.709 54.8418 169.864 51.0793C155.518 21.8346 120.012 123.996 128.814 61.417C130.485 49.5394 150.239 5.38795 125.782 2.62292C94.6966 -0.891521 106.301 21.1924 101.095 39.5266C96.8154 54.5971 -0.260345 -17.6819 2.20506 11.6194C4.04608 33.4998 23.4606 48.9216 42.1191 54.5788C49.8056 56.9094 99.6844 85.2413 67.2698 83.5725C58.3235 83.1119 9.48586 94.5134 17.866 105.221C31.2725 122.351 54.6253 125.604 74.2359 122.217C88.7624 119.707 123.015 118.8 112.492 141.809C104.76 158.713 71.0758 141.35 70.6975 168.688Z" stroke="#2C684B" stroke-width="3" stroke-linecap="round"/>
</svg>
