<svg width="107" height="65" viewBox="0 0 107 65" fill="none" xmlns="http://www.w3.org/2000/svg">
<path d="M2.40332 62.7837C2.92488 59.9151 4.85616 57.7939 5.06192 54.7076C5.18678 52.8346 4.75161 50.6362 5.16224 48.7884C5.79917 45.9222 15.4428 47.434 17.2012 47.434C23.9281 47.434 27.8582 48.3728 32.4505 42.9194C35.7226 39.0338 40.5964 28.9594 46.1448 27.7704C48.876 27.1852 51.8641 28.9835 54.4717 29.3756C61.9729 30.5036 66.5551 25.5236 70.2227 19.5438C73.3158 14.5006 74.4984 8.65408 77.3457 3.59223C78.4986 1.54255 82.9387 2.40714 84.5691 2.48866C91.4961 2.83502 98.4028 4.09386 105.336 4.09386" stroke="#5ABE6A" stroke-width="3" stroke-linecap="round"/>
</svg>
