<svg width="172" height="177" viewBox="0 0 172 177" fill="none" xmlns="http://www.w3.org/2000/svg">
<path d="M70.1183 168.129C69.8006 191.089 157.711 152.487 165.189 147.678C166.808 144.751 171.13 54.2837 169.284 50.5211C154.939 21.2765 119.433 123.438 128.235 60.8589C129.905 48.9813 149.66 4.82981 125.203 2.06479C94.1173 -1.44966 105.722 20.6342 100.516 38.9684C96.2362 54.039 -0.839569 -18.24 1.62584 11.0612C3.46686 32.9416 22.8814 48.3634 41.5398 54.0207C49.2264 56.3513 99.1052 84.6832 66.6905 83.0144C57.7442 82.5538 8.90664 93.9552 17.2868 104.663C30.6933 121.793 54.0461 125.046 73.6567 121.659C88.1832 119.149 122.436 118.242 111.913 141.251C104.181 158.155 70.4966 140.792 70.1183 168.129Z" stroke="#2C684B" stroke-width="3" stroke-linecap="round"/>
</svg>
