<svg width="216" height="178" viewBox="0 0 216 178" fill="none" xmlns="http://www.w3.org/2000/svg">
<rect width="216" height="190" rx="20" fill="#5ABE6A"/>
<path d="M58.8398 121.565C58.3418 121.79 57.8291 121.976 57.3018 122.122C56.7842 122.259 56.2617 122.391 55.7344 122.518C55.7148 122.518 55.6611 122.527 55.5732 122.547C55.4951 122.566 55.4121 122.591 55.3242 122.62C55.2363 122.64 55.1533 122.659 55.0752 122.679C55.0068 122.688 54.9727 122.693 54.9727 122.693C54.8555 122.654 54.7383 122.654 54.6211 122.693C54.5137 122.723 54.4014 122.762 54.2842 122.811C54.1768 122.859 54.0596 122.898 53.9326 122.928C53.8057 122.947 53.6641 122.923 53.5078 122.854C53.4785 122.845 53.4248 122.854 53.3467 122.884C53.2686 122.903 53.1904 122.933 53.1123 122.972C53.0342 123.011 52.9658 123.06 52.9072 123.118C52.8486 123.167 52.8145 123.211 52.8047 123.25L52.8926 123.338C52.9023 123.367 52.8877 123.426 52.8486 123.514C52.8096 123.592 52.7656 123.68 52.7168 123.777C52.668 123.865 52.6143 123.948 52.5557 124.026C52.5068 124.104 52.4678 124.153 52.4385 124.173C52.4482 124.261 52.4238 124.368 52.3652 124.495C52.3164 124.612 52.2578 124.739 52.1895 124.876C52.1309 125.013 52.0723 125.154 52.0137 125.301C51.9648 125.447 51.9404 125.584 51.9404 125.711C51.9404 125.75 51.9453 125.789 51.9551 125.828C51.9648 125.867 51.9648 125.901 51.9551 125.931L51.9404 125.96C51.8428 126.038 51.7695 126.141 51.7207 126.268C51.6816 126.385 51.6475 126.512 51.6182 126.648C51.5986 126.775 51.5693 126.902 51.5303 127.029C51.501 127.156 51.4473 127.269 51.3691 127.366V127.381L51.3545 127.396C51.2275 127.454 51.1201 127.464 51.0322 127.425C50.9541 127.386 50.8809 127.327 50.8125 127.249C50.7539 127.171 50.6953 127.083 50.6367 126.985C50.5879 126.878 50.5293 126.785 50.4609 126.707C50.4219 126.58 50.4072 126.473 50.417 126.385C50.4268 126.287 50.4707 126.189 50.5488 126.092L50.5781 126.077C50.5195 125.999 50.5 125.931 50.5195 125.872C50.5488 125.804 50.5781 125.74 50.6074 125.682C50.6465 125.623 50.6709 125.564 50.6807 125.506C50.7002 125.438 50.6709 125.359 50.5928 125.271L50.6221 125.242C50.749 125.115 50.8174 124.974 50.8271 124.817C50.8369 124.651 50.8271 124.485 50.7979 124.319C50.7783 124.153 50.7637 123.987 50.7539 123.821C50.7539 123.655 50.8027 123.504 50.9004 123.367L50.915 123.353C50.9248 123.294 50.8857 123.216 50.7979 123.118C50.71 123.021 50.6416 122.947 50.5928 122.898C50.5342 123.045 50.4561 123.123 50.3584 123.133C50.2705 123.133 50.168 123.118 50.0508 123.089C49.9434 123.06 49.8359 123.035 49.7285 123.016C49.6211 122.996 49.5234 123.03 49.4355 123.118L49.3623 123.177L49.333 123.118C49.2939 123.03 49.2402 122.986 49.1719 122.986C49.1133 122.977 49.0449 122.977 48.9668 122.986C48.8496 122.996 48.7373 123.006 48.6299 123.016C48.5322 123.016 48.4297 123.016 48.3223 123.016C48.2637 122.967 48.1953 122.947 48.1172 122.957C48.0488 122.967 47.9756 122.977 47.8975 122.986C47.8291 122.996 47.7559 123.001 47.6777 123.001C47.6094 122.991 47.541 122.947 47.4727 122.869C47.4043 122.898 47.2969 123.016 47.1504 123.221C47.0039 123.416 46.8477 123.636 46.6816 123.88C46.5254 124.124 46.374 124.363 46.2275 124.598C46.0908 124.822 45.998 124.979 45.9492 125.066C45.9102 125.125 45.8613 125.198 45.8027 125.286C45.7539 125.374 45.7002 125.467 45.6416 125.564C45.583 125.652 45.5293 125.74 45.4805 125.828C45.4316 125.906 45.3926 125.975 45.3633 126.033L45.3779 126.077C45.3779 126.175 45.3633 126.253 45.334 126.312C45.3047 126.36 45.2656 126.404 45.2168 126.443C45.1777 126.473 45.1387 126.502 45.0996 126.531C45.0605 126.551 45.0264 126.575 44.9971 126.604C44.9189 126.604 44.8604 126.624 44.8213 126.663C44.7822 126.702 44.748 126.746 44.7188 126.795C44.6895 126.844 44.6553 126.888 44.6162 126.927C44.5674 126.966 44.4941 126.985 44.3965 126.985C44.3574 127.034 44.333 127.068 44.3232 127.088C44.3135 127.107 44.2988 127.146 44.2793 127.205C44.2598 127.273 44.2451 127.322 44.2354 127.352C44.2158 127.381 44.2012 127.4 44.1914 127.41C44.1719 127.43 44.1523 127.444 44.1328 127.454C44.1133 127.474 44.0938 127.498 44.0742 127.527C44.0156 127.537 43.9717 127.527 43.9424 127.498C43.9131 127.469 43.8838 127.43 43.8545 127.381C43.8252 127.342 43.8008 127.298 43.7812 127.249C43.752 127.21 43.7178 127.181 43.6787 127.161L43.6934 127.117C43.8887 126.541 44.123 125.994 44.3965 125.477C44.6699 124.949 44.9629 124.427 45.2754 123.909C45.2949 123.87 45.3096 123.831 45.3193 123.792C45.3291 123.753 45.3438 123.714 45.3633 123.675C45.4121 123.548 45.4609 123.426 45.5098 123.309C45.5684 123.191 45.6367 123.079 45.7148 122.972C45.7832 122.864 45.8418 122.762 45.8906 122.664C45.9492 122.566 46.0029 122.464 46.0518 122.356L46.0225 122.327C45.71 122.073 45.4365 121.814 45.2021 121.551C44.9775 121.277 44.7627 120.97 44.5576 120.628C44.5088 120.54 44.46 120.452 44.4111 120.364C44.3623 120.267 44.3135 120.179 44.2646 120.101L44.25 120.086C44.25 119.891 44.2646 119.695 44.2939 119.5C44.3232 119.305 44.4111 119.134 44.5576 118.987L44.5723 118.973V118.958C44.6211 118.86 44.6748 118.787 44.7334 118.738C44.792 118.689 44.8506 118.65 44.9092 118.621C44.9775 118.592 45.0459 118.567 45.1143 118.548C45.1826 118.519 45.251 118.475 45.3193 118.416V118.401C45.5439 118.304 45.7637 118.221 45.9785 118.152C46.1934 118.084 46.4229 118.113 46.667 118.24L46.6963 118.226C46.7842 118.177 46.8916 118.152 47.0186 118.152C47.1455 118.143 47.2578 118.138 47.3555 118.138C47.4141 118.167 47.4727 118.206 47.5312 118.255C47.5996 118.294 47.6631 118.333 47.7217 118.372C47.79 118.411 47.8584 118.44 47.9268 118.46C47.9951 118.479 48.0586 118.475 48.1172 118.445H48.1318V118.431C48.2295 118.333 48.3076 118.196 48.3662 118.021C48.4248 117.835 48.4834 117.64 48.542 117.435C48.6104 117.229 48.6836 117.029 48.7617 116.834C48.8398 116.629 48.9473 116.453 49.084 116.307C49.084 116.277 49.1035 116.214 49.1426 116.116C49.1816 116.009 49.2207 115.892 49.2598 115.765C49.3086 115.628 49.3428 115.496 49.3623 115.369C49.3916 115.232 49.3916 115.12 49.3623 115.032L49.4941 115.047C49.5332 115.008 49.5576 114.974 49.5674 114.944L49.5527 114.9C49.5137 114.861 49.499 114.812 49.5088 114.754C49.5186 114.695 49.5332 114.642 49.5527 114.593H49.5381L49.5234 114.534C49.5527 114.524 49.6064 114.505 49.6846 114.476C49.7725 114.446 49.8604 114.412 49.9482 114.373C50.0361 114.334 50.1143 114.3 50.1826 114.271C50.2607 114.241 50.3047 114.227 50.3145 114.227C50.4512 114.305 50.5244 114.393 50.5342 114.49C50.5537 114.588 50.5488 114.705 50.5195 114.842C50.5098 114.91 50.5049 114.969 50.5049 115.018C50.5146 115.057 50.5195 115.105 50.5195 115.164C50.5195 115.262 50.4951 115.384 50.4463 115.53C50.3975 115.667 50.3389 115.813 50.2705 115.97C50.2119 116.126 50.1436 116.272 50.0654 116.409C49.9873 116.546 49.9189 116.658 49.8604 116.746V116.834C49.8604 117.039 49.8311 117.254 49.7725 117.479C49.7139 117.693 49.6406 117.908 49.5527 118.123C49.4648 118.338 49.3672 118.548 49.2598 118.753C49.1621 118.958 49.0645 119.153 48.9668 119.339C48.8984 119.456 48.8252 119.593 48.7471 119.749C48.6689 119.896 48.5908 120.047 48.5127 120.203C48.4443 120.359 48.3809 120.521 48.3223 120.687C48.2734 120.843 48.2393 120.984 48.2197 121.111V121.126L47.8535 121.814C47.8926 121.863 47.9512 121.907 48.0293 121.946C48.1172 121.976 48.2051 122.005 48.293 122.034C48.3906 122.063 48.4834 122.088 48.5713 122.107C48.6689 122.117 48.752 122.122 48.8203 122.122C48.9277 122.122 49.0156 122.132 49.084 122.151C49.1621 122.161 49.2402 122.21 49.3184 122.298L49.3477 122.327H49.377C49.4551 122.308 49.5234 122.298 49.582 122.298C49.6406 122.298 49.709 122.298 49.7871 122.298C49.8652 122.317 49.9385 122.322 50.0068 122.312C50.085 122.303 50.1631 122.293 50.2412 122.283L50.2266 122.386C50.2754 122.435 50.3145 122.469 50.3438 122.488C50.3926 122.41 50.4512 122.332 50.5195 122.254C50.5586 122.312 50.5928 122.356 50.6221 122.386C50.6514 122.366 50.6855 122.327 50.7246 122.269C50.7734 122.21 50.8076 122.181 50.8271 122.181L50.8418 122.166L50.8564 122.181C51.0322 122.239 51.1934 122.259 51.3398 122.239C51.4863 122.22 51.6475 122.21 51.8232 122.21C51.8525 122.142 51.8916 122.088 51.9404 122.049C51.999 122.01 52.0479 121.971 52.0869 121.932C52.1357 121.883 52.165 121.834 52.1748 121.785C52.1846 121.736 52.1602 121.668 52.1016 121.58L52.0869 121.551C52.0869 121.551 52.1016 121.521 52.1309 121.463C52.1699 121.404 52.209 121.341 52.248 121.272C52.2871 121.194 52.3213 121.126 52.3506 121.067C52.3896 121.009 52.4141 120.97 52.4238 120.95C52.6191 120.628 52.79 120.301 52.9365 119.969C53.083 119.627 53.1562 119.266 53.1562 118.885V118.782C53.1758 118.772 53.1953 118.768 53.2148 118.768C53.3613 118.709 53.4395 118.631 53.4492 118.533C53.459 118.426 53.4541 118.313 53.4346 118.196C53.415 118.079 53.415 117.962 53.4346 117.845C53.4639 117.728 53.5664 117.625 53.7422 117.537L53.7715 117.522L53.7861 117.493C53.8447 117.347 53.8936 117.2 53.9326 117.054C53.9814 116.897 54.0352 116.746 54.0938 116.6C54.2793 116.16 54.416 115.687 54.5039 115.179C54.5234 115.062 54.5674 114.959 54.6357 114.871C54.7139 114.773 54.792 114.681 54.8701 114.593C54.9482 114.495 55.0166 114.397 55.0752 114.3C55.1436 114.192 55.1777 114.075 55.1777 113.948C55.1777 113.87 55.168 113.816 55.1484 113.787V113.743L55.1777 113.729C55.373 113.631 55.5244 113.509 55.6318 113.362C55.7393 113.216 55.793 113.03 55.793 112.806C55.793 112.776 55.7881 112.723 55.7783 112.645C55.7783 112.566 55.7686 112.518 55.749 112.498C55.8369 112.439 55.9297 112.361 56.0273 112.264L56.0566 112.278C56.2422 112.415 56.3545 112.557 56.3936 112.703C56.4424 112.84 56.4521 112.981 56.4229 113.128C56.4033 113.274 56.3691 113.426 56.3203 113.582C56.2715 113.738 56.2471 113.899 56.2471 114.065L56.2324 114.08C56.0859 114.334 55.9688 114.622 55.8809 114.944C55.793 115.267 55.749 115.579 55.749 115.882C55.6416 115.882 55.5732 115.906 55.5439 115.955C55.5244 116.004 55.5049 116.067 55.4854 116.146C55.4756 116.214 55.4561 116.287 55.4268 116.365C55.4072 116.443 55.3486 116.512 55.251 116.57L55.2803 116.614C55.2803 116.634 55.2803 116.648 55.2803 116.658C55.29 116.668 55.2949 116.683 55.2949 116.702C55.2949 116.761 55.2803 116.814 55.251 116.863C55.2217 116.902 55.1924 116.946 55.1631 116.995C55.1338 117.034 55.1143 117.078 55.1045 117.127C55.1045 117.176 55.1289 117.229 55.1777 117.288C55.2168 117.347 55.2412 117.381 55.251 117.391H55.0898C54.9336 117.693 54.792 118.001 54.665 118.313C54.5381 118.626 54.4209 118.943 54.3135 119.266C54.2256 119.539 54.1328 119.808 54.0352 120.071C53.9375 120.335 53.8203 120.594 53.6836 120.848V120.892C53.7715 121.058 53.7764 121.189 53.6982 121.287C53.6299 121.385 53.5518 121.473 53.4639 121.551C53.3857 121.619 53.332 121.688 53.3027 121.756C53.2734 121.824 53.3418 121.912 53.5078 122.02C53.6348 121.893 53.752 121.849 53.8594 121.888C53.9668 121.927 54.0986 121.966 54.2549 122.005C54.2842 121.976 54.3086 121.951 54.3281 121.932C54.3574 121.902 54.4014 121.897 54.46 121.917C54.4697 121.927 54.4795 121.937 54.4893 121.946C54.499 121.946 54.5088 121.951 54.5186 121.961C54.5771 121.873 54.6309 121.824 54.6797 121.814C54.7285 121.805 54.7773 121.81 54.8262 121.829C54.875 121.849 54.9238 121.868 54.9727 121.888C55.0215 121.907 55.0703 121.902 55.1191 121.873C55.1484 121.854 55.168 121.824 55.1777 121.785C55.1875 121.736 55.2021 121.692 55.2217 121.653C55.3682 121.8 55.4902 121.873 55.5879 121.873C55.6953 121.863 55.793 121.834 55.8809 121.785C55.9785 121.727 56.0713 121.673 56.1592 121.624C56.2568 121.575 56.3691 121.58 56.4961 121.639C56.6035 121.639 56.7109 121.629 56.8184 121.609C56.9355 121.58 57.0479 121.556 57.1553 121.536C57.4385 121.487 57.7168 121.448 57.9902 121.419C58.2637 121.39 58.542 121.399 58.8252 121.448L58.8398 121.565ZM47.5752 118.753C47.4873 118.753 47.4043 118.758 47.3262 118.768C47.2578 118.777 47.1943 118.812 47.1357 118.87C47.126 118.86 47.1162 118.855 47.1064 118.855C46.7256 118.748 46.3594 118.768 46.0078 118.914C45.6562 119.061 45.3535 119.271 45.0996 119.544L45.0703 119.661C45.0605 119.69 45.0557 119.725 45.0557 119.764C45.0557 119.793 45.0557 119.817 45.0557 119.837C45.0557 120.022 45.0996 120.193 45.1875 120.35C45.2461 120.467 45.3145 120.564 45.3926 120.643C45.4805 120.721 45.5732 120.794 45.6709 120.862C45.7783 120.931 45.8809 120.999 45.9785 121.067C46.0859 121.136 46.1836 121.219 46.2715 121.316C46.4668 121.316 46.5986 121.268 46.667 121.17C46.7451 121.062 46.7988 120.94 46.8281 120.804C46.8672 120.657 46.9062 120.511 46.9453 120.364C46.9844 120.218 47.0674 120.101 47.1943 120.013C47.2041 120.013 47.209 120.013 47.209 120.013C47.209 120.003 47.2139 119.998 47.2236 119.998C47.1846 119.9 47.1846 119.803 47.2236 119.705C47.2725 119.607 47.3262 119.51 47.3848 119.412C47.4531 119.314 47.5068 119.212 47.5459 119.104C47.5947 118.997 47.6045 118.88 47.5752 118.753ZM66.6035 125.462C66.4668 125.696 66.3594 125.887 66.2812 126.033C66.2129 126.17 66.1396 126.287 66.0615 126.385C65.9932 126.473 65.9102 126.556 65.8125 126.634C65.7246 126.702 65.5977 126.79 65.4316 126.897C65.3242 126.995 65.2168 127.078 65.1094 127.146C65.0215 127.215 64.9336 127.273 64.8457 127.322C64.7676 127.371 64.7041 127.396 64.6553 127.396C64.6357 127.396 64.6162 127.391 64.5967 127.381C64.5771 127.381 64.5576 127.381 64.5381 127.381C64.4795 127.381 64.4209 127.381 64.3623 127.381C64.3135 127.391 64.2695 127.356 64.2305 127.278C64.2012 127.308 64.1768 127.342 64.1572 127.381C64.1377 127.42 64.1182 127.454 64.0986 127.483C64.0791 127.522 64.0498 127.552 64.0107 127.571C63.9814 127.591 63.9375 127.591 63.8789 127.571L63.8057 127.483L63.5859 127.674C63.3125 127.537 63.0488 127.42 62.7949 127.322C62.5508 127.234 62.3311 127.127 62.1357 127C61.9404 126.873 61.7744 126.712 61.6377 126.517C61.501 126.312 61.4033 126.033 61.3447 125.682C61.2959 125.623 61.2422 125.574 61.1836 125.535C61.125 125.486 61.0566 125.472 60.9785 125.491C60.8809 125.657 60.7637 125.799 60.627 125.916C60.4902 126.033 60.3535 126.16 60.2168 126.297C60.168 126.346 60.1289 126.399 60.0996 126.458C60.0703 126.517 60.0312 126.57 59.9824 126.619C59.9043 126.707 59.8115 126.771 59.7041 126.81C59.5967 126.839 59.4893 126.868 59.3818 126.897C59.2744 126.927 59.1719 126.976 59.0742 127.044C58.9863 127.112 58.9229 127.229 58.8838 127.396C58.7666 127.327 58.6494 127.308 58.5322 127.337C58.4443 127.356 58.3516 127.376 58.2539 127.396C58.1562 127.425 58.0586 127.439 57.9609 127.439C57.873 127.449 57.7852 127.439 57.6973 127.41C57.6094 127.381 57.5312 127.317 57.4629 127.22C57.3262 127.278 57.1992 127.273 57.082 127.205C56.9648 127.146 56.8525 127.063 56.7451 126.956C56.6475 126.839 56.5498 126.717 56.4521 126.59C56.3545 126.463 56.2617 126.37 56.1738 126.312C56.1152 126.155 56.1201 126.023 56.1885 125.916C56.2471 125.799 56.3154 125.691 56.3936 125.594C56.4619 125.486 56.5107 125.384 56.54 125.286C56.5693 125.179 56.5254 125.052 56.4082 124.905C56.5059 124.759 56.5938 124.607 56.6719 124.451C56.75 124.285 56.8281 124.124 56.9062 123.968C56.9941 123.802 57.082 123.646 57.1699 123.499C57.2676 123.343 57.3848 123.211 57.5215 123.104C57.4629 123.035 57.4336 122.972 57.4336 122.913C57.4336 122.845 57.4482 122.781 57.4775 122.723C57.5068 122.654 57.541 122.591 57.5801 122.532C57.6191 122.464 57.6484 122.4 57.668 122.342L58.0928 122.137L57.9902 121.785C58.0977 121.805 58.1758 121.8 58.2246 121.771C58.2832 121.741 58.3223 121.697 58.3418 121.639C58.3711 121.58 58.3906 121.517 58.4004 121.448C58.4199 121.37 58.4443 121.302 58.4736 121.243C58.5225 121.155 58.5957 121.092 58.6934 121.053C58.8984 120.896 59.0986 120.73 59.2939 120.555C59.499 120.379 59.6992 120.208 59.8945 120.042C60.0996 119.876 60.3096 119.72 60.5244 119.573C60.7393 119.417 60.9736 119.285 61.2275 119.178C61.4033 119.207 61.54 119.261 61.6377 119.339C61.7451 119.417 61.8232 119.51 61.8721 119.617C61.9307 119.725 61.9746 119.847 62.0039 119.983C62.0332 120.11 62.0625 120.237 62.0918 120.364C62.1406 120.53 62.1992 120.672 62.2676 120.789C62.3359 120.906 62.4531 121.004 62.6191 121.082C62.4824 121.316 62.4287 121.551 62.458 121.785C62.4873 122.01 62.5166 122.249 62.5459 122.503C62.5752 122.737 62.5703 122.967 62.5312 123.191C62.502 123.416 62.3604 123.616 62.1064 123.792C62.0869 123.86 62.082 123.934 62.0918 124.012C62.1016 124.09 62.1064 124.168 62.1064 124.246C62.1064 124.324 62.0918 124.397 62.0625 124.466C62.0332 124.534 61.9795 124.588 61.9014 124.627C61.9893 124.734 62.0332 124.842 62.0332 124.949C62.043 125.057 62.0479 125.159 62.0479 125.257C62.0576 125.354 62.082 125.442 62.1211 125.521C62.1699 125.599 62.2773 125.657 62.4434 125.696C62.4727 125.823 62.4971 125.921 62.5166 125.989C62.5459 126.048 62.5752 126.097 62.6045 126.136C62.6436 126.175 62.6924 126.214 62.751 126.253C62.8096 126.282 62.8877 126.331 62.9854 126.399C63.0635 126.419 63.1514 126.419 63.249 126.399C63.3467 126.38 63.4248 126.409 63.4834 126.487C63.5322 126.438 63.5908 126.414 63.6592 126.414C63.7275 126.404 63.791 126.404 63.8496 126.414L64.04 126.736C64.1475 126.658 64.2695 126.59 64.4062 126.531C64.543 126.473 64.6748 126.424 64.8018 126.385C64.9482 126.346 65.0947 126.312 65.2412 126.282L66.6035 125.462ZM60.9785 120.452C60.8906 120.53 60.7832 120.608 60.6562 120.687C60.5293 120.765 60.4023 120.848 60.2754 120.936C60.1582 121.023 60.0557 121.121 59.9678 121.229C59.8799 121.326 59.8262 121.443 59.8066 121.58C59.582 121.619 59.4258 121.712 59.3379 121.858C59.25 122.005 59.1768 122.166 59.1182 122.342C59.0596 122.518 58.9961 122.693 58.9277 122.869C58.8594 123.035 58.7373 123.167 58.5615 123.265C58.5029 123.304 58.4492 123.323 58.4004 123.323C58.4102 123.323 58.3809 123.343 58.3125 123.382C58.2051 123.46 58.1123 123.558 58.0342 123.675C57.9561 123.792 57.8877 123.919 57.8291 124.056C57.7803 124.192 57.7314 124.334 57.6826 124.48C57.6436 124.617 57.6045 124.744 57.5654 124.861C57.4287 124.881 57.3262 124.91 57.2578 124.949C57.1895 124.988 57.1455 125.032 57.126 125.081C57.1162 125.12 57.1211 125.169 57.1406 125.228C57.1602 125.286 57.1895 125.35 57.2285 125.418C57.2676 125.477 57.3066 125.545 57.3457 125.623C57.3945 125.701 57.4336 125.779 57.4629 125.857C57.4922 125.936 57.5068 126.014 57.5068 126.092C57.5166 126.17 57.4971 126.243 57.4482 126.312C57.585 126.419 57.7168 126.443 57.8438 126.385C57.9707 126.316 58.0879 126.243 58.1953 126.165C58.2344 126.136 58.2734 126.106 58.3125 126.077C58.3613 126.038 58.4102 126.009 58.459 125.989C58.6836 126.038 58.8887 126.023 59.0742 125.945C59.2598 125.867 59.4307 125.76 59.5869 125.623C59.7432 125.486 59.8945 125.34 60.041 125.184C60.1875 125.027 60.334 124.891 60.4805 124.773L60.3633 124.656C60.5391 124.607 60.6611 124.544 60.7295 124.466C60.8076 124.378 60.8564 124.28 60.876 124.173C60.8955 124.065 60.8955 123.953 60.876 123.836C60.8564 123.709 60.8418 123.577 60.832 123.44C60.8223 123.362 60.8174 123.289 60.8174 123.221C60.8271 123.143 60.8467 123.064 60.876 122.986C60.7979 122.762 60.7832 122.547 60.832 122.342C60.8906 122.137 60.9639 121.941 61.0518 121.756C61.1494 121.561 61.2422 121.365 61.3301 121.17C61.418 120.975 61.4619 120.77 61.4619 120.555L60.9785 120.452ZM77.1211 121.375C77.082 121.58 76.999 121.771 76.8721 121.946C76.7549 122.122 76.6084 122.278 76.4326 122.415C76.2666 122.552 76.0859 122.669 75.8906 122.767C75.6953 122.854 75.5 122.918 75.3047 122.957C75.0117 123.084 74.7383 123.182 74.4844 123.25C74.2402 123.309 73.9912 123.348 73.7373 123.367C73.4834 123.387 73.2197 123.392 72.9463 123.382C72.6729 123.372 72.3652 123.357 72.0234 123.338C71.9355 123.367 71.8721 123.416 71.833 123.484C71.8037 123.553 71.7842 123.626 71.7744 123.704C71.7744 123.782 71.7793 123.865 71.7891 123.953C71.7988 124.031 71.7988 124.104 71.7891 124.173C71.7012 124.163 71.6279 124.192 71.5693 124.261C71.5205 124.329 71.4717 124.388 71.4229 124.437C71.4326 124.642 71.4033 124.798 71.335 124.905C71.2666 125.003 71.1836 125.091 71.0859 125.169C70.998 125.237 70.8955 125.315 70.7783 125.403C70.6709 125.481 70.5781 125.599 70.5 125.755C70.4609 125.813 70.4365 125.872 70.4268 125.931C70.417 125.979 70.4023 126.043 70.3828 126.121C70.3535 126.258 70.2852 126.341 70.1777 126.37C70.0801 126.399 69.9775 126.424 69.8701 126.443C69.7627 126.453 69.665 126.482 69.5771 126.531C69.4893 126.57 69.4404 126.673 69.4307 126.839C69.2158 126.897 69.0059 126.99 68.8008 127.117C68.5957 127.254 68.3906 127.386 68.1855 127.513C67.9805 127.64 67.7705 127.732 67.5557 127.791C67.3506 127.859 67.1309 127.854 66.8965 127.776C66.8477 127.757 66.7793 127.728 66.6914 127.688C66.6133 127.649 66.5547 127.61 66.5156 127.571C66.4961 127.552 66.4668 127.513 66.4277 127.454C66.3984 127.405 66.374 127.371 66.3545 127.352C66.2568 127.195 66.1836 127.024 66.1348 126.839C66.0859 126.653 66.0518 126.468 66.0322 126.282C66.0127 126.087 66.0078 125.892 66.0176 125.696C66.0176 125.501 66.0176 125.315 66.0176 125.14C66.0664 125.159 66.1152 125.154 66.1641 125.125C66.2031 125.086 66.2373 125.052 66.2666 125.022L66.1348 124.656C66.1934 124.676 66.2422 124.671 66.2812 124.642C66.3203 124.612 66.3545 124.578 66.3838 124.539C66.2373 124.461 66.1641 124.383 66.1641 124.305C66.1543 124.217 66.1738 124.129 66.2227 124.041C66.2715 123.943 66.3301 123.846 66.3984 123.748C66.4766 123.65 66.5156 123.548 66.5156 123.44C66.5254 123.206 66.5498 122.986 66.5889 122.781C66.6377 122.566 66.6914 122.356 66.75 122.151C66.8086 121.946 66.8721 121.741 66.9404 121.536C67.0088 121.331 67.0674 121.116 67.1162 120.892C67.2822 120.872 67.4336 120.799 67.5703 120.672C67.707 120.535 67.8438 120.408 67.9805 120.291C68.1172 120.174 68.2588 120.101 68.4053 120.071C68.5615 120.042 68.7373 120.115 68.9326 120.291C68.9717 120.525 68.9521 120.74 68.874 120.936C68.8057 121.131 68.7227 121.321 68.625 121.507C68.5273 121.692 68.4395 121.883 68.3613 122.078C68.293 122.273 68.2832 122.488 68.332 122.723C67.9609 122.889 67.7168 123.128 67.5996 123.44C67.4922 123.753 67.4189 124.09 67.3799 124.451C67.3701 124.559 67.3555 124.676 67.3359 124.803C67.3164 124.92 67.2822 125.032 67.2334 125.14C67.292 125.276 67.3018 125.413 67.2627 125.55C67.2236 125.677 67.1846 125.804 67.1455 125.931C67.1162 126.058 67.1064 126.175 67.1162 126.282C67.126 126.39 67.2041 126.492 67.3506 126.59C67.9951 126.404 68.5469 126.131 69.0059 125.77C69.4648 125.408 69.8848 124.959 70.2656 124.422C70.4805 124.119 70.6758 123.821 70.8516 123.528C71.0371 123.226 71.1885 122.918 71.3057 122.605C71.4229 122.293 71.501 121.966 71.54 121.624C71.5791 121.282 71.5596 120.921 71.4814 120.54C71.5791 120.53 71.667 120.481 71.7451 120.394C71.8232 120.306 71.9014 120.232 71.9795 120.174C72.0576 120.105 72.1357 120.071 72.2139 120.071C72.292 120.071 72.375 120.145 72.4629 120.291C72.6094 120.359 72.6826 120.442 72.6826 120.54C72.6924 120.628 72.6777 120.721 72.6387 120.818C72.6094 120.916 72.585 121.014 72.5654 121.111C72.5459 121.209 72.5898 121.302 72.6973 121.39C72.668 121.409 72.6338 121.453 72.5947 121.521C72.5557 121.58 72.5215 121.653 72.4922 121.741C72.4629 121.819 72.4385 121.897 72.4189 121.976C72.3994 122.044 72.3945 122.093 72.4043 122.122C72.4922 122.278 72.5898 122.361 72.6973 122.371C72.8047 122.371 72.917 122.352 73.0342 122.312C73.1514 122.273 73.2686 122.249 73.3857 122.239C73.5127 122.22 73.6299 122.264 73.7373 122.371C73.9814 122.342 74.2012 122.312 74.3965 122.283C74.5918 122.244 74.7773 122.205 74.9531 122.166C75.1387 122.127 75.3242 122.083 75.5098 122.034C75.7051 121.976 75.9248 121.917 76.1689 121.858C76.2959 121.702 76.4375 121.595 76.5938 121.536C76.7598 121.478 76.9355 121.424 77.1211 121.375ZM85.7344 122.518C85.6465 122.605 85.5781 122.674 85.5293 122.723C85.4902 122.771 85.4512 122.82 85.4121 122.869C85.3828 122.908 85.3438 122.952 85.2949 123.001C85.2559 123.05 85.1924 123.123 85.1045 123.221C85.0264 123.299 84.9531 123.382 84.8848 123.47C84.8164 123.558 84.7383 123.636 84.6504 123.704C84.5332 123.675 84.4404 123.689 84.3721 123.748C84.3135 123.807 84.2549 123.875 84.1963 123.953C84.1475 124.021 84.0986 124.09 84.0498 124.158C84.0107 124.217 83.957 124.241 83.8887 124.231C83.6543 124.358 83.4199 124.471 83.1855 124.568C82.9512 124.656 82.7266 124.788 82.5117 124.964L82.3945 124.847L80.8711 125.579C80.8223 125.599 80.7734 125.628 80.7246 125.667C80.6758 125.706 80.627 125.74 80.5781 125.77C80.3633 125.887 80.1387 125.994 79.9043 126.092C79.6797 126.18 79.4551 126.263 79.2305 126.341L79.04 126.399C79.1182 126.595 79.1182 126.731 79.04 126.81C78.9619 126.888 78.8496 126.946 78.7031 126.985C78.5566 127.015 78.3955 127.034 78.2197 127.044C78.0439 127.054 77.9072 127.088 77.8096 127.146C77.6924 127.127 77.5703 127.117 77.4434 127.117C77.3262 127.127 77.2041 127.142 77.0771 127.161C76.9404 127.181 76.8135 127.19 76.6963 127.19C76.5791 127.19 76.4521 127.176 76.3154 127.146H76.2861C76.1201 127.225 75.9736 127.239 75.8467 127.19C75.7295 127.151 75.6221 127.083 75.5244 126.985C75.4268 126.878 75.334 126.756 75.2461 126.619C75.168 126.473 75.085 126.341 74.9971 126.224C74.9385 126.146 74.8652 126.033 74.7773 125.887C74.6895 125.74 74.6162 125.584 74.5576 125.418C74.4893 125.252 74.4502 125.086 74.4404 124.92C74.4209 124.744 74.4551 124.593 74.543 124.466C74.6309 124.339 74.7041 124.202 74.7627 124.056C74.8115 123.909 74.8359 123.738 74.8359 123.543C74.8359 123.475 74.8359 123.411 74.8359 123.353C74.8262 123.294 74.8213 123.23 74.8213 123.162C74.8701 123.162 74.9238 123.167 74.9824 123.177C75.041 123.177 75.0947 123.177 75.1436 123.177C75.2021 123.167 75.2461 123.147 75.2754 123.118C75.3145 123.079 75.334 123.016 75.334 122.928C75.334 122.879 75.3145 122.84 75.2754 122.811C75.2461 122.781 75.2266 122.752 75.2168 122.723C75.2754 122.635 75.3291 122.566 75.3779 122.518C75.4365 122.459 75.4854 122.405 75.5244 122.356C75.5635 122.298 75.5928 122.234 75.6123 122.166C75.6318 122.088 75.627 121.985 75.5977 121.858C75.7148 121.653 75.8516 121.473 76.0078 121.316C76.1738 121.15 76.3447 120.999 76.5205 120.862C76.6963 120.716 76.877 120.574 77.0625 120.438C77.248 120.301 77.4238 120.154 77.5898 119.998C77.7754 120.076 77.9219 120.076 78.0293 119.998C78.1465 119.92 78.249 119.837 78.3369 119.749C78.4248 119.651 78.5127 119.573 78.6006 119.515C78.6885 119.456 78.8057 119.48 78.9521 119.588L78.9814 119.617C79.2451 119.354 79.5088 119.236 79.7725 119.266C80.0459 119.295 80.2754 119.383 80.4609 119.529C80.6562 119.676 80.7832 119.847 80.8418 120.042C80.9004 120.228 80.8467 120.354 80.6807 120.423C80.7881 120.53 80.8418 120.657 80.8418 120.804C80.8418 120.95 80.8027 121.077 80.7246 121.185C80.6367 121.302 80.5586 121.424 80.4902 121.551C80.4316 121.668 80.3682 121.795 80.2998 121.932C80.2021 122.156 80.0947 122.371 79.9775 122.576C79.8604 122.771 79.6943 122.938 79.4795 123.074C79.3037 123.025 79.1816 123.045 79.1133 123.133C79.0547 123.221 79.0107 123.318 78.9814 123.426C78.9521 123.523 78.918 123.602 78.8789 123.66C78.8398 123.719 78.7568 123.699 78.6299 123.602L78.6006 123.572L78.5713 123.602C78.4932 123.68 78.4297 123.768 78.3809 123.865C78.3418 123.963 78.2832 124.036 78.2051 124.085C78.1172 124.056 78.0244 124.031 77.9268 124.012C77.8291 123.992 77.7363 123.973 77.6484 123.953C77.6484 124.158 77.6094 124.319 77.5312 124.437C77.4531 124.554 77.3506 124.651 77.2236 124.729C77.1064 124.798 76.9697 124.856 76.8135 124.905C76.6572 124.944 76.501 124.998 76.3447 125.066C76.1982 125.125 76.0566 125.203 75.9199 125.301C75.793 125.389 75.6904 125.516 75.6123 125.682C75.71 125.789 75.832 125.853 75.9785 125.872C76.125 125.882 76.2764 125.882 76.4326 125.872C76.5889 125.853 76.7402 125.843 76.8867 125.843C77.043 125.843 77.1797 125.882 77.2969 125.96L77.3115 125.975L77.3262 125.96C77.5605 125.931 77.7852 125.877 78 125.799C78.2246 125.711 78.4395 125.623 78.6445 125.535C78.8594 125.438 79.0742 125.35 79.2891 125.271C79.5137 125.184 79.7432 125.12 79.9775 125.081C80.0264 125.159 80.0898 125.203 80.168 125.213C80.2559 125.223 80.3389 125.218 80.417 125.198L80.4316 125.169C80.4512 125.101 80.4707 125.042 80.4902 124.993C80.5098 124.935 80.5391 124.871 80.5781 124.803C80.6465 124.695 80.7295 124.612 80.8271 124.554C80.9248 124.495 81.0273 124.451 81.1348 124.422C81.252 124.393 81.374 124.373 81.501 124.363C81.6279 124.354 81.7549 124.339 81.8818 124.319H81.9111L81.9258 124.275C81.9648 124.158 82.0137 124.08 82.0723 124.041C82.1406 123.992 82.209 123.958 82.2773 123.938C82.3555 123.919 82.4336 123.904 82.5117 123.895C82.5996 123.885 82.6826 123.855 82.7607 123.807C82.9365 123.865 83.083 123.846 83.2002 123.748C83.3174 123.65 83.4297 123.548 83.5371 123.44L83.6543 123.587L83.6982 123.528C83.8447 123.392 83.9521 123.289 84.0205 123.221C84.0986 123.152 84.1719 123.094 84.2402 123.045C84.3086 122.986 84.3867 122.933 84.4746 122.884C84.5723 122.825 84.7041 122.742 84.8701 122.635C85.0068 122.547 85.1387 122.459 85.2656 122.371C85.4023 122.283 85.5342 122.186 85.6611 122.078C85.71 122.098 85.7344 122.137 85.7344 122.195C85.7344 122.244 85.7344 122.293 85.7344 122.342C85.7246 122.361 85.7148 122.391 85.7051 122.43C85.7051 122.469 85.7148 122.498 85.7344 122.518ZM79.6699 120.687C79.6602 120.677 79.6504 120.672 79.6406 120.672C79.6406 120.672 79.6357 120.667 79.626 120.657C79.4209 120.55 79.25 120.501 79.1133 120.511C78.9766 120.511 78.8496 120.55 78.7324 120.628C78.625 120.696 78.5225 120.789 78.4248 120.906C78.3369 121.014 78.2393 121.116 78.1318 121.214C78.0342 121.302 77.917 121.37 77.7803 121.419C77.6436 121.468 77.4775 121.463 77.2822 121.404C77.2529 121.561 77.2236 121.717 77.1943 121.873C77.1748 122.02 77.1602 122.171 77.1504 122.327C76.9844 122.386 76.8525 122.469 76.7549 122.576C76.667 122.684 76.5889 122.801 76.5205 122.928C76.4619 123.055 76.4033 123.191 76.3447 123.338C76.2959 123.475 76.2275 123.606 76.1396 123.733L76.1982 123.807C76.2373 123.787 76.2812 123.802 76.3301 123.851C76.3789 123.899 76.4131 123.934 76.4326 123.953C76.54 123.797 76.6816 123.665 76.8574 123.558C77.043 123.45 77.2285 123.353 77.4141 123.265C77.6094 123.167 77.7949 123.064 77.9707 122.957C78.1465 122.85 78.2783 122.708 78.3662 122.532C78.6787 122.444 78.9131 122.269 79.0693 122.005C79.2256 121.741 79.3574 121.468 79.4648 121.185C79.4844 121.126 79.5186 121.043 79.5674 120.936C79.626 120.818 79.6602 120.735 79.6699 120.687ZM99.1963 125.462C99.0596 125.696 98.9521 125.887 98.874 126.033C98.8057 126.17 98.7324 126.287 98.6543 126.385C98.5859 126.473 98.5029 126.556 98.4053 126.634C98.3174 126.702 98.1904 126.79 98.0244 126.897C97.917 126.995 97.8096 127.078 97.7021 127.146C97.6143 127.215 97.5264 127.273 97.4385 127.322C97.3604 127.371 97.2969 127.396 97.248 127.396C97.2285 127.396 97.209 127.391 97.1895 127.381C97.1699 127.381 97.1504 127.381 97.1309 127.381C97.0723 127.381 97.0137 127.381 96.9551 127.381C96.9062 127.391 96.8623 127.356 96.8232 127.278C96.7939 127.308 96.7695 127.342 96.75 127.381C96.7305 127.42 96.7109 127.454 96.6914 127.483C96.6719 127.522 96.6426 127.552 96.6035 127.571C96.5742 127.591 96.5303 127.591 96.4717 127.571L96.3984 127.483L96.1787 127.674C95.9053 127.537 95.6416 127.42 95.3877 127.322C95.1436 127.234 94.9238 127.127 94.7285 127C94.5332 126.873 94.3672 126.712 94.2305 126.517C94.0938 126.312 93.9961 126.033 93.9375 125.682C93.8887 125.623 93.835 125.574 93.7764 125.535C93.7178 125.486 93.6494 125.472 93.5713 125.491C93.4736 125.657 93.3564 125.799 93.2197 125.916C93.083 126.033 92.9463 126.16 92.8096 126.297C92.7607 126.346 92.7217 126.399 92.6924 126.458C92.6631 126.517 92.624 126.57 92.5752 126.619C92.4971 126.707 92.4043 126.771 92.2969 126.81C92.1895 126.839 92.082 126.868 91.9746 126.897C91.8672 126.927 91.7646 126.976 91.667 127.044C91.5791 127.112 91.5156 127.229 91.4766 127.396C91.3594 127.327 91.2422 127.308 91.125 127.337C91.0371 127.356 90.9443 127.376 90.8467 127.396C90.749 127.425 90.6514 127.439 90.5537 127.439C90.4658 127.449 90.3779 127.439 90.29 127.41C90.2021 127.381 90.124 127.317 90.0557 127.22C89.9189 127.278 89.792 127.273 89.6748 127.205C89.5576 127.146 89.4453 127.063 89.3379 126.956C89.2402 126.839 89.1426 126.717 89.0449 126.59C88.9473 126.463 88.8545 126.37 88.7666 126.312C88.708 126.155 88.7129 126.023 88.7812 125.916C88.8398 125.799 88.9082 125.691 88.9863 125.594C89.0547 125.486 89.1035 125.384 89.1328 125.286C89.1621 125.179 89.1182 125.052 89.001 124.905C89.0986 124.759 89.1865 124.607 89.2646 124.451C89.3428 124.285 89.4209 124.124 89.499 123.968C89.5869 123.802 89.6748 123.646 89.7627 123.499C89.8604 123.343 89.9775 123.211 90.1143 123.104C90.0557 123.035 90.0264 122.972 90.0264 122.913C90.0264 122.845 90.041 122.781 90.0703 122.723C90.0996 122.654 90.1338 122.591 90.1729 122.532C90.2119 122.464 90.2412 122.4 90.2607 122.342L90.6855 122.137L90.583 121.785C90.6904 121.805 90.7686 121.8 90.8174 121.771C90.876 121.741 90.915 121.697 90.9346 121.639C90.9639 121.58 90.9834 121.517 90.9932 121.448C91.0127 121.37 91.0371 121.302 91.0664 121.243C91.1152 121.155 91.1885 121.092 91.2861 121.053C91.4912 120.896 91.6914 120.73 91.8867 120.555C92.0918 120.379 92.292 120.208 92.4873 120.042C92.6924 119.876 92.9023 119.72 93.1172 119.573C93.332 119.417 93.5664 119.285 93.8203 119.178C93.9961 119.207 94.1328 119.261 94.2305 119.339C94.3379 119.417 94.416 119.51 94.4648 119.617C94.5234 119.725 94.5674 119.847 94.5967 119.983C94.626 120.11 94.6553 120.237 94.6846 120.364C94.7334 120.53 94.792 120.672 94.8604 120.789C94.9287 120.906 95.0459 121.004 95.2119 121.082C95.0752 121.316 95.0215 121.551 95.0508 121.785C95.0801 122.01 95.1094 122.249 95.1387 122.503C95.168 122.737 95.1631 122.967 95.124 123.191C95.0947 123.416 94.9531 123.616 94.6992 123.792C94.6797 123.86 94.6748 123.934 94.6846 124.012C94.6943 124.09 94.6992 124.168 94.6992 124.246C94.6992 124.324 94.6846 124.397 94.6553 124.466C94.626 124.534 94.5723 124.588 94.4941 124.627C94.582 124.734 94.626 124.842 94.626 124.949C94.6357 125.057 94.6406 125.159 94.6406 125.257C94.6504 125.354 94.6748 125.442 94.7139 125.521C94.7627 125.599 94.8701 125.657 95.0361 125.696C95.0654 125.823 95.0898 125.921 95.1094 125.989C95.1387 126.048 95.168 126.097 95.1973 126.136C95.2363 126.175 95.2852 126.214 95.3438 126.253C95.4023 126.282 95.4805 126.331 95.5781 126.399C95.6562 126.419 95.7441 126.419 95.8418 126.399C95.9395 126.38 96.0176 126.409 96.0762 126.487C96.125 126.438 96.1836 126.414 96.252 126.414C96.3203 126.404 96.3838 126.404 96.4424 126.414L96.6328 126.736C96.7402 126.658 96.8623 126.59 96.999 126.531C97.1357 126.473 97.2676 126.424 97.3945 126.385C97.541 126.346 97.6875 126.312 97.834 126.282L99.1963 125.462ZM93.5713 120.452C93.4834 120.53 93.376 120.608 93.249 120.687C93.1221 120.765 92.9951 120.848 92.8682 120.936C92.751 121.023 92.6484 121.121 92.5605 121.229C92.4727 121.326 92.4189 121.443 92.3994 121.58C92.1748 121.619 92.0186 121.712 91.9307 121.858C91.8428 122.005 91.7695 122.166 91.7109 122.342C91.6523 122.518 91.5889 122.693 91.5205 122.869C91.4521 123.035 91.3301 123.167 91.1543 123.265C91.0957 123.304 91.042 123.323 90.9932 123.323C91.0029 123.323 90.9736 123.343 90.9053 123.382C90.7979 123.46 90.7051 123.558 90.627 123.675C90.5488 123.792 90.4805 123.919 90.4219 124.056C90.373 124.192 90.3242 124.334 90.2754 124.48C90.2363 124.617 90.1973 124.744 90.1582 124.861C90.0215 124.881 89.9189 124.91 89.8506 124.949C89.7822 124.988 89.7383 125.032 89.7188 125.081C89.709 125.12 89.7139 125.169 89.7334 125.228C89.7529 125.286 89.7822 125.35 89.8213 125.418C89.8604 125.477 89.8994 125.545 89.9385 125.623C89.9873 125.701 90.0264 125.779 90.0557 125.857C90.085 125.936 90.0996 126.014 90.0996 126.092C90.1094 126.17 90.0898 126.243 90.041 126.312C90.1777 126.419 90.3096 126.443 90.4365 126.385C90.5635 126.316 90.6807 126.243 90.7881 126.165C90.8271 126.136 90.8662 126.106 90.9053 126.077C90.9541 126.038 91.0029 126.009 91.0518 125.989C91.2764 126.038 91.4814 126.023 91.667 125.945C91.8525 125.867 92.0234 125.76 92.1797 125.623C92.3359 125.486 92.4873 125.34 92.6338 125.184C92.7803 125.027 92.9268 124.891 93.0732 124.773L92.9561 124.656C93.1318 124.607 93.2539 124.544 93.3223 124.466C93.4004 124.378 93.4492 124.28 93.4688 124.173C93.4883 124.065 93.4883 123.953 93.4688 123.836C93.4492 123.709 93.4346 123.577 93.4248 123.44C93.415 123.362 93.4102 123.289 93.4102 123.221C93.4199 123.143 93.4395 123.064 93.4688 122.986C93.3906 122.762 93.376 122.547 93.4248 122.342C93.4834 122.137 93.5566 121.941 93.6445 121.756C93.7422 121.561 93.835 121.365 93.9229 121.17C94.0107 120.975 94.0547 120.77 94.0547 120.555L93.5713 120.452ZM111.882 126.473C111.892 126.59 111.872 126.678 111.823 126.736C111.774 126.795 111.706 126.839 111.618 126.868C111.54 126.897 111.452 126.922 111.354 126.941C111.257 126.951 111.174 126.976 111.105 127.015C110.822 126.985 110.549 126.946 110.285 126.897C110.021 126.839 109.777 126.756 109.553 126.648C109.328 126.531 109.123 126.38 108.938 126.194C108.762 126.009 108.61 125.774 108.483 125.491C108.61 125.286 108.654 125.062 108.615 124.817C108.576 124.563 108.537 124.319 108.498 124.085C108.469 123.851 108.474 123.636 108.513 123.44C108.562 123.245 108.732 123.089 109.025 122.972C109.006 122.864 109.006 122.747 109.025 122.62C109.055 122.493 109.021 122.386 108.923 122.298C108.581 122.415 108.283 122.581 108.029 122.796C107.775 123.011 107.531 123.245 107.297 123.499C107.072 123.753 106.843 124.012 106.608 124.275C106.384 124.529 106.135 124.754 105.861 124.949C105.734 124.959 105.598 124.954 105.451 124.935C105.314 124.905 105.197 124.944 105.1 125.052C105.109 125.12 105.134 125.179 105.173 125.228C105.212 125.276 105.241 125.325 105.261 125.374C105.29 125.423 105.305 125.477 105.305 125.535C105.305 125.584 105.271 125.643 105.202 125.711C105.104 125.809 104.997 125.892 104.88 125.96C104.772 126.019 104.665 126.087 104.558 126.165C104.46 126.233 104.377 126.316 104.309 126.414C104.24 126.512 104.206 126.644 104.206 126.81C104.147 126.78 104.094 126.775 104.045 126.795C103.996 126.805 103.952 126.829 103.913 126.868C103.864 126.907 103.82 126.951 103.781 127C103.742 127.049 103.703 127.088 103.664 127.117C103.645 127.166 103.649 127.205 103.679 127.234C103.708 127.273 103.742 127.312 103.781 127.352C103.742 127.459 103.693 127.522 103.635 127.542C103.566 127.571 103.498 127.576 103.43 127.557C103.352 127.537 103.278 127.503 103.21 127.454C103.132 127.415 103.063 127.381 103.005 127.352C102.976 127.225 102.956 127.078 102.946 126.912C102.937 126.746 102.941 126.585 102.961 126.429C102.98 126.263 103.02 126.106 103.078 125.96C103.137 125.813 103.225 125.691 103.342 125.594C103.381 125.564 103.405 125.55 103.415 125.55C103.425 125.54 103.43 125.535 103.43 125.535C103.43 125.535 103.435 125.535 103.444 125.535C103.454 125.525 103.474 125.506 103.503 125.477C103.581 125.389 103.635 125.296 103.664 125.198C103.693 125.091 103.718 124.983 103.737 124.876C103.757 124.769 103.786 124.666 103.825 124.568C103.854 124.461 103.913 124.368 104.001 124.29C103.962 124.134 103.962 123.997 104.001 123.88C104.05 123.753 104.108 123.636 104.177 123.528C104.255 123.411 104.328 123.299 104.396 123.191C104.475 123.074 104.523 122.947 104.543 122.811C104.553 122.762 104.553 122.718 104.543 122.679C104.543 122.63 104.543 122.581 104.543 122.532C104.523 122.376 104.538 122.259 104.587 122.181C104.646 122.093 104.714 122.024 104.792 121.976C104.88 121.917 104.968 121.858 105.056 121.8C105.153 121.741 105.236 121.653 105.305 121.536C105.588 121.673 105.754 121.858 105.803 122.093C105.861 122.317 105.881 122.571 105.861 122.854C105.695 122.962 105.568 123.113 105.48 123.309C105.393 123.494 105.334 123.675 105.305 123.851C105.324 123.909 105.349 123.943 105.378 123.953C105.417 123.953 105.456 123.948 105.495 123.938C105.544 123.919 105.588 123.899 105.627 123.88C105.666 123.86 105.705 123.851 105.744 123.851C106.096 123.606 106.442 123.333 106.784 123.03C107.136 122.728 107.409 122.381 107.604 121.99C107.888 121.854 108.156 121.697 108.41 121.521C108.664 121.336 108.942 121.199 109.245 121.111L109.582 120.774C109.631 120.853 109.689 120.872 109.758 120.833C109.826 120.784 109.895 120.73 109.963 120.672C110.031 120.613 110.095 120.579 110.153 120.569C110.222 120.56 110.285 120.628 110.344 120.774C110.441 121.028 110.466 121.277 110.417 121.521C110.368 121.756 110.29 121.99 110.183 122.225C110.085 122.449 109.982 122.679 109.875 122.913C109.768 123.147 109.704 123.387 109.685 123.631C109.685 123.689 109.685 123.753 109.685 123.821C109.685 123.88 109.68 123.943 109.67 124.012C109.65 124.217 109.621 124.441 109.582 124.686C109.553 124.92 109.567 125.135 109.626 125.33C109.675 125.506 109.777 125.662 109.934 125.799C110.09 125.936 110.227 126.072 110.344 126.209C110.412 126.199 110.48 126.204 110.549 126.224C110.617 126.243 110.681 126.263 110.739 126.282C110.808 126.302 110.871 126.312 110.93 126.312C110.988 126.302 111.047 126.268 111.105 126.209C111.174 126.18 111.237 126.185 111.296 126.224C111.364 126.253 111.428 126.292 111.486 126.341C111.545 126.39 111.604 126.434 111.662 126.473C111.73 126.502 111.804 126.502 111.882 126.473ZM116.643 117.859C116.467 117.928 116.369 118.03 116.35 118.167C116.33 118.304 116.32 118.445 116.32 118.592C116.33 118.738 116.325 118.875 116.306 119.002C116.286 119.129 116.188 119.212 116.013 119.251C115.944 119.134 115.856 119.026 115.749 118.929C115.651 118.821 115.554 118.719 115.456 118.621C115.358 118.514 115.28 118.401 115.222 118.284C115.163 118.167 115.144 118.025 115.163 117.859L115.896 117.01C116.013 117.049 116.105 117.098 116.174 117.156C116.242 117.215 116.301 117.283 116.35 117.361C116.398 117.439 116.442 117.522 116.481 117.61C116.53 117.688 116.584 117.771 116.643 117.859ZM119.484 124.422C119.494 124.637 119.475 124.788 119.426 124.876C119.387 124.964 119.338 125.037 119.279 125.096C119.221 125.145 119.167 125.203 119.118 125.271C119.079 125.33 119.06 125.438 119.06 125.594C118.835 125.838 118.654 126.019 118.518 126.136C118.381 126.243 118.249 126.336 118.122 126.414C117.995 126.482 117.854 126.561 117.697 126.648C117.541 126.736 117.326 126.873 117.053 127.059L116.95 127.073C116.921 127.22 116.867 127.303 116.789 127.322C116.721 127.352 116.638 127.366 116.54 127.366C116.452 127.366 116.364 127.376 116.276 127.396C116.188 127.415 116.115 127.498 116.057 127.645C115.891 127.693 115.749 127.713 115.632 127.703C115.515 127.693 115.363 127.688 115.178 127.688C115.119 127.688 115.041 127.684 114.943 127.674C114.855 127.664 114.782 127.669 114.724 127.688C114.685 127.698 114.641 127.723 114.592 127.762C114.553 127.811 114.509 127.85 114.46 127.879C114.411 127.908 114.362 127.918 114.313 127.908C114.265 127.908 114.221 127.869 114.182 127.791C114.064 127.82 113.957 127.82 113.859 127.791C113.762 127.762 113.669 127.713 113.581 127.645C113.493 127.576 113.41 127.493 113.332 127.396C113.264 127.308 113.195 127.225 113.127 127.146C113.078 127.088 113.024 127.034 112.966 126.985C112.907 126.937 112.854 126.888 112.805 126.839C112.697 126.731 112.619 126.595 112.57 126.429C112.521 126.263 112.492 126.092 112.482 125.916C112.473 125.74 112.478 125.564 112.497 125.389C112.517 125.213 112.546 125.057 112.585 124.92C112.673 124.832 112.736 124.734 112.775 124.627C112.805 124.51 112.829 124.393 112.849 124.275C112.878 124.158 112.907 124.046 112.937 123.938C112.976 123.821 113.039 123.719 113.127 123.631C113.127 123.504 113.146 123.387 113.186 123.279C113.234 123.172 113.293 123.069 113.361 122.972C113.439 122.874 113.522 122.786 113.61 122.708C113.708 122.62 113.796 122.537 113.874 122.459C113.952 122.459 114.03 122.459 114.108 122.459C114.187 122.449 114.26 122.454 114.328 122.474C114.396 122.483 114.455 122.513 114.504 122.562C114.553 122.601 114.592 122.669 114.621 122.767C114.689 123.03 114.67 123.245 114.562 123.411C114.465 123.567 114.353 123.719 114.226 123.865C114.099 124.012 113.996 124.163 113.918 124.319C113.84 124.476 113.859 124.676 113.977 124.92C113.869 124.92 113.796 124.949 113.757 125.008C113.728 125.066 113.703 125.135 113.684 125.213C113.674 125.281 113.654 125.35 113.625 125.418C113.596 125.486 113.537 125.535 113.449 125.564C113.508 125.623 113.537 125.726 113.537 125.872C113.547 126.019 113.562 126.16 113.581 126.297C113.61 126.424 113.654 126.526 113.713 126.604C113.781 126.683 113.903 126.688 114.079 126.619C114.206 126.727 114.357 126.771 114.533 126.751C114.719 126.731 114.89 126.727 115.046 126.736C115.183 126.648 115.3 126.604 115.397 126.604C115.495 126.595 115.588 126.604 115.676 126.634C115.764 126.653 115.856 126.673 115.954 126.692C116.052 126.712 116.169 126.697 116.306 126.648C116.345 126.482 116.413 126.385 116.511 126.355C116.608 126.326 116.706 126.312 116.804 126.312C116.901 126.302 116.989 126.282 117.067 126.253C117.155 126.224 117.214 126.126 117.243 125.96C117.321 125.862 117.414 125.809 117.521 125.799C117.629 125.779 117.736 125.76 117.844 125.74C117.961 125.721 118.063 125.682 118.151 125.623C118.249 125.555 118.317 125.428 118.356 125.242C118.522 125.115 118.64 125.022 118.708 124.964C118.786 124.896 118.85 124.842 118.898 124.803C118.947 124.764 119.011 124.72 119.089 124.671C119.167 124.622 119.299 124.539 119.484 124.422ZM129.387 122.898C129.299 123.143 129.162 123.367 128.977 123.572C128.801 123.777 128.61 123.978 128.405 124.173C128.2 124.368 127.995 124.563 127.79 124.759C127.595 124.944 127.429 125.14 127.292 125.345C127.204 125.315 127.126 125.325 127.058 125.374C126.999 125.423 126.945 125.486 126.896 125.564C126.789 125.604 126.677 125.647 126.56 125.696C126.452 125.735 126.345 125.784 126.237 125.843C126.14 125.901 126.047 125.97 125.959 126.048C125.881 126.126 125.822 126.224 125.783 126.341C125.598 126.351 125.437 126.39 125.3 126.458C125.163 126.517 125.031 126.58 124.904 126.648C124.777 126.717 124.641 126.775 124.494 126.824C124.348 126.863 124.172 126.868 123.967 126.839C123.928 126.985 123.874 127.054 123.806 127.044C123.747 127.044 123.684 127.029 123.615 127C123.547 126.961 123.479 126.941 123.41 126.941C123.342 126.932 123.288 127 123.249 127.146C123.181 127.146 123.107 127.142 123.029 127.132C122.961 127.132 122.893 127.132 122.824 127.132C122.766 127.142 122.707 127.161 122.648 127.19C122.6 127.22 122.561 127.273 122.531 127.352C122.248 127.352 121.95 127.371 121.638 127.41C121.325 127.449 121.013 127.469 120.7 127.469C120.397 127.469 120.1 127.43 119.807 127.352C119.523 127.283 119.27 127.137 119.045 126.912C118.967 126.834 118.903 126.756 118.854 126.678C118.806 126.6 118.752 126.512 118.693 126.414C118.664 126.365 118.635 126.321 118.605 126.282C118.576 126.233 118.547 126.18 118.518 126.121C118.439 125.945 118.396 125.765 118.386 125.579C118.376 125.394 118.376 125.208 118.386 125.022C118.386 124.837 118.386 124.656 118.386 124.48C118.386 124.295 118.352 124.114 118.283 123.938C118.283 123.772 118.322 123.626 118.4 123.499C118.469 123.362 118.547 123.23 118.635 123.104C118.723 122.977 118.806 122.85 118.884 122.723C118.962 122.586 119.006 122.439 119.016 122.283C118.947 122.117 118.952 121.956 119.03 121.8C119.108 121.644 119.187 121.497 119.265 121.36C119.294 121.312 119.318 121.263 119.338 121.214C119.367 121.155 119.396 121.097 119.426 121.038C119.455 120.979 119.494 120.921 119.543 120.862C119.592 120.804 119.636 120.75 119.675 120.701C119.802 120.525 119.929 120.354 120.056 120.188C120.183 120.022 120.31 119.852 120.437 119.676C120.524 119.559 120.607 119.441 120.686 119.324C120.773 119.207 120.856 119.085 120.935 118.958C120.974 118.899 121.013 118.836 121.052 118.768C121.091 118.689 121.13 118.626 121.169 118.577C121.218 118.519 121.301 118.455 121.418 118.387C121.535 118.309 121.628 118.25 121.696 118.211C121.892 118.113 122.102 118.045 122.326 118.006C122.551 117.957 122.761 117.952 122.956 117.991C123.151 118.03 123.322 118.123 123.469 118.27C123.625 118.406 123.728 118.606 123.776 118.87C123.796 118.997 123.801 119.124 123.791 119.251C123.791 119.368 123.796 119.485 123.806 119.603C123.825 119.72 123.859 119.832 123.908 119.939C123.957 120.037 124.045 120.13 124.172 120.218C124.064 120.384 123.972 120.555 123.894 120.73C123.825 120.906 123.747 121.082 123.659 121.258C123.757 121.287 123.796 121.346 123.776 121.434C123.767 121.512 123.767 121.585 123.776 121.653C123.64 121.761 123.547 121.893 123.498 122.049C123.449 122.205 123.41 122.366 123.381 122.532C123.352 122.688 123.312 122.84 123.264 122.986C123.225 123.123 123.146 123.235 123.029 123.323C123.088 123.636 122.99 123.841 122.736 123.938C122.561 124.007 122.443 124.021 122.385 123.982C122.326 123.934 122.282 123.87 122.253 123.792C122.233 123.704 122.204 123.621 122.165 123.543C122.126 123.465 122.043 123.426 121.916 123.426C121.936 123.309 121.95 123.191 121.96 123.074C121.979 122.947 122.004 122.825 122.033 122.708C122.062 122.591 122.106 122.479 122.165 122.371C122.224 122.264 122.307 122.166 122.414 122.078C122.326 122.029 122.292 121.956 122.312 121.858C122.331 121.751 122.331 121.653 122.312 121.565C122.38 121.37 122.482 121.165 122.619 120.95C122.756 120.735 122.878 120.521 122.985 120.306C123.093 120.081 123.161 119.856 123.19 119.632C123.22 119.407 123.166 119.188 123.029 118.973C122.99 118.914 122.932 118.865 122.854 118.826C122.785 118.787 122.717 118.768 122.648 118.768C122.58 118.768 122.521 118.792 122.473 118.841C122.424 118.89 122.404 118.968 122.414 119.075L122.531 119.178C122.346 119.236 122.18 119.334 122.033 119.471C121.896 119.607 121.765 119.759 121.638 119.925C121.511 120.081 121.384 120.242 121.257 120.408C121.14 120.574 121.013 120.716 120.876 120.833C120.808 121.106 120.7 121.36 120.554 121.595C120.417 121.829 120.28 122.063 120.144 122.298C120.065 122.444 120.007 122.566 119.968 122.664C119.938 122.762 119.895 122.879 119.836 123.016C119.816 123.064 119.792 123.113 119.763 123.162C119.743 123.201 119.724 123.245 119.704 123.294C119.646 123.509 119.592 123.719 119.543 123.924C119.504 124.129 119.392 124.305 119.206 124.451C119.235 124.529 119.26 124.603 119.279 124.671C119.309 124.739 119.357 124.808 119.426 124.876C119.318 124.935 119.255 125.008 119.235 125.096C119.226 125.174 119.23 125.262 119.25 125.359C119.279 125.447 119.313 125.54 119.353 125.638C119.401 125.726 119.426 125.813 119.426 125.901C119.543 125.911 119.65 125.955 119.748 126.033C119.846 126.111 119.943 126.189 120.041 126.268C120.148 126.346 120.251 126.409 120.349 126.458C120.446 126.497 120.554 126.482 120.671 126.414C120.749 126.434 120.822 126.438 120.891 126.429C120.959 126.419 121.027 126.414 121.096 126.414C121.164 126.404 121.228 126.414 121.286 126.443C121.354 126.473 121.423 126.531 121.491 126.619C121.56 126.473 121.652 126.385 121.77 126.355C121.887 126.326 122.009 126.312 122.136 126.312C122.272 126.312 122.399 126.307 122.517 126.297C122.644 126.287 122.751 126.229 122.839 126.121C122.956 126.219 123.059 126.258 123.146 126.238C123.244 126.219 123.332 126.175 123.41 126.106C123.498 126.038 123.586 125.97 123.674 125.901C123.762 125.833 123.859 125.799 123.967 125.799C124.201 125.799 124.406 125.765 124.582 125.696C124.758 125.628 124.929 125.55 125.095 125.462C125.261 125.364 125.427 125.271 125.593 125.184C125.769 125.096 125.969 125.032 126.193 124.993C126.291 124.847 126.403 124.744 126.53 124.686C126.667 124.617 126.804 124.559 126.94 124.51C127.087 124.451 127.224 124.383 127.351 124.305C127.487 124.217 127.609 124.08 127.717 123.895C127.912 123.904 128.073 123.851 128.2 123.733C128.327 123.606 128.449 123.475 128.566 123.338C128.684 123.191 128.801 123.069 128.918 122.972C129.045 122.864 129.201 122.84 129.387 122.898ZM138.439 122.518C138.352 122.605 138.283 122.674 138.234 122.723C138.195 122.771 138.156 122.82 138.117 122.869C138.088 122.908 138.049 122.952 138 123.001C137.961 123.05 137.897 123.123 137.81 123.221C137.731 123.299 137.658 123.382 137.59 123.47C137.521 123.558 137.443 123.636 137.355 123.704C137.238 123.675 137.146 123.689 137.077 123.748C137.019 123.807 136.96 123.875 136.901 123.953C136.853 124.021 136.804 124.09 136.755 124.158C136.716 124.217 136.662 124.241 136.594 124.231C136.359 124.358 136.125 124.471 135.891 124.568C135.656 124.656 135.432 124.788 135.217 124.964L135.1 124.847L133.576 125.579C133.527 125.599 133.479 125.628 133.43 125.667C133.381 125.706 133.332 125.74 133.283 125.77C133.068 125.887 132.844 125.994 132.609 126.092C132.385 126.18 132.16 126.263 131.936 126.341L131.745 126.399C131.823 126.595 131.823 126.731 131.745 126.81C131.667 126.888 131.555 126.946 131.408 126.985C131.262 127.015 131.101 127.034 130.925 127.044C130.749 127.054 130.612 127.088 130.515 127.146C130.397 127.127 130.275 127.117 130.148 127.117C130.031 127.127 129.909 127.142 129.782 127.161C129.646 127.181 129.519 127.19 129.401 127.19C129.284 127.19 129.157 127.176 129.021 127.146H128.991C128.825 127.225 128.679 127.239 128.552 127.19C128.435 127.151 128.327 127.083 128.229 126.985C128.132 126.878 128.039 126.756 127.951 126.619C127.873 126.473 127.79 126.341 127.702 126.224C127.644 126.146 127.57 126.033 127.482 125.887C127.395 125.74 127.321 125.584 127.263 125.418C127.194 125.252 127.155 125.086 127.146 124.92C127.126 124.744 127.16 124.593 127.248 124.466C127.336 124.339 127.409 124.202 127.468 124.056C127.517 123.909 127.541 123.738 127.541 123.543C127.541 123.475 127.541 123.411 127.541 123.353C127.531 123.294 127.526 123.23 127.526 123.162C127.575 123.162 127.629 123.167 127.688 123.177C127.746 123.177 127.8 123.177 127.849 123.177C127.907 123.167 127.951 123.147 127.98 123.118C128.02 123.079 128.039 123.016 128.039 122.928C128.039 122.879 128.02 122.84 127.98 122.811C127.951 122.781 127.932 122.752 127.922 122.723C127.98 122.635 128.034 122.566 128.083 122.518C128.142 122.459 128.19 122.405 128.229 122.356C128.269 122.298 128.298 122.234 128.317 122.166C128.337 122.088 128.332 121.985 128.303 121.858C128.42 121.653 128.557 121.473 128.713 121.316C128.879 121.15 129.05 120.999 129.226 120.862C129.401 120.716 129.582 120.574 129.768 120.438C129.953 120.301 130.129 120.154 130.295 119.998C130.48 120.076 130.627 120.076 130.734 119.998C130.852 119.92 130.954 119.837 131.042 119.749C131.13 119.651 131.218 119.573 131.306 119.515C131.394 119.456 131.511 119.48 131.657 119.588L131.687 119.617C131.95 119.354 132.214 119.236 132.478 119.266C132.751 119.295 132.98 119.383 133.166 119.529C133.361 119.676 133.488 119.847 133.547 120.042C133.605 120.228 133.552 120.354 133.386 120.423C133.493 120.53 133.547 120.657 133.547 120.804C133.547 120.95 133.508 121.077 133.43 121.185C133.342 121.302 133.264 121.424 133.195 121.551C133.137 121.668 133.073 121.795 133.005 121.932C132.907 122.156 132.8 122.371 132.683 122.576C132.565 122.771 132.399 122.938 132.185 123.074C132.009 123.025 131.887 123.045 131.818 123.133C131.76 123.221 131.716 123.318 131.687 123.426C131.657 123.523 131.623 123.602 131.584 123.66C131.545 123.719 131.462 123.699 131.335 123.602L131.306 123.572L131.276 123.602C131.198 123.68 131.135 123.768 131.086 123.865C131.047 123.963 130.988 124.036 130.91 124.085C130.822 124.056 130.729 124.031 130.632 124.012C130.534 123.992 130.441 123.973 130.354 123.953C130.354 124.158 130.314 124.319 130.236 124.437C130.158 124.554 130.056 124.651 129.929 124.729C129.812 124.798 129.675 124.856 129.519 124.905C129.362 124.944 129.206 124.998 129.05 125.066C128.903 125.125 128.762 125.203 128.625 125.301C128.498 125.389 128.396 125.516 128.317 125.682C128.415 125.789 128.537 125.853 128.684 125.872C128.83 125.882 128.981 125.882 129.138 125.872C129.294 125.853 129.445 125.843 129.592 125.843C129.748 125.843 129.885 125.882 130.002 125.96L130.017 125.975L130.031 125.96C130.266 125.931 130.49 125.877 130.705 125.799C130.93 125.711 131.145 125.623 131.35 125.535C131.564 125.438 131.779 125.35 131.994 125.271C132.219 125.184 132.448 125.12 132.683 125.081C132.731 125.159 132.795 125.203 132.873 125.213C132.961 125.223 133.044 125.218 133.122 125.198L133.137 125.169C133.156 125.101 133.176 125.042 133.195 124.993C133.215 124.935 133.244 124.871 133.283 124.803C133.352 124.695 133.435 124.612 133.532 124.554C133.63 124.495 133.732 124.451 133.84 124.422C133.957 124.393 134.079 124.373 134.206 124.363C134.333 124.354 134.46 124.339 134.587 124.319H134.616L134.631 124.275C134.67 124.158 134.719 124.08 134.777 124.041C134.846 123.992 134.914 123.958 134.982 123.938C135.061 123.919 135.139 123.904 135.217 123.895C135.305 123.885 135.388 123.855 135.466 123.807C135.642 123.865 135.788 123.846 135.905 123.748C136.022 123.65 136.135 123.548 136.242 123.44L136.359 123.587L136.403 123.528C136.55 123.392 136.657 123.289 136.726 123.221C136.804 123.152 136.877 123.094 136.945 123.045C137.014 122.986 137.092 122.933 137.18 122.884C137.277 122.825 137.409 122.742 137.575 122.635C137.712 122.547 137.844 122.459 137.971 122.371C138.107 122.283 138.239 122.186 138.366 122.078C138.415 122.098 138.439 122.137 138.439 122.195C138.439 122.244 138.439 122.293 138.439 122.342C138.43 122.361 138.42 122.391 138.41 122.43C138.41 122.469 138.42 122.498 138.439 122.518ZM132.375 120.687C132.365 120.677 132.355 120.672 132.346 120.672C132.346 120.672 132.341 120.667 132.331 120.657C132.126 120.55 131.955 120.501 131.818 120.511C131.682 120.511 131.555 120.55 131.438 120.628C131.33 120.696 131.228 120.789 131.13 120.906C131.042 121.014 130.944 121.116 130.837 121.214C130.739 121.302 130.622 121.37 130.485 121.419C130.349 121.468 130.183 121.463 129.987 121.404C129.958 121.561 129.929 121.717 129.899 121.873C129.88 122.02 129.865 122.171 129.855 122.327C129.689 122.386 129.558 122.469 129.46 122.576C129.372 122.684 129.294 122.801 129.226 122.928C129.167 123.055 129.108 123.191 129.05 123.338C129.001 123.475 128.933 123.606 128.845 123.733L128.903 123.807C128.942 123.787 128.986 123.802 129.035 123.851C129.084 123.899 129.118 123.934 129.138 123.953C129.245 123.797 129.387 123.665 129.562 123.558C129.748 123.45 129.934 123.353 130.119 123.265C130.314 123.167 130.5 123.064 130.676 122.957C130.852 122.85 130.983 122.708 131.071 122.532C131.384 122.444 131.618 122.269 131.774 122.005C131.931 121.741 132.062 121.468 132.17 121.185C132.189 121.126 132.224 121.043 132.272 120.936C132.331 120.818 132.365 120.735 132.375 120.687ZM153.044 123.807C152.829 124.295 152.634 124.676 152.458 124.949C152.282 125.213 152.087 125.433 151.872 125.608C151.667 125.784 151.428 125.95 151.154 126.106C150.881 126.253 150.544 126.463 150.144 126.736C149.978 126.746 149.797 126.785 149.602 126.854C149.406 126.912 149.24 126.995 149.104 127.103C148.811 127.073 148.542 127.01 148.298 126.912C148.054 126.814 147.824 126.658 147.609 126.443C147.561 126.395 147.517 126.341 147.478 126.282C147.438 126.224 147.395 126.17 147.346 126.121C147.238 125.994 147.17 125.882 147.141 125.784C147.111 125.687 147.087 125.56 147.067 125.403C147.028 125.179 146.97 125.018 146.892 124.92C146.813 124.822 146.662 124.871 146.438 125.066L146.306 124.949L146.276 124.979C146.188 125.047 146.115 125.105 146.057 125.154C146.008 125.203 145.954 125.257 145.896 125.315C145.847 125.364 145.798 125.418 145.749 125.477C145.7 125.535 145.642 125.608 145.573 125.696C145.456 125.843 145.324 125.994 145.178 126.15C145.041 126.307 144.88 126.414 144.694 126.473C144.665 126.502 144.641 126.531 144.621 126.561C144.602 126.58 144.567 126.595 144.519 126.604C144.46 126.624 144.392 126.619 144.313 126.59C144.235 126.561 144.172 126.521 144.123 126.473C144.016 126.473 143.918 126.502 143.83 126.561C143.752 126.609 143.674 126.678 143.596 126.766C143.527 126.844 143.459 126.927 143.391 127.015C143.332 127.103 143.264 127.176 143.186 127.234C143.029 127.176 142.883 127.166 142.746 127.205C142.619 127.244 142.492 127.278 142.365 127.308C142.238 127.347 142.111 127.361 141.984 127.352C141.857 127.352 141.73 127.278 141.604 127.132C141.545 126.839 141.496 126.57 141.457 126.326C141.418 126.121 141.384 125.926 141.354 125.74C141.325 125.555 141.311 125.442 141.311 125.403C141.359 125.354 141.384 125.291 141.384 125.213C141.374 125.125 141.359 125.052 141.34 124.993C141.32 124.983 141.311 124.974 141.311 124.964C141.311 124.954 141.301 124.944 141.281 124.935C141.33 124.896 141.369 124.847 141.398 124.788C141.418 124.729 141.452 124.681 141.501 124.642C141.472 124.563 141.438 124.476 141.398 124.378C141.359 124.28 141.34 124.183 141.34 124.085C141.369 124.007 141.398 123.963 141.428 123.953C141.447 123.943 141.501 123.929 141.589 123.909C141.579 123.86 141.569 123.816 141.56 123.777C141.54 123.729 141.535 123.68 141.545 123.631C141.545 123.533 141.569 123.45 141.618 123.382C141.657 123.304 141.701 123.23 141.75 123.162C141.799 123.084 141.843 123.001 141.882 122.913C141.921 122.825 141.94 122.723 141.94 122.605V122.532C142.087 122.532 142.185 122.493 142.233 122.415C142.282 122.327 142.312 122.229 142.321 122.122C142.331 122.015 142.336 121.907 142.336 121.8C142.336 121.692 142.365 121.614 142.424 121.565C142.463 121.526 142.497 121.512 142.526 121.521C142.565 121.521 142.609 121.521 142.658 121.521C142.717 121.453 142.756 121.404 142.775 121.375C142.795 121.336 142.79 121.268 142.761 121.17C142.829 121.17 142.883 121.155 142.922 121.126C142.961 121.097 142.99 121.058 143.01 121.009C143.039 120.96 143.063 120.911 143.083 120.862C143.112 120.813 143.146 120.77 143.186 120.73C143.186 120.486 143.249 120.315 143.376 120.218C143.503 120.12 143.645 120.042 143.801 119.983C143.967 119.915 144.128 119.837 144.284 119.749C144.45 119.661 144.572 119.505 144.65 119.28C144.777 119.358 144.885 119.368 144.973 119.31C145.061 119.241 145.144 119.173 145.222 119.104C145.3 119.026 145.388 118.978 145.485 118.958C145.583 118.929 145.705 118.992 145.852 119.148C145.91 118.963 146.027 118.865 146.203 118.855C146.389 118.846 146.555 118.885 146.701 118.973V118.987H146.716C146.872 119.017 146.989 119.095 147.067 119.222C147.146 119.339 147.209 119.476 147.258 119.632C147.316 119.778 147.375 119.925 147.434 120.071C147.502 120.218 147.595 120.335 147.712 120.423C147.771 120.169 147.824 119.91 147.873 119.646C147.932 119.383 148.024 119.134 148.151 118.899C148.239 119.007 148.332 119.026 148.43 118.958L148.415 118.929C148.415 118.772 148.444 118.631 148.503 118.504C148.571 118.377 148.635 118.255 148.693 118.138C148.762 118.011 148.801 117.884 148.811 117.757C148.83 117.62 148.786 117.469 148.679 117.303C148.845 117.254 148.962 117.161 149.03 117.024C149.108 116.888 149.167 116.741 149.206 116.585C149.255 116.419 149.304 116.253 149.353 116.087C149.411 115.921 149.499 115.779 149.616 115.662C149.616 115.633 149.611 115.604 149.602 115.574C149.602 115.545 149.602 115.516 149.602 115.486C149.611 115.408 149.641 115.34 149.689 115.281C149.738 115.223 149.792 115.164 149.851 115.105C149.909 115.047 149.958 114.983 149.997 114.915C150.046 114.837 150.065 114.744 150.056 114.637C150.153 114.51 150.241 114.344 150.319 114.139C150.397 113.924 150.48 113.724 150.568 113.538C150.656 113.353 150.759 113.216 150.876 113.128C150.993 113.03 151.145 113.035 151.33 113.143C151.369 113.26 151.384 113.367 151.374 113.465C151.364 113.553 151.311 113.646 151.213 113.743C151.271 113.802 151.315 113.851 151.345 113.89C151.315 114.192 151.257 114.495 151.169 114.798C151.091 115.091 151.013 115.379 150.935 115.662C150.954 115.682 150.974 115.701 150.993 115.721C151.013 115.74 151.032 115.76 151.052 115.779C150.886 116.014 150.749 116.248 150.642 116.482C150.544 116.717 150.456 116.971 150.378 117.244C150.349 117.352 150.319 117.464 150.29 117.581C150.271 117.698 150.241 117.806 150.202 117.903C150.153 118.001 150.095 118.108 150.026 118.226C149.958 118.333 149.899 118.44 149.851 118.548C149.743 118.772 149.646 119.002 149.558 119.236C149.479 119.461 149.401 119.69 149.323 119.925C149.226 120.208 149.123 120.486 149.016 120.76C148.918 121.033 148.796 121.302 148.649 121.565V121.8C148.64 121.907 148.605 121.985 148.547 122.034C148.488 122.073 148.42 122.112 148.342 122.151C148.273 122.181 148.205 122.229 148.137 122.298C148.068 122.356 148.02 122.459 147.99 122.605V122.62L148.005 122.635C148.103 122.85 148.122 123.05 148.063 123.235C148.015 123.411 147.956 123.587 147.888 123.763C147.819 123.929 147.771 124.095 147.741 124.261C147.722 124.427 147.79 124.598 147.946 124.773C147.937 124.969 147.976 125.125 148.063 125.242C148.151 125.35 148.254 125.442 148.371 125.521C148.488 125.599 148.605 125.672 148.723 125.74C148.85 125.799 148.942 125.877 149.001 125.975C149.099 125.877 149.201 125.804 149.309 125.755C149.426 125.696 149.538 125.652 149.646 125.623C149.763 125.594 149.875 125.569 149.982 125.55C150.1 125.521 150.212 125.486 150.319 125.447C150.573 125.379 150.749 125.296 150.847 125.198C150.944 125.101 150.993 125.037 150.993 125.008C151.003 124.871 151.052 124.783 151.14 124.744C151.237 124.705 151.345 124.681 151.462 124.671C151.589 124.651 151.711 124.627 151.828 124.598C151.955 124.568 152.048 124.495 152.106 124.378C152.214 124.388 152.307 124.354 152.385 124.275C152.473 124.188 152.551 124.1 152.619 124.012C152.688 123.924 152.756 123.851 152.824 123.792C152.893 123.733 152.966 123.738 153.044 123.807ZM147.023 121.551C146.867 121.434 146.76 121.302 146.701 121.155C146.652 120.999 146.608 120.843 146.569 120.687C146.54 120.53 146.496 120.384 146.438 120.247C146.389 120.101 146.286 119.979 146.13 119.881L146.101 119.866C146.091 119.866 146.037 119.876 145.939 119.896C145.842 119.915 145.783 119.93 145.764 119.939C145.842 120.008 145.891 120.066 145.91 120.115C145.93 120.164 145.93 120.213 145.91 120.262C145.9 120.311 145.876 120.364 145.837 120.423C145.808 120.472 145.783 120.535 145.764 120.613C145.744 120.633 145.705 120.628 145.646 120.599C145.588 120.56 145.544 120.53 145.515 120.511C145.378 120.716 145.183 120.853 144.929 120.921C144.685 120.979 144.45 121.038 144.226 121.097C144.245 121.146 144.265 121.189 144.284 121.229C144.304 121.268 144.323 121.312 144.343 121.36C144.05 121.556 143.835 121.795 143.698 122.078C143.571 122.352 143.454 122.64 143.347 122.942C143.249 123.235 143.127 123.523 142.98 123.807C142.844 124.08 142.629 124.314 142.336 124.51C142.385 124.588 142.419 124.666 142.438 124.744C142.458 124.822 142.521 124.881 142.629 124.92C142.658 125.027 142.668 125.14 142.658 125.257C142.658 125.364 142.648 125.472 142.629 125.579C142.609 125.687 142.595 125.799 142.585 125.916C142.585 126.023 142.6 126.136 142.629 126.253L142.658 126.282C142.961 126.39 143.195 126.399 143.361 126.312C143.537 126.224 143.688 126.111 143.815 125.975C143.952 125.838 144.099 125.711 144.255 125.594C144.411 125.477 144.631 125.447 144.914 125.506L144.973 125.418C144.953 125.369 144.938 125.325 144.929 125.286C144.919 125.247 144.914 125.203 144.914 125.154C144.924 125.047 144.953 124.964 145.002 124.905C145.051 124.837 145.114 124.764 145.192 124.686C145.261 124.607 145.324 124.524 145.383 124.437C145.451 124.349 145.515 124.256 145.573 124.158C145.632 124.07 145.7 123.997 145.778 123.938C145.856 123.87 145.959 123.86 146.086 123.909L146.364 122.854C146.374 122.806 146.418 122.762 146.496 122.723C146.584 122.684 146.657 122.64 146.716 122.591C146.784 122.542 146.823 122.479 146.833 122.4C146.853 122.322 146.799 122.22 146.672 122.093C146.691 122.054 146.706 122.005 146.716 121.946C146.726 121.888 146.74 121.834 146.76 121.785C146.779 121.736 146.804 121.697 146.833 121.668C146.862 121.639 146.911 121.634 146.979 121.653L147.023 121.551ZM162.009 125.462C161.872 125.696 161.765 125.887 161.687 126.033C161.618 126.17 161.545 126.287 161.467 126.385C161.398 126.473 161.315 126.556 161.218 126.634C161.13 126.702 161.003 126.79 160.837 126.897C160.729 126.995 160.622 127.078 160.515 127.146C160.427 127.215 160.339 127.273 160.251 127.322C160.173 127.371 160.109 127.396 160.061 127.396C160.041 127.396 160.021 127.391 160.002 127.381C159.982 127.381 159.963 127.381 159.943 127.381C159.885 127.381 159.826 127.381 159.768 127.381C159.719 127.391 159.675 127.356 159.636 127.278C159.606 127.308 159.582 127.342 159.562 127.381C159.543 127.42 159.523 127.454 159.504 127.483C159.484 127.522 159.455 127.552 159.416 127.571C159.387 127.591 159.343 127.591 159.284 127.571L159.211 127.483L158.991 127.674C158.718 127.537 158.454 127.42 158.2 127.322C157.956 127.234 157.736 127.127 157.541 127C157.346 126.873 157.18 126.712 157.043 126.517C156.906 126.312 156.809 126.033 156.75 125.682C156.701 125.623 156.647 125.574 156.589 125.535C156.53 125.486 156.462 125.472 156.384 125.491C156.286 125.657 156.169 125.799 156.032 125.916C155.896 126.033 155.759 126.16 155.622 126.297C155.573 126.346 155.534 126.399 155.505 126.458C155.476 126.517 155.437 126.57 155.388 126.619C155.31 126.707 155.217 126.771 155.109 126.81C155.002 126.839 154.895 126.868 154.787 126.897C154.68 126.927 154.577 126.976 154.479 127.044C154.392 127.112 154.328 127.229 154.289 127.396C154.172 127.327 154.055 127.308 153.938 127.337C153.85 127.356 153.757 127.376 153.659 127.396C153.562 127.425 153.464 127.439 153.366 127.439C153.278 127.449 153.19 127.439 153.103 127.41C153.015 127.381 152.937 127.317 152.868 127.22C152.731 127.278 152.604 127.273 152.487 127.205C152.37 127.146 152.258 127.063 152.15 126.956C152.053 126.839 151.955 126.717 151.857 126.59C151.76 126.463 151.667 126.37 151.579 126.312C151.521 126.155 151.525 126.023 151.594 125.916C151.652 125.799 151.721 125.691 151.799 125.594C151.867 125.486 151.916 125.384 151.945 125.286C151.975 125.179 151.931 125.052 151.813 124.905C151.911 124.759 151.999 124.607 152.077 124.451C152.155 124.285 152.233 124.124 152.312 123.968C152.399 123.802 152.487 123.646 152.575 123.499C152.673 123.343 152.79 123.211 152.927 123.104C152.868 123.035 152.839 122.972 152.839 122.913C152.839 122.845 152.854 122.781 152.883 122.723C152.912 122.654 152.946 122.591 152.985 122.532C153.024 122.464 153.054 122.4 153.073 122.342L153.498 122.137L153.396 121.785C153.503 121.805 153.581 121.8 153.63 121.771C153.688 121.741 153.728 121.697 153.747 121.639C153.776 121.58 153.796 121.517 153.806 121.448C153.825 121.37 153.85 121.302 153.879 121.243C153.928 121.155 154.001 121.092 154.099 121.053C154.304 120.896 154.504 120.73 154.699 120.555C154.904 120.379 155.104 120.208 155.3 120.042C155.505 119.876 155.715 119.72 155.93 119.573C156.145 119.417 156.379 119.285 156.633 119.178C156.809 119.207 156.945 119.261 157.043 119.339C157.15 119.417 157.229 119.51 157.277 119.617C157.336 119.725 157.38 119.847 157.409 119.983C157.438 120.11 157.468 120.237 157.497 120.364C157.546 120.53 157.604 120.672 157.673 120.789C157.741 120.906 157.858 121.004 158.024 121.082C157.888 121.316 157.834 121.551 157.863 121.785C157.893 122.01 157.922 122.249 157.951 122.503C157.98 122.737 157.976 122.967 157.937 123.191C157.907 123.416 157.766 123.616 157.512 123.792C157.492 123.86 157.487 123.934 157.497 124.012C157.507 124.09 157.512 124.168 157.512 124.246C157.512 124.324 157.497 124.397 157.468 124.466C157.438 124.534 157.385 124.588 157.307 124.627C157.395 124.734 157.438 124.842 157.438 124.949C157.448 125.057 157.453 125.159 157.453 125.257C157.463 125.354 157.487 125.442 157.526 125.521C157.575 125.599 157.683 125.657 157.849 125.696C157.878 125.823 157.902 125.921 157.922 125.989C157.951 126.048 157.98 126.097 158.01 126.136C158.049 126.175 158.098 126.214 158.156 126.253C158.215 126.282 158.293 126.331 158.391 126.399C158.469 126.419 158.557 126.419 158.654 126.399C158.752 126.38 158.83 126.409 158.889 126.487C158.938 126.438 158.996 126.414 159.064 126.414C159.133 126.404 159.196 126.404 159.255 126.414L159.445 126.736C159.553 126.658 159.675 126.59 159.812 126.531C159.948 126.473 160.08 126.424 160.207 126.385C160.354 126.346 160.5 126.312 160.646 126.282L162.009 125.462ZM156.384 120.452C156.296 120.53 156.188 120.608 156.062 120.687C155.935 120.765 155.808 120.848 155.681 120.936C155.563 121.023 155.461 121.121 155.373 121.229C155.285 121.326 155.231 121.443 155.212 121.58C154.987 121.619 154.831 121.712 154.743 121.858C154.655 122.005 154.582 122.166 154.523 122.342C154.465 122.518 154.401 122.693 154.333 122.869C154.265 123.035 154.143 123.167 153.967 123.265C153.908 123.304 153.854 123.323 153.806 123.323C153.815 123.323 153.786 123.343 153.718 123.382C153.61 123.46 153.518 123.558 153.439 123.675C153.361 123.792 153.293 123.919 153.234 124.056C153.186 124.192 153.137 124.334 153.088 124.48C153.049 124.617 153.01 124.744 152.971 124.861C152.834 124.881 152.731 124.91 152.663 124.949C152.595 124.988 152.551 125.032 152.531 125.081C152.521 125.12 152.526 125.169 152.546 125.228C152.565 125.286 152.595 125.35 152.634 125.418C152.673 125.477 152.712 125.545 152.751 125.623C152.8 125.701 152.839 125.779 152.868 125.857C152.897 125.936 152.912 126.014 152.912 126.092C152.922 126.17 152.902 126.243 152.854 126.312C152.99 126.419 153.122 126.443 153.249 126.385C153.376 126.316 153.493 126.243 153.601 126.165C153.64 126.136 153.679 126.106 153.718 126.077C153.767 126.038 153.815 126.009 153.864 125.989C154.089 126.038 154.294 126.023 154.479 125.945C154.665 125.867 154.836 125.76 154.992 125.623C155.148 125.486 155.3 125.34 155.446 125.184C155.593 125.027 155.739 124.891 155.886 124.773L155.769 124.656C155.944 124.607 156.066 124.544 156.135 124.466C156.213 124.378 156.262 124.28 156.281 124.173C156.301 124.065 156.301 123.953 156.281 123.836C156.262 123.709 156.247 123.577 156.237 123.44C156.228 123.362 156.223 123.289 156.223 123.221C156.232 123.143 156.252 123.064 156.281 122.986C156.203 122.762 156.188 122.547 156.237 122.342C156.296 122.137 156.369 121.941 156.457 121.756C156.555 121.561 156.647 121.365 156.735 121.17C156.823 120.975 156.867 120.77 156.867 120.555L156.384 120.452ZM169.992 126.678C170.051 126.717 170.075 126.751 170.065 126.78C170.056 126.81 170.031 126.839 169.992 126.868C169.963 126.897 169.924 126.922 169.875 126.941C169.826 126.951 169.787 126.961 169.758 126.971L169.318 127.059C168.947 127.137 168.596 127.244 168.264 127.381C167.932 127.527 167.595 127.669 167.253 127.806C167.214 127.757 167.16 127.723 167.092 127.703C167.033 127.684 166.979 127.703 166.931 127.762C166.94 127.791 166.945 127.835 166.945 127.894C166.945 128.011 166.94 128.104 166.931 128.172C166.921 128.25 166.901 128.318 166.872 128.377C166.853 128.436 166.818 128.489 166.77 128.538C166.721 128.597 166.657 128.665 166.579 128.743C166.481 128.841 166.496 128.89 166.623 128.89C166.555 128.978 166.481 129.026 166.403 129.036C166.384 129.046 166.354 129.051 166.315 129.051C166.296 129.051 166.276 129.056 166.257 129.065C166.247 129.085 166.257 129.124 166.286 129.183C166.315 129.251 166.335 129.295 166.345 129.314C166.345 129.324 166.33 129.349 166.301 129.388C166.271 129.427 166.242 129.466 166.213 129.505C166.184 129.554 166.159 129.598 166.14 129.637C166.12 129.686 166.12 129.725 166.14 129.754V129.871C166.188 129.891 166.188 129.905 166.14 129.915C166.101 129.935 166.076 129.944 166.066 129.944C166.057 129.944 166.027 129.964 165.979 130.003C165.93 130.052 165.905 130.081 165.905 130.091C165.886 130.11 165.861 130.12 165.832 130.12C165.812 130.13 165.788 130.145 165.759 130.164C165.749 130.164 165.734 130.179 165.715 130.208C165.705 130.247 165.695 130.286 165.686 130.325C165.676 130.364 165.666 130.403 165.656 130.442C165.646 130.481 165.646 130.506 165.656 130.516C165.656 130.643 165.642 130.75 165.612 130.838C165.593 130.926 165.568 131.033 165.539 131.16C165.5 131.316 165.441 131.424 165.363 131.482C165.295 131.551 165.222 131.609 165.144 131.658C165.065 131.717 164.987 131.78 164.909 131.849C164.841 131.917 164.787 132.029 164.748 132.186C164.738 132.225 164.729 132.259 164.719 132.288C164.709 132.308 164.704 132.332 164.704 132.361V132.391C164.665 132.459 164.631 132.513 164.602 132.552C164.582 132.601 164.562 132.645 164.543 132.684C164.523 132.723 164.509 132.767 164.499 132.815C164.489 132.864 164.484 132.923 164.484 132.991C164.504 133.021 164.504 133.064 164.484 133.123C164.475 133.182 164.455 133.24 164.426 133.299C164.396 133.357 164.362 133.416 164.323 133.475C164.294 133.533 164.27 133.577 164.25 133.606C164.221 133.655 164.187 133.704 164.147 133.753C164.108 133.802 164.069 133.851 164.03 133.899C163.825 134.183 163.654 134.461 163.518 134.734C163.312 135.145 163.063 135.535 162.771 135.906C162.712 135.975 162.644 136.048 162.565 136.126C162.497 136.204 162.443 136.282 162.404 136.36V136.463C162.404 136.658 162.351 136.805 162.243 136.902C162.136 137 162.004 137.093 161.848 137.181C161.799 137.22 161.745 137.259 161.687 137.298C161.628 137.337 161.579 137.386 161.54 137.444C161.481 137.522 161.403 137.62 161.306 137.737C161.198 137.854 161.101 137.938 161.013 137.986C160.993 137.986 160.93 137.981 160.822 137.972C160.715 137.962 160.651 137.957 160.632 137.957C160.612 137.967 160.583 137.986 160.544 138.016C160.495 138.045 160.446 138.074 160.397 138.104C160.349 138.133 160.3 138.157 160.251 138.177C160.202 138.196 160.173 138.201 160.163 138.191C160.104 138.162 160.056 138.147 160.017 138.147C159.997 138.147 159.978 138.157 159.958 138.177C159.929 138.206 159.904 138.23 159.885 138.25C159.807 138.23 159.748 138.221 159.709 138.221C159.689 138.221 159.66 138.201 159.621 138.162C159.572 138.123 159.528 138.074 159.489 138.016C159.44 137.967 159.401 137.918 159.372 137.869C159.333 137.82 159.309 137.786 159.299 137.767C159.23 137.659 159.191 137.532 159.182 137.386C159.172 137.239 159.177 137.083 159.196 136.917C159.206 136.761 159.226 136.604 159.255 136.448C159.284 136.292 159.313 136.155 159.343 136.038C159.392 135.843 159.436 135.643 159.475 135.438C159.514 135.242 159.533 135.047 159.533 134.852C159.533 134.803 159.543 134.764 159.562 134.734C159.582 134.705 159.602 134.676 159.621 134.646C159.641 134.627 159.646 134.603 159.636 134.573C159.626 134.554 159.616 134.534 159.606 134.515C159.597 134.485 159.606 134.427 159.636 134.339C159.665 134.251 159.704 134.153 159.753 134.046C159.792 133.948 159.836 133.851 159.885 133.753C159.924 133.665 159.953 133.606 159.973 133.577C160.168 133.226 160.349 132.854 160.515 132.464C160.671 132.073 160.876 131.722 161.13 131.409C161.276 131.233 161.423 131.058 161.569 130.882C161.716 130.706 161.857 130.521 161.994 130.325C162.053 130.247 162.102 130.188 162.141 130.149C162.199 130.071 162.287 130.008 162.404 129.959C162.521 129.91 162.634 129.896 162.741 129.915C162.751 129.915 162.795 129.886 162.873 129.827C162.961 129.769 163.01 129.734 163.02 129.725C163.059 129.598 163.122 129.461 163.21 129.314C163.298 129.178 163.386 129.056 163.474 128.948C163.532 128.88 163.61 128.831 163.708 128.802C163.806 128.772 163.908 128.743 164.016 128.714C164.133 128.685 164.245 128.646 164.353 128.597C164.46 128.558 164.558 128.484 164.646 128.377C164.714 128.299 164.802 128.206 164.909 128.099C165.026 127.991 165.139 127.918 165.246 127.879C165.344 127.898 165.476 127.884 165.642 127.835C165.817 127.786 165.935 127.718 165.993 127.63C166.042 127.562 166.066 127.449 166.066 127.293C166.066 127.215 166.096 127.117 166.154 127C166.223 126.883 166.276 126.795 166.315 126.736C166.364 126.658 166.403 126.58 166.433 126.502C166.462 126.424 166.491 126.346 166.521 126.268C166.54 126.219 166.555 126.175 166.564 126.136C166.574 126.087 166.584 126.038 166.594 125.989C166.604 125.979 166.623 125.945 166.652 125.887C166.682 125.828 166.711 125.77 166.74 125.711C166.779 125.652 166.809 125.599 166.828 125.55C166.857 125.491 166.867 125.457 166.857 125.447C166.857 125.438 166.828 125.428 166.77 125.418C166.711 125.408 166.647 125.403 166.579 125.403C166.521 125.394 166.462 125.389 166.403 125.389C166.345 125.379 166.311 125.374 166.301 125.374C166.262 125.374 166.203 125.389 166.125 125.418C166.057 125.447 165.979 125.481 165.891 125.521C165.812 125.56 165.744 125.604 165.686 125.652C165.627 125.691 165.593 125.721 165.583 125.74C165.271 125.848 164.958 125.906 164.646 125.916C164.333 125.926 164.021 125.989 163.708 126.106C163.522 126.175 163.317 126.229 163.093 126.268C162.878 126.297 162.668 126.307 162.463 126.297C162.453 126.297 162.424 126.292 162.375 126.282C162.326 126.263 162.272 126.243 162.214 126.224C162.155 126.194 162.102 126.17 162.053 126.15C162.004 126.131 161.975 126.121 161.965 126.121C161.916 126.102 161.867 126.067 161.818 126.019C161.779 125.96 161.74 125.901 161.701 125.843C161.672 125.774 161.643 125.711 161.613 125.652C161.584 125.584 161.56 125.53 161.54 125.491C161.491 125.384 161.452 125.276 161.423 125.169C161.384 125.062 161.354 124.954 161.335 124.847C161.325 124.847 161.32 124.808 161.32 124.729C161.32 124.69 161.315 124.656 161.306 124.627C161.267 124.363 161.242 124.07 161.232 123.748C161.213 123.426 161.276 123.147 161.423 122.913C161.462 122.845 161.506 122.771 161.555 122.693C161.604 122.605 161.652 122.532 161.701 122.474C161.74 122.425 161.774 122.386 161.804 122.356C161.833 122.327 161.867 122.288 161.906 122.239C161.916 122.22 161.936 122.2 161.965 122.181C161.994 122.151 162.009 122.132 162.009 122.122C162.116 122.015 162.214 121.902 162.302 121.785C162.39 121.668 162.473 121.551 162.551 121.434C162.57 121.404 162.6 121.37 162.639 121.331C162.678 121.282 162.717 121.238 162.756 121.199C162.805 121.15 162.854 121.116 162.902 121.097C162.951 121.067 162.995 121.062 163.034 121.082C163.083 121.082 163.127 121.082 163.166 121.082C163.215 121.082 163.264 121.087 163.312 121.097C163.361 121.175 163.396 121.238 163.415 121.287C163.444 121.336 163.459 121.39 163.459 121.448C163.469 121.497 163.469 121.556 163.459 121.624C163.459 121.683 163.459 121.756 163.459 121.844C163.41 121.883 163.356 121.922 163.298 121.961C163.239 122 163.181 122.039 163.122 122.078C163.103 122.098 163.068 122.161 163.02 122.269C162.98 122.376 162.937 122.498 162.888 122.635C162.849 122.762 162.81 122.889 162.771 123.016C162.741 123.133 162.722 123.206 162.712 123.235C162.653 123.489 162.551 123.743 162.404 123.997C162.268 124.251 162.111 124.471 161.936 124.656L161.921 124.7C161.989 124.769 162.048 124.837 162.097 124.905C162.155 124.964 162.214 125.022 162.272 125.081C162.39 125.081 162.502 125.066 162.609 125.037C162.658 125.076 162.707 125.115 162.756 125.154C162.814 125.193 162.863 125.237 162.902 125.286C163.029 125.286 163.142 125.286 163.239 125.286C163.347 125.286 163.444 125.281 163.532 125.271C163.63 125.262 163.728 125.242 163.825 125.213C163.923 125.184 164.025 125.135 164.133 125.066C164.172 125.047 164.23 125.013 164.309 124.964C164.387 124.905 164.45 124.876 164.499 124.876L165.026 124.788C165.114 124.749 165.197 124.705 165.275 124.656C165.363 124.598 165.446 124.544 165.524 124.495C165.573 124.466 165.627 124.441 165.686 124.422C165.754 124.393 165.812 124.368 165.861 124.349C166.164 124.212 166.423 124.031 166.638 123.807C166.862 123.582 167.092 123.357 167.326 123.133C167.512 122.957 167.688 122.757 167.854 122.532C168.029 122.298 168.171 122.068 168.278 121.844C168.347 121.678 168.425 121.512 168.513 121.346C168.601 121.17 168.698 121.014 168.806 120.877C168.884 120.789 168.996 120.716 169.143 120.657C169.289 120.599 169.421 120.56 169.538 120.54C169.616 120.521 169.689 120.55 169.758 120.628C169.826 120.696 169.86 120.765 169.86 120.833C169.87 121.019 169.865 121.175 169.846 121.302C169.826 121.429 169.792 121.546 169.743 121.653C169.694 121.751 169.631 121.854 169.553 121.961C169.475 122.059 169.377 122.181 169.26 122.327L168.923 122.767C168.913 122.786 168.913 122.801 168.923 122.811C168.942 122.82 168.957 122.835 168.967 122.854C168.977 122.874 168.977 122.908 168.967 122.957C168.957 122.996 168.942 123.045 168.923 123.104C168.903 123.162 168.884 123.216 168.864 123.265C168.845 123.313 168.83 123.343 168.82 123.353C168.811 123.353 168.801 123.367 168.791 123.396C168.781 123.416 168.767 123.436 168.747 123.455L168.688 123.543C168.562 123.729 168.454 123.914 168.366 124.1C168.288 124.275 168.259 124.476 168.278 124.7C168.278 124.788 168.254 124.866 168.205 124.935C168.166 125.003 168.117 125.076 168.059 125.154C168 125.223 167.941 125.306 167.883 125.403C167.824 125.501 167.785 125.633 167.766 125.799C167.756 125.838 167.751 125.872 167.751 125.901C167.751 125.921 167.746 125.936 167.736 125.945C167.736 125.955 167.736 125.965 167.736 125.975V126.004C167.688 126.199 167.634 126.37 167.575 126.517C167.517 126.653 167.448 126.819 167.37 127.015C167.38 127.015 167.409 126.99 167.458 126.941C167.517 126.893 167.58 126.844 167.648 126.795C167.727 126.746 167.805 126.702 167.883 126.663C167.971 126.624 168.054 126.619 168.132 126.648C168.19 126.668 168.259 126.678 168.337 126.678C168.415 126.668 168.488 126.653 168.557 126.634C168.635 126.614 168.698 126.6 168.747 126.59C168.796 126.57 168.825 126.561 168.835 126.561C168.923 126.561 169.006 126.561 169.084 126.561C169.162 126.561 169.24 126.565 169.318 126.575C169.328 126.585 169.357 126.59 169.406 126.59C169.465 126.59 169.528 126.595 169.597 126.604C169.675 126.614 169.748 126.624 169.816 126.634C169.895 126.644 169.953 126.658 169.992 126.678ZM165.568 128.67C165.539 128.699 165.485 128.753 165.407 128.831C165.329 128.919 165.241 129.002 165.144 129.08C165.056 129.168 164.968 129.236 164.88 129.285C164.792 129.344 164.729 129.363 164.689 129.344L164.572 129.402C164.475 129.451 164.411 129.52 164.382 129.607C164.353 129.695 164.323 129.788 164.294 129.886C164.274 129.983 164.245 130.076 164.206 130.164C164.177 130.252 164.108 130.32 164.001 130.369C163.874 130.311 163.781 130.267 163.723 130.237C163.674 130.208 163.63 130.198 163.591 130.208C163.552 130.218 163.508 130.252 163.459 130.311C163.41 130.379 163.327 130.477 163.21 130.604C162.937 130.916 162.658 131.224 162.375 131.526C162.102 131.839 161.823 132.151 161.54 132.464C161.472 132.659 161.389 132.859 161.291 133.064C161.184 133.27 161.076 133.47 160.969 133.665C160.852 133.87 160.749 134.104 160.661 134.368C160.573 134.632 160.5 134.9 160.441 135.174C160.373 135.457 160.319 135.74 160.28 136.023C160.231 136.307 160.192 136.57 160.163 136.814C160.173 136.834 160.207 136.839 160.266 136.829C160.324 136.829 160.388 136.819 160.456 136.8C160.515 136.79 160.573 136.775 160.632 136.756C160.69 136.746 160.729 136.736 160.749 136.727C160.759 136.727 160.783 136.707 160.822 136.668C160.861 136.629 160.905 136.585 160.954 136.536C160.993 136.487 161.032 136.438 161.071 136.39C161.101 136.351 161.115 136.326 161.115 136.316C161.154 136.297 161.223 136.268 161.32 136.229C161.418 136.189 161.486 136.17 161.525 136.17C161.545 136.17 161.56 136.131 161.569 136.053C161.569 135.975 161.569 135.926 161.569 135.906V135.657C161.55 135.638 161.545 135.584 161.555 135.496C161.555 135.408 161.555 135.354 161.555 135.335C161.662 135.286 161.765 135.237 161.862 135.188C161.97 135.14 162.077 135.086 162.185 135.027C162.214 134.939 162.248 134.847 162.287 134.749C162.326 134.661 162.37 134.573 162.419 134.485C162.614 134.114 162.8 133.743 162.976 133.372C163.151 133.011 163.352 132.645 163.576 132.273C163.742 132 163.898 131.722 164.045 131.438C164.201 131.165 164.362 130.887 164.528 130.604C164.538 130.584 164.558 130.545 164.587 130.486C164.626 130.428 164.665 130.369 164.704 130.311C164.753 130.252 164.797 130.198 164.836 130.149C164.885 130.11 164.924 130.091 164.953 130.091C165.002 130.091 165.031 130.052 165.041 129.974C165.051 129.905 165.056 129.856 165.056 129.827C165.056 129.788 165.08 129.705 165.129 129.578C165.188 129.461 165.246 129.334 165.305 129.197C165.373 129.07 165.432 128.953 165.48 128.846C165.539 128.738 165.568 128.68 165.568 128.67Z" fill="black"/>
<rect x="35.5" y="33.5" width="144" height="51" rx="25.5" fill="#D9D9D9" fill-opacity="0.26" stroke="black" stroke-dasharray="2 2"/>
<circle cx="64.5" cy="58.5" r="17.5" fill="#FEB661"/>
</svg>
