<svg width="216" height="190" viewBox="0 0 216 190" fill="none" xmlns="http://www.w3.org/2000/svg">
<rect width="216" height="190" rx="20" fill="#5ABE6A"/>
<path d="M76.3374 123.748C76.3081 123.885 76.2446 123.992 76.147 124.07C76.0493 124.148 75.937 124.212 75.8101 124.261C75.6929 124.31 75.5659 124.358 75.4292 124.407C75.3022 124.446 75.1899 124.5 75.0923 124.568C74.9165 124.51 74.7554 124.505 74.6089 124.554C74.4624 124.593 74.3208 124.637 74.1841 124.686C74.0474 124.725 73.9058 124.749 73.7593 124.759C73.6128 124.759 73.4614 124.69 73.3052 124.554L73.2612 124.627C73.1733 124.783 73.0464 124.91 72.8804 125.008C72.7144 125.105 72.5581 125.193 72.4116 125.271C72.3042 125.33 72.187 125.408 72.0601 125.506C71.9331 125.604 71.811 125.711 71.6938 125.828C71.5864 125.945 71.4937 126.067 71.4155 126.194C71.3472 126.321 71.313 126.448 71.313 126.575V126.634C71.0298 126.771 70.7661 126.941 70.522 127.146C70.2876 127.361 70.0337 127.542 69.7603 127.688H69.7456V127.703C69.6675 127.791 69.5894 127.845 69.5112 127.864C69.4331 127.894 69.3501 127.908 69.2622 127.908C69.1841 127.908 69.1011 127.908 69.0132 127.908C68.9351 127.908 68.8521 127.928 68.7642 127.967C68.686 127.85 68.5933 127.767 68.4858 127.718C68.3882 127.679 68.2759 127.649 68.1489 127.63C68.0317 127.62 67.9097 127.615 67.7827 127.615C67.6655 127.615 67.5483 127.601 67.4312 127.571C66.9624 127.464 66.5767 127.278 66.2739 127.015C65.981 126.761 65.6929 126.448 65.4097 126.077C65.4683 125.706 65.4194 125.354 65.2632 125.022C65.1069 124.681 64.9263 124.368 64.7212 124.085C64.5552 124.222 64.4038 124.354 64.2671 124.48C64.1304 124.598 63.9985 124.715 63.8716 124.832C63.7446 124.949 63.6177 125.071 63.4907 125.198C63.3638 125.325 63.2271 125.462 63.0806 125.608L63.0513 125.638C63.1001 125.784 63.105 125.901 63.0659 125.989C63.0171 126.067 62.9487 126.141 62.8608 126.209C62.7632 126.268 62.6606 126.326 62.5532 126.385C62.4458 126.434 62.3579 126.502 62.2896 126.59L62.2163 126.473C62.0796 126.58 61.9771 126.707 61.9087 126.854C61.8306 127 61.7524 127.146 61.6743 127.293C61.5962 127.439 61.5034 127.566 61.396 127.674C61.2886 127.791 61.1421 127.864 60.9565 127.894C60.9175 127.835 60.8687 127.791 60.8101 127.762C60.7515 127.742 60.6929 127.728 60.6343 127.718C60.5757 127.708 60.522 127.698 60.4731 127.688C60.4146 127.679 60.3706 127.659 60.3413 127.63C60.3315 127.61 60.3267 127.586 60.3267 127.557C60.3169 127.527 60.3169 127.503 60.3267 127.483C60.3364 127.22 60.4097 126.971 60.5464 126.736C60.6831 126.502 60.8296 126.287 60.9858 126.092C61.1128 125.916 61.23 125.74 61.3374 125.564C61.4351 125.389 61.5181 125.198 61.5864 124.993C61.7915 124.847 61.9868 124.676 62.1724 124.48C62.3481 124.275 62.5337 124.08 62.729 123.895C62.9146 123.699 63.1147 123.533 63.3296 123.396C63.5444 123.25 63.7837 123.162 64.0474 123.133H64.106C64.1353 123.016 64.1987 122.913 64.2964 122.825C64.4038 122.737 64.5259 122.654 64.6626 122.576C64.7993 122.498 64.936 122.415 65.0728 122.327C65.2192 122.239 65.3413 122.137 65.439 122.02C65.5366 121.902 65.6001 121.766 65.6294 121.609C65.6587 121.453 65.6294 121.263 65.5415 121.038L65.5269 121.023V121.009C65.3511 120.745 65.2339 120.462 65.1753 120.159C65.1167 119.856 65.0972 119.549 65.1167 119.236C65.1362 118.924 65.1753 118.611 65.2339 118.299C65.2925 117.986 65.3511 117.684 65.4097 117.391C65.4292 117.254 65.4487 117.122 65.4683 116.995C65.4976 116.868 65.5269 116.736 65.5562 116.6C65.5757 116.512 65.5952 116.429 65.6147 116.351C65.6343 116.263 65.6489 116.175 65.6587 116.087C65.7954 116.019 65.8979 115.931 65.9663 115.823C66.0444 115.716 66.1079 115.599 66.1567 115.472C66.2056 115.345 66.2495 115.218 66.2886 115.091C66.3374 114.964 66.3911 114.852 66.4497 114.754C66.5083 114.646 66.5864 114.563 66.6841 114.505C66.7915 114.437 66.9331 114.402 67.1089 114.402V114.388C67.48 114.017 67.8901 113.729 68.3394 113.523C68.7886 113.318 69.2817 113.245 69.8188 113.304H69.8335C70.0581 113.304 70.2778 113.367 70.4927 113.494C70.7173 113.621 70.9272 113.733 71.1226 113.831L71.2397 113.758L71.3276 113.89L71.4741 113.802C71.6499 114.065 71.8403 114.329 72.0454 114.593C72.2603 114.856 72.4604 115.13 72.646 115.413C72.8413 115.687 73.0024 115.975 73.1294 116.277C73.2563 116.57 73.3198 116.883 73.3198 117.215C73.3198 117.244 73.3149 117.298 73.3052 117.376C73.2954 117.444 73.2856 117.513 73.2759 117.581C73.2661 117.649 73.2563 117.713 73.2466 117.771C73.2368 117.83 73.2319 117.859 73.2319 117.859L73.4956 118.255L73.5103 118.24C73.4907 118.357 73.4761 118.484 73.4663 118.621C73.4663 118.748 73.4663 118.88 73.4663 119.017C73.4663 119.153 73.4565 119.285 73.437 119.412C73.4272 119.539 73.4028 119.646 73.3638 119.734H73.3491L73.3198 119.91C73.3101 119.959 73.3052 120.003 73.3052 120.042C73.3052 120.071 73.3052 120.096 73.3052 120.115C73.3052 120.281 73.3198 120.433 73.3491 120.569C73.3784 120.706 73.3979 120.838 73.4077 120.965C73.4175 121.092 73.4077 121.224 73.3784 121.36C73.3589 121.487 73.2905 121.624 73.1733 121.771C73.2515 121.829 73.2808 121.888 73.2612 121.946C73.2417 122.005 73.2124 122.068 73.1733 122.137C73.1343 122.205 73.1001 122.283 73.0708 122.371C73.0513 122.449 73.0708 122.537 73.1294 122.635C73.0513 122.703 73.0024 122.786 72.9829 122.884C72.9731 122.972 72.9731 123.069 72.9829 123.177C72.9927 123.284 73.0073 123.396 73.0269 123.514C73.0464 123.621 73.0562 123.724 73.0562 123.821C73.3296 123.89 73.603 123.929 73.8765 123.938C74.1499 123.938 74.4233 123.929 74.6968 123.909C74.9702 123.88 75.2437 123.851 75.5171 123.821C75.7905 123.782 76.064 123.758 76.3374 123.748ZM72.646 120.174C72.5288 119.979 72.4604 119.798 72.4409 119.632C72.4214 119.456 72.4165 119.29 72.4263 119.134C72.436 118.978 72.4409 118.821 72.4409 118.665C72.4507 118.509 72.4165 118.343 72.3384 118.167C72.397 118.138 72.4507 118.108 72.4995 118.079C72.5581 118.04 72.6118 118.001 72.6606 117.962C72.5142 117.806 72.4116 117.664 72.353 117.537C72.3042 117.41 72.2651 117.244 72.2358 117.039C72.2163 116.961 72.1968 116.883 72.1772 116.805C72.1577 116.727 72.1382 116.644 72.1187 116.556C72.1089 116.487 72.0991 116.424 72.0894 116.365C72.0796 116.307 72.0649 116.248 72.0454 116.189C71.938 115.887 71.772 115.638 71.5474 115.442C71.3325 115.237 71.0981 115.052 70.8442 114.886C70.688 114.769 70.5366 114.661 70.3901 114.563C70.2437 114.456 70.1167 114.319 70.0093 114.153C69.9995 114.173 69.9507 114.212 69.8628 114.271C69.7749 114.329 69.6772 114.393 69.5698 114.461C69.4722 114.529 69.3794 114.593 69.2915 114.651C69.2036 114.71 69.145 114.744 69.1157 114.754C69.0083 114.705 68.9058 114.69 68.8081 114.71C68.7104 114.72 68.6177 114.739 68.5298 114.769C68.4419 114.798 68.3638 114.827 68.2954 114.856C68.2271 114.876 68.1782 114.871 68.1489 114.842H68.1343L68.1196 114.827C68.0024 114.788 67.9194 114.788 67.8706 114.827C67.8218 114.866 67.7827 114.92 67.7534 114.988C67.7339 115.057 67.7095 115.12 67.6802 115.179C67.6606 115.228 67.6216 115.247 67.563 115.237C67.563 115.247 67.5581 115.257 67.5483 115.267C67.5483 115.276 67.5483 115.286 67.5483 115.296C67.519 115.501 67.4849 115.677 67.4458 115.823C67.4165 115.96 67.3774 116.092 67.3286 116.219C67.2896 116.336 67.231 116.458 67.1528 116.585C67.0845 116.702 66.9966 116.849 66.8892 117.024C66.7915 117.19 66.6987 117.342 66.6108 117.479C66.5327 117.615 66.4644 117.757 66.4058 117.903C66.3472 118.04 66.2983 118.187 66.2593 118.343C66.23 118.499 66.2153 118.675 66.2153 118.87C66.3521 119.104 66.4155 119.324 66.4058 119.529C66.396 119.734 66.3618 119.964 66.3032 120.218V120.232L66.4204 120.306C66.6157 120.12 66.7866 119.915 66.9331 119.69C67.0894 119.466 67.2358 119.241 67.3726 119.017C67.5093 118.792 67.6509 118.577 67.7974 118.372C67.9438 118.157 68.105 117.972 68.2808 117.815C68.5444 118.001 68.7007 118.191 68.7495 118.387C68.7983 118.582 68.7788 118.782 68.6909 118.987C68.603 119.192 68.4712 119.407 68.2954 119.632C68.1294 119.847 67.9585 120.071 67.7827 120.306C67.6069 120.54 67.4507 120.784 67.314 121.038C67.187 121.292 67.1235 121.556 67.1235 121.829L67.1382 121.844C67.5093 122.283 67.9194 122.601 68.3687 122.796C68.8179 122.991 69.311 123.157 69.8481 123.294L70.1411 123.104C70.2681 123.094 70.3853 123.143 70.4927 123.25C70.6001 123.348 70.7026 123.431 70.8003 123.499C70.8687 123.45 70.9614 123.411 71.0786 123.382C71.1958 123.353 71.313 123.328 71.4302 123.309C71.5571 123.289 71.6792 123.27 71.7964 123.25C71.9233 123.23 72.0308 123.211 72.1187 123.191L72.0015 123.03L72.1626 122.898C72.1333 122.879 72.0991 122.854 72.0601 122.825C72.0308 122.796 72.0161 122.762 72.0161 122.723C72.0454 122.664 72.0796 122.615 72.1187 122.576C72.1577 122.537 72.187 122.498 72.2065 122.459C72.2261 122.42 72.2358 122.381 72.2358 122.342C72.2358 122.293 72.2163 122.229 72.1772 122.151C72.3237 122.005 72.3921 121.849 72.3823 121.683C72.3823 121.507 72.3677 121.336 72.3384 121.17C72.3188 120.994 72.3188 120.828 72.3384 120.672C72.3677 120.506 72.4849 120.364 72.6899 120.247L72.646 120.174ZM71.1812 125.125C71.0933 124.861 70.9712 124.69 70.8149 124.612C70.6587 124.524 70.4829 124.48 70.2876 124.48C70.0923 124.48 69.8872 124.495 69.6724 124.524C69.4673 124.554 69.2769 124.544 69.1011 124.495C69.0327 124.397 68.9546 124.339 68.8667 124.319C68.7788 124.3 68.6909 124.295 68.603 124.305C68.5151 124.314 68.4321 124.324 68.354 124.334C68.2759 124.344 68.2124 124.334 68.1636 124.305C68.1147 124.266 68.0903 124.227 68.0903 124.188C68.1001 124.139 68.0952 124.095 68.0757 124.056L68.0464 124.026C67.9976 124.007 67.9487 123.997 67.8999 123.997C67.8511 123.997 67.8022 123.997 67.7534 123.997C67.7144 123.987 67.6802 123.968 67.6509 123.938C67.6313 123.909 67.6167 123.86 67.6069 123.792C67.4019 123.86 67.2212 123.875 67.0649 123.836C66.9185 123.787 66.7866 123.709 66.6694 123.602C66.5522 123.484 66.4448 123.353 66.3472 123.206C66.2495 123.05 66.1567 122.903 66.0688 122.767L66.0542 122.752L66.0396 122.767L65.9077 122.796V122.825C65.937 123.06 65.9712 123.323 66.0103 123.616C66.0591 123.909 66.1177 124.207 66.186 124.51C66.2544 124.812 66.3374 125.101 66.4351 125.374C66.5327 125.647 66.6499 125.882 66.7866 126.077C66.7866 126.077 66.7964 126.087 66.8159 126.106C66.8843 126.087 66.9624 126.111 67.0503 126.18C67.1479 126.248 67.2505 126.316 67.3579 126.385C67.4653 126.453 67.5776 126.497 67.6948 126.517C67.8218 126.536 67.9487 126.487 68.0757 126.37C68.1733 126.468 68.2515 126.551 68.3101 126.619C68.3687 126.688 68.481 126.722 68.647 126.722H68.6616C68.9253 126.614 69.1646 126.512 69.3794 126.414C69.5942 126.307 69.7993 126.194 69.9946 126.077C70.1899 125.96 70.3804 125.828 70.5659 125.682C70.7515 125.535 70.9468 125.359 71.1519 125.154L71.1812 125.125ZM85.7563 125.462C85.6196 125.696 85.5122 125.887 85.4341 126.033C85.3657 126.17 85.2925 126.287 85.2144 126.385C85.146 126.473 85.063 126.556 84.9653 126.634C84.8774 126.702 84.7505 126.79 84.5845 126.897C84.4771 126.995 84.3696 127.078 84.2622 127.146C84.1743 127.215 84.0864 127.273 83.9985 127.322C83.9204 127.371 83.8569 127.396 83.8081 127.396C83.7886 127.396 83.769 127.391 83.7495 127.381C83.73 127.381 83.7104 127.381 83.6909 127.381C83.6323 127.381 83.5737 127.381 83.5151 127.381C83.4663 127.391 83.4224 127.356 83.3833 127.278C83.354 127.308 83.3296 127.342 83.3101 127.381C83.2905 127.42 83.271 127.454 83.2515 127.483C83.2319 127.522 83.2026 127.552 83.1636 127.571C83.1343 127.591 83.0903 127.591 83.0317 127.571L82.9585 127.483L82.7388 127.674C82.4653 127.537 82.2017 127.42 81.9478 127.322C81.7036 127.234 81.4839 127.127 81.2886 127C81.0933 126.873 80.9272 126.712 80.7905 126.517C80.6538 126.312 80.5562 126.033 80.4976 125.682C80.4487 125.623 80.395 125.574 80.3364 125.535C80.2778 125.486 80.2095 125.472 80.1313 125.491C80.0337 125.657 79.9165 125.799 79.7798 125.916C79.6431 126.033 79.5063 126.16 79.3696 126.297C79.3208 126.346 79.2817 126.399 79.2524 126.458C79.2231 126.517 79.1841 126.57 79.1353 126.619C79.0571 126.707 78.9644 126.771 78.8569 126.81C78.7495 126.839 78.6421 126.868 78.5347 126.897C78.4272 126.927 78.3247 126.976 78.2271 127.044C78.1392 127.112 78.0757 127.229 78.0366 127.396C77.9194 127.327 77.8022 127.308 77.6851 127.337C77.5972 127.356 77.5044 127.376 77.4067 127.396C77.3091 127.425 77.2114 127.439 77.1138 127.439C77.0259 127.449 76.938 127.439 76.8501 127.41C76.7622 127.381 76.6841 127.317 76.6157 127.22C76.479 127.278 76.3521 127.273 76.2349 127.205C76.1177 127.146 76.0054 127.063 75.8979 126.956C75.8003 126.839 75.7026 126.717 75.605 126.59C75.5073 126.463 75.4146 126.37 75.3267 126.312C75.2681 126.155 75.2729 126.023 75.3413 125.916C75.3999 125.799 75.4683 125.691 75.5464 125.594C75.6147 125.486 75.6636 125.384 75.6929 125.286C75.7222 125.179 75.6782 125.052 75.561 124.905C75.6587 124.759 75.7466 124.607 75.8247 124.451C75.9028 124.285 75.981 124.124 76.0591 123.968C76.147 123.802 76.2349 123.646 76.3228 123.499C76.4204 123.343 76.5376 123.211 76.6743 123.104C76.6157 123.035 76.5864 122.972 76.5864 122.913C76.5864 122.845 76.6011 122.781 76.6304 122.723C76.6597 122.654 76.6938 122.591 76.7329 122.532C76.772 122.464 76.8013 122.4 76.8208 122.342L77.2456 122.137L77.1431 121.785C77.2505 121.805 77.3286 121.8 77.3774 121.771C77.436 121.741 77.4751 121.697 77.4946 121.639C77.5239 121.58 77.5435 121.517 77.5532 121.448C77.5728 121.37 77.5972 121.302 77.6265 121.243C77.6753 121.155 77.7485 121.092 77.8462 121.053C78.0513 120.896 78.2515 120.73 78.4468 120.555C78.6519 120.379 78.8521 120.208 79.0474 120.042C79.2524 119.876 79.4624 119.72 79.6772 119.573C79.8921 119.417 80.1265 119.285 80.3804 119.178C80.5562 119.207 80.6929 119.261 80.7905 119.339C80.8979 119.417 80.9761 119.51 81.0249 119.617C81.0835 119.725 81.1274 119.847 81.1567 119.983C81.186 120.11 81.2153 120.237 81.2446 120.364C81.2935 120.53 81.3521 120.672 81.4204 120.789C81.4888 120.906 81.606 121.004 81.772 121.082C81.6353 121.316 81.5815 121.551 81.6108 121.785C81.6401 122.01 81.6694 122.249 81.6987 122.503C81.728 122.737 81.7231 122.967 81.6841 123.191C81.6548 123.416 81.5132 123.616 81.2593 123.792C81.2397 123.86 81.2349 123.934 81.2446 124.012C81.2544 124.09 81.2593 124.168 81.2593 124.246C81.2593 124.324 81.2446 124.397 81.2153 124.466C81.186 124.534 81.1323 124.588 81.0542 124.627C81.1421 124.734 81.186 124.842 81.186 124.949C81.1958 125.057 81.2007 125.159 81.2007 125.257C81.2104 125.354 81.2349 125.442 81.2739 125.521C81.3228 125.599 81.4302 125.657 81.5962 125.696C81.6255 125.823 81.6499 125.921 81.6694 125.989C81.6987 126.048 81.728 126.097 81.7573 126.136C81.7964 126.175 81.8452 126.214 81.9038 126.253C81.9624 126.282 82.0405 126.331 82.1382 126.399C82.2163 126.419 82.3042 126.419 82.4019 126.399C82.4995 126.38 82.5776 126.409 82.6362 126.487C82.6851 126.438 82.7437 126.414 82.812 126.414C82.8804 126.404 82.9438 126.404 83.0024 126.414L83.1929 126.736C83.3003 126.658 83.4224 126.59 83.5591 126.531C83.6958 126.473 83.8276 126.424 83.9546 126.385C84.1011 126.346 84.2476 126.312 84.394 126.282L85.7563 125.462ZM80.1313 120.452C80.0435 120.53 79.936 120.608 79.8091 120.687C79.6821 120.765 79.5552 120.848 79.4282 120.936C79.311 121.023 79.2085 121.121 79.1206 121.229C79.0327 121.326 78.979 121.443 78.9595 121.58C78.7349 121.619 78.5786 121.712 78.4907 121.858C78.4028 122.005 78.3296 122.166 78.271 122.342C78.2124 122.518 78.1489 122.693 78.0806 122.869C78.0122 123.035 77.8901 123.167 77.7144 123.265C77.6558 123.304 77.6021 123.323 77.5532 123.323C77.563 123.323 77.5337 123.343 77.4653 123.382C77.3579 123.46 77.2651 123.558 77.187 123.675C77.1089 123.792 77.0405 123.919 76.9819 124.056C76.9331 124.192 76.8843 124.334 76.8354 124.48C76.7964 124.617 76.7573 124.744 76.7183 124.861C76.5815 124.881 76.479 124.91 76.4106 124.949C76.3423 124.988 76.2983 125.032 76.2788 125.081C76.269 125.12 76.2739 125.169 76.2935 125.228C76.313 125.286 76.3423 125.35 76.3813 125.418C76.4204 125.477 76.4595 125.545 76.4985 125.623C76.5474 125.701 76.5864 125.779 76.6157 125.857C76.645 125.936 76.6597 126.014 76.6597 126.092C76.6694 126.17 76.6499 126.243 76.6011 126.312C76.7378 126.419 76.8696 126.443 76.9966 126.385C77.1235 126.316 77.2407 126.243 77.3481 126.165C77.3872 126.136 77.4263 126.106 77.4653 126.077C77.5142 126.038 77.563 126.009 77.6118 125.989C77.8364 126.038 78.0415 126.023 78.2271 125.945C78.4126 125.867 78.5835 125.76 78.7397 125.623C78.896 125.486 79.0474 125.34 79.1938 125.184C79.3403 125.027 79.4868 124.891 79.6333 124.773L79.5161 124.656C79.6919 124.607 79.814 124.544 79.8823 124.466C79.9604 124.378 80.0093 124.28 80.0288 124.173C80.0483 124.065 80.0483 123.953 80.0288 123.836C80.0093 123.709 79.9946 123.577 79.9849 123.44C79.9751 123.362 79.9702 123.289 79.9702 123.221C79.98 123.143 79.9995 123.064 80.0288 122.986C79.9507 122.762 79.936 122.547 79.9849 122.342C80.0435 122.137 80.1167 121.941 80.2046 121.756C80.3022 121.561 80.395 121.365 80.4829 121.17C80.5708 120.975 80.6147 120.77 80.6147 120.555L80.1313 120.452ZM95.7319 124.1C95.5073 124.207 95.356 124.339 95.2778 124.495C95.1997 124.651 95.1362 124.812 95.0874 124.979C95.0483 125.145 94.9946 125.306 94.9263 125.462C94.8677 125.608 94.7358 125.73 94.5308 125.828C94.4819 126.004 94.3843 126.126 94.2378 126.194C94.1011 126.263 93.9546 126.326 93.7983 126.385C93.6421 126.434 93.5005 126.502 93.3735 126.59C93.2563 126.678 93.1978 126.829 93.1978 127.044C93.0024 127.151 92.7876 127.249 92.5532 127.337C92.3286 127.425 92.0894 127.488 91.8354 127.527C91.5913 127.576 91.3472 127.596 91.103 127.586C90.8589 127.576 90.6294 127.527 90.4146 127.439C90.2681 127.371 90.1265 127.283 89.9897 127.176C89.9409 127.137 89.8921 127.103 89.8433 127.073C89.8042 127.054 89.7603 127.02 89.7114 126.971C89.5942 126.854 89.4966 126.717 89.4185 126.561C89.3403 126.404 89.2769 126.238 89.228 126.062C89.1792 125.887 89.1401 125.711 89.1108 125.535C89.0815 125.359 89.0571 125.193 89.0376 125.037L89.5796 123.572C89.2964 123.348 89.0669 123.089 88.8911 122.796C88.7153 122.493 88.5005 122.215 88.2466 121.961C88.1978 122.029 88.1343 122.088 88.0562 122.137C87.978 122.186 87.9487 122.264 87.9683 122.371L88.1147 122.503C87.7925 122.854 87.4653 123.255 87.1333 123.704C86.811 124.144 86.5571 124.588 86.3716 125.037C86.1567 125.027 86.0054 125.081 85.9175 125.198C85.8296 125.306 85.7563 125.433 85.6978 125.579C85.6392 125.716 85.5659 125.843 85.478 125.96C85.3901 126.077 85.2437 126.126 85.0386 126.106C84.9897 126.214 84.9409 126.331 84.8921 126.458C84.8433 126.575 84.7847 126.688 84.7163 126.795C84.6479 126.902 84.5649 126.99 84.4673 127.059C84.3696 127.137 84.2476 127.176 84.1011 127.176C84.0229 127.098 83.979 127.015 83.9692 126.927C83.9595 126.839 83.9692 126.751 83.9985 126.663C84.0278 126.565 84.0669 126.473 84.1157 126.385C84.1646 126.287 84.1987 126.194 84.2183 126.106C84.2964 125.823 84.438 125.569 84.6431 125.345C84.8481 125.11 85.0532 124.881 85.2583 124.656C85.4634 124.422 85.6392 124.178 85.7856 123.924C85.9321 123.67 85.9907 123.372 85.9614 123.03C86.0884 123.021 86.2153 122.996 86.3423 122.957C86.479 122.908 86.6011 122.85 86.7085 122.781C86.8257 122.703 86.9136 122.61 86.9722 122.503C87.0405 122.386 87.0649 122.249 87.0454 122.093C86.9673 122.054 86.9233 122 86.9136 121.932C86.9038 121.854 86.9038 121.775 86.9136 121.697C87.1284 121.629 87.2993 121.512 87.4263 121.346C87.563 121.17 87.6851 120.984 87.7925 120.789C87.8999 120.594 88.0024 120.398 88.1001 120.203C88.2075 119.998 88.3442 119.822 88.5103 119.676C88.647 119.754 88.7837 119.822 88.9204 119.881C89.0571 119.93 89.189 119.998 89.3159 120.086C89.228 120.203 89.1743 120.315 89.1548 120.423C89.1353 120.53 89.1255 120.643 89.1255 120.76C89.1255 120.867 89.1255 120.975 89.1255 121.082C89.1255 121.189 89.0962 121.302 89.0376 121.419C89.1938 121.556 89.3257 121.717 89.4331 121.902C89.5405 122.088 89.6772 122.244 89.8433 122.371C89.9604 122.283 90.0923 122.239 90.2388 122.239C90.3853 122.229 90.5317 122.229 90.6782 122.239C90.8345 122.239 90.981 122.229 91.1177 122.21C91.2544 122.181 91.3667 122.098 91.4546 121.961C91.4937 122 91.5522 122.02 91.6304 122.02C91.7085 122.02 91.7866 122.02 91.8647 122.02C91.9429 122.02 92.0112 122.034 92.0698 122.063C92.1284 122.083 92.1626 122.127 92.1724 122.195C92.1821 122.273 92.1772 122.327 92.1577 122.356C92.1479 122.386 92.1333 122.435 92.1138 122.503C92.0942 122.581 92.0894 122.62 92.0991 122.62C92.1089 122.62 92.0991 122.654 92.0698 122.723C92.021 122.85 91.938 122.957 91.8208 123.045C91.7134 123.133 91.6011 123.221 91.4839 123.309C91.3765 123.387 91.2739 123.479 91.1763 123.587C91.0884 123.685 91.0444 123.812 91.0444 123.968C90.8296 124.046 90.6782 124.163 90.5903 124.319C90.5024 124.466 90.4438 124.637 90.4146 124.832C90.3853 125.018 90.3657 125.213 90.356 125.418C90.3462 125.613 90.312 125.794 90.2534 125.96L90.3853 126.106L90.5024 125.96C90.6392 126.155 90.8003 126.277 90.9858 126.326C91.1812 126.375 91.3813 126.39 91.5864 126.37C91.6841 126.224 91.7964 126.106 91.9233 126.019C92.0601 125.931 92.2017 125.857 92.3481 125.799C92.5044 125.74 92.6606 125.687 92.8169 125.638C92.9829 125.589 93.1392 125.53 93.2856 125.462C93.4028 125.403 93.5005 125.34 93.5786 125.271C93.6665 125.203 93.7593 125.125 93.8569 125.037C94.1499 124.764 94.438 124.495 94.7212 124.231C95.0142 123.968 95.3071 123.699 95.6001 123.426C95.6587 123.426 95.6978 123.455 95.7173 123.514C95.7368 123.572 95.7466 123.641 95.7466 123.719C95.7466 123.787 95.7417 123.86 95.7319 123.938C95.7319 124.007 95.7319 124.061 95.7319 124.1ZM105.81 123.016C105.791 123.279 105.717 123.514 105.59 123.719C105.473 123.924 105.327 124.114 105.151 124.29C104.975 124.456 104.785 124.617 104.58 124.773C104.375 124.92 104.189 125.076 104.023 125.242C104.052 125.447 104.023 125.569 103.935 125.608C103.847 125.647 103.74 125.672 103.613 125.682C103.496 125.682 103.374 125.696 103.247 125.726C103.129 125.745 103.051 125.843 103.012 126.019C102.875 126.019 102.763 126.062 102.675 126.15C102.587 126.238 102.5 126.331 102.412 126.429C102.324 126.517 102.221 126.595 102.104 126.663C101.997 126.722 101.855 126.736 101.679 126.707C101.63 126.805 101.567 126.868 101.489 126.897C101.411 126.927 101.328 126.946 101.24 126.956C101.152 126.966 101.064 126.98 100.976 127C100.898 127.02 100.83 127.068 100.771 127.146L100.551 126.824C100.131 127.01 99.7212 127.088 99.3208 127.059C98.9302 127.029 98.5151 126.985 98.0757 126.927C98.0171 126.819 97.9487 126.722 97.8706 126.634C97.8022 126.546 97.729 126.458 97.6509 126.37C97.5825 126.282 97.5142 126.194 97.4458 126.106C97.3872 126.019 97.3384 125.916 97.2993 125.799L97.519 125.579L97.2993 125.359C97.2993 125.281 97.3042 125.193 97.314 125.096C97.3237 124.998 97.3237 124.905 97.314 124.817C97.314 124.72 97.2944 124.632 97.2554 124.554C97.2261 124.466 97.1626 124.397 97.0649 124.349C96.8403 124.563 96.645 124.803 96.479 125.066C96.3228 125.32 96.1665 125.584 96.0103 125.857C95.8638 126.131 95.7075 126.399 95.5415 126.663C95.3755 126.927 95.1753 127.166 94.9409 127.381C94.9897 127.527 94.9751 127.625 94.897 127.674C94.8188 127.723 94.7212 127.771 94.604 127.82C94.4185 127.635 94.311 127.439 94.2817 127.234C94.2427 127.039 94.2476 126.834 94.2964 126.619C94.3452 126.404 94.4185 126.194 94.5161 125.989C94.604 125.774 94.687 125.569 94.7651 125.374C94.814 125.257 94.853 125.145 94.8823 125.037C94.9019 124.93 94.9214 124.812 94.9409 124.686C94.9604 124.607 94.98 124.534 94.9995 124.466C95.0288 124.388 95.0532 124.31 95.0728 124.231C95.1118 124.065 95.146 123.909 95.1753 123.763C95.2144 123.606 95.2437 123.445 95.2632 123.279C95.3608 122.703 95.4536 122.127 95.5415 121.551C95.6392 120.965 95.8003 120.403 96.0249 119.866C96.064 119.349 96.1909 118.875 96.4058 118.445C96.6206 118.016 96.8696 117.591 97.1528 117.171C97.1138 117.063 97.1187 116.946 97.1675 116.819C97.2261 116.683 97.2993 116.551 97.3872 116.424C97.4849 116.287 97.5825 116.16 97.6802 116.043C97.7876 115.916 97.8706 115.809 97.9292 115.721C97.812 115.564 97.7925 115.433 97.8706 115.325C97.9585 115.218 98.0708 115.11 98.2075 115.003C98.3442 114.896 98.4663 114.783 98.5737 114.666C98.6909 114.549 98.7202 114.407 98.6616 114.241C98.7202 114.114 98.8179 114.017 98.9546 113.948C99.0913 113.88 99.2329 113.816 99.3794 113.758C99.5259 113.699 99.6577 113.636 99.7749 113.567C99.8921 113.489 99.9604 113.382 99.98 113.245C100.234 113.235 100.449 113.279 100.625 113.377C100.8 113.465 100.961 113.606 101.108 113.802C101.098 113.87 101.098 113.953 101.108 114.051C101.118 114.139 101.123 114.231 101.123 114.329C101.123 114.417 101.113 114.505 101.093 114.593C101.083 114.671 101.049 114.739 100.991 114.798C101.069 114.856 101.098 114.935 101.079 115.032C101.069 115.12 101.04 115.213 100.991 115.311C100.952 115.408 100.908 115.506 100.859 115.604C100.81 115.701 100.786 115.789 100.786 115.867C100.776 116.141 100.703 116.419 100.566 116.702C100.439 116.976 100.283 117.21 100.097 117.405C99.98 117.894 99.8286 118.367 99.6431 118.826C99.4575 119.275 99.1987 119.695 98.8667 120.086C98.9058 120.174 98.896 120.252 98.8374 120.32C98.7886 120.379 98.73 120.442 98.6616 120.511C98.603 120.569 98.5591 120.628 98.5298 120.687C98.5103 120.745 98.5493 120.809 98.647 120.877C98.9302 120.438 99.2866 120.101 99.7163 119.866C100.156 119.632 100.62 119.446 101.108 119.31C101.176 119.378 101.245 119.427 101.313 119.456C101.391 119.476 101.469 119.5 101.547 119.529C101.606 119.412 101.674 119.354 101.752 119.354C101.831 119.354 101.909 119.383 101.987 119.441C102.065 119.49 102.143 119.549 102.221 119.617C102.309 119.686 102.387 119.729 102.456 119.749C102.602 119.856 102.695 119.983 102.734 120.13C102.773 120.276 102.792 120.433 102.792 120.599C102.792 120.755 102.792 120.916 102.792 121.082C102.792 121.248 102.827 121.399 102.895 121.536C102.719 121.888 102.495 122.215 102.221 122.518C101.958 122.82 101.699 123.128 101.445 123.44L101.328 123.338C101.054 123.602 100.737 123.841 100.375 124.056C100.024 124.261 99.6724 124.432 99.3208 124.568C99.1841 124.5 99.0571 124.441 98.9399 124.393C98.8228 124.334 98.6812 124.319 98.5151 124.349C98.2905 124.515 98.1538 124.734 98.105 125.008C98.0562 125.281 98.0854 125.545 98.1929 125.799C98.2612 125.965 98.3442 126.067 98.4419 126.106C98.5396 126.146 98.6421 126.165 98.7495 126.165C98.8667 126.155 98.979 126.15 99.0864 126.15C99.2036 126.141 99.3159 126.175 99.4233 126.253L99.5405 126.15C99.6089 126.238 99.6724 126.277 99.731 126.268C99.7993 126.258 99.8677 126.238 99.936 126.209C100.004 126.17 100.068 126.146 100.126 126.136C100.195 126.116 100.258 126.155 100.317 126.253C100.415 126.126 100.537 126.058 100.683 126.048C100.839 126.038 100.991 126.038 101.137 126.048C101.293 126.048 101.44 126.033 101.577 126.004C101.713 125.975 101.821 125.872 101.899 125.696C102.045 125.726 102.158 125.711 102.236 125.652C102.324 125.594 102.402 125.53 102.47 125.462C102.548 125.384 102.622 125.311 102.69 125.242C102.768 125.174 102.875 125.14 103.012 125.14C103.168 125.032 103.315 124.915 103.452 124.788C103.588 124.651 103.72 124.52 103.847 124.393C103.984 124.256 104.116 124.124 104.243 123.997C104.379 123.87 104.531 123.763 104.697 123.675C104.794 123.665 104.882 123.616 104.96 123.528C105.039 123.44 105.117 123.353 105.195 123.265C105.283 123.177 105.375 123.104 105.473 123.045C105.571 122.986 105.683 122.977 105.81 123.016ZM99.2329 114.915C99.1841 114.974 99.1206 115.057 99.0425 115.164C98.9741 115.271 98.9106 115.389 98.8521 115.516C98.7935 115.633 98.7446 115.755 98.7056 115.882C98.6763 115.999 98.6763 116.097 98.7056 116.175C98.6372 116.224 98.5542 116.307 98.4565 116.424C98.3687 116.531 98.2856 116.653 98.2075 116.79C98.1294 116.917 98.061 117.049 98.0024 117.186C97.9536 117.312 97.939 117.42 97.9585 117.508C97.8022 117.576 97.7144 117.674 97.6948 117.801C97.6753 117.918 97.6606 118.04 97.6509 118.167C97.6509 118.284 97.6265 118.396 97.5776 118.504C97.5386 118.602 97.4165 118.665 97.2114 118.694L97.3872 118.973C97.397 119.051 97.397 119.109 97.3872 119.148C97.3774 119.178 97.3579 119.207 97.3286 119.236C97.2993 119.256 97.2651 119.28 97.2261 119.31C97.1968 119.329 97.1675 119.363 97.1382 119.412C97.2358 119.49 97.2603 119.559 97.2114 119.617C97.1724 119.676 97.1138 119.739 97.0356 119.808C96.9673 119.876 96.9087 119.959 96.8599 120.057C96.811 120.154 96.8306 120.276 96.9185 120.423C96.7524 120.569 96.6304 120.774 96.5522 121.038C96.4839 121.292 96.4302 121.57 96.3911 121.873C96.3521 122.166 96.3179 122.464 96.2886 122.767C96.2593 123.069 96.2104 123.343 96.1421 123.587C96.5132 122.835 96.8989 122.103 97.2993 121.39C97.6997 120.677 98.0708 119.939 98.4126 119.178C98.3638 119.012 98.3784 118.87 98.4565 118.753C98.5347 118.626 98.6226 118.509 98.7202 118.401C98.8179 118.284 98.9009 118.177 98.9692 118.079C99.0376 117.972 99.0376 117.854 98.9692 117.728C99.0181 117.679 99.0669 117.63 99.1157 117.581C99.1743 117.522 99.2427 117.498 99.3208 117.508C99.3013 117.42 99.3062 117.312 99.3354 117.186C99.3745 117.049 99.4233 116.917 99.4819 116.79C99.5405 116.653 99.604 116.531 99.6724 116.424C99.7505 116.307 99.8286 116.224 99.9067 116.175C99.8774 116.048 99.9019 115.911 99.98 115.765C100.058 115.608 100.131 115.457 100.2 115.311C100.268 115.164 100.307 115.022 100.317 114.886C100.327 114.749 100.253 114.632 100.097 114.534L99.2329 114.915ZM101.679 120.76C101.621 120.682 101.562 120.608 101.503 120.54C101.445 120.462 101.386 120.384 101.328 120.306C101.22 120.179 101.137 120.14 101.079 120.188C101.02 120.228 100.957 120.291 100.888 120.379C100.83 120.457 100.756 120.53 100.668 120.599C100.581 120.657 100.463 120.638 100.317 120.54C100.092 120.726 99.853 120.916 99.5991 121.111C99.355 121.307 99.1157 121.512 98.8813 121.727C98.6567 121.941 98.4517 122.176 98.2661 122.43C98.0903 122.674 97.9585 122.947 97.8706 123.25C97.9683 123.406 98.0806 123.504 98.2075 123.543C98.3442 123.582 98.4761 123.602 98.603 123.602C98.73 123.592 98.8472 123.577 98.9546 123.558C99.062 123.538 99.145 123.543 99.2036 123.572C99.3208 123.475 99.4429 123.396 99.5698 123.338C99.7065 123.279 99.8433 123.226 99.98 123.177C100.126 123.118 100.263 123.06 100.39 123.001C100.527 122.942 100.654 122.869 100.771 122.781C101.093 122.547 101.333 122.249 101.489 121.888C101.655 121.526 101.718 121.15 101.679 120.76ZM125.878 124.451C125.791 124.529 125.668 124.632 125.512 124.759C125.366 124.876 125.268 124.983 125.219 125.081C125.161 125.179 125.112 125.267 125.073 125.345C125.043 125.423 125.004 125.491 124.956 125.55C124.917 125.599 124.858 125.638 124.78 125.667C124.711 125.696 124.614 125.711 124.487 125.711C124.487 125.74 124.433 125.804 124.326 125.901C124.228 125.989 124.121 126.087 124.003 126.194C123.886 126.292 123.779 126.39 123.681 126.487C123.583 126.575 123.535 126.634 123.535 126.663L123.403 126.59C123.383 126.58 123.325 126.585 123.227 126.604C123.139 126.614 123.032 126.644 122.905 126.692C122.788 126.731 122.67 126.79 122.553 126.868C122.436 126.946 122.343 127.049 122.275 127.176L122.216 127.161C122.07 127.122 121.918 127.112 121.762 127.132C121.616 127.161 121.469 127.176 121.323 127.176C121.01 127.195 120.781 127.146 120.634 127.029C120.488 126.922 120.332 126.712 120.166 126.399C120.126 126.331 120.092 126.258 120.063 126.18C120.034 126.102 120.009 126.023 119.99 125.945V125.887C120.126 125.809 120.2 125.706 120.209 125.579C120.219 125.442 120.214 125.301 120.195 125.154C120.175 125.008 120.161 124.866 120.151 124.729C120.151 124.593 120.205 124.48 120.312 124.393C120.253 124.236 120.258 124.09 120.327 123.953C120.405 123.807 120.478 123.67 120.546 123.543C120.615 123.416 120.649 123.294 120.649 123.177C120.649 123.06 120.542 122.938 120.327 122.811C120.102 122.898 119.887 123.011 119.682 123.147C119.487 123.274 119.287 123.411 119.082 123.558C118.886 123.694 118.686 123.831 118.481 123.968C118.286 124.104 118.076 124.217 117.851 124.305C117.646 124.529 117.431 124.725 117.207 124.891C116.982 125.047 116.762 125.213 116.547 125.389C116.342 125.564 116.152 125.765 115.976 125.989C115.81 126.204 115.683 126.473 115.595 126.795C115.546 126.736 115.498 126.697 115.449 126.678C115.4 126.658 115.336 126.639 115.258 126.619C115.151 126.59 115.073 126.561 115.024 126.531C114.975 126.492 114.912 126.438 114.833 126.37L114.848 126.341C114.936 126.087 115.039 125.828 115.156 125.564C115.273 125.301 115.332 125.037 115.332 124.773C115.332 124.676 115.322 124.588 115.302 124.51C115.283 124.422 115.273 124.329 115.273 124.231C115.273 124.056 115.302 123.895 115.361 123.748C115.419 123.602 115.483 123.465 115.551 123.338C115.629 123.211 115.698 123.089 115.756 122.972C115.825 122.845 115.859 122.713 115.859 122.576C115.859 122.469 115.834 122.361 115.786 122.254C115.737 122.146 115.673 122.054 115.595 121.976C115.449 121.966 115.312 121.985 115.185 122.034C115.058 122.073 114.931 122.122 114.804 122.181C114.677 122.239 114.545 122.293 114.409 122.342C114.272 122.381 114.125 122.396 113.969 122.386C113.764 122.591 113.554 122.796 113.339 123.001C113.125 123.196 112.91 123.392 112.695 123.587C112.246 123.987 111.806 124.402 111.376 124.832C110.957 125.262 110.62 125.75 110.366 126.297C110.317 126.404 110.273 126.517 110.234 126.634C110.205 126.741 110.166 126.849 110.117 126.956C110.117 126.976 110.107 126.995 110.087 127.015H110.014C109.907 127.015 109.833 127.044 109.794 127.103C109.765 127.161 109.741 127.225 109.721 127.293C109.711 127.371 109.697 127.444 109.677 127.513C109.658 127.581 109.614 127.625 109.545 127.645C109.467 127.664 109.394 127.649 109.326 127.601C109.248 127.552 109.184 127.503 109.135 127.454L109.121 127.439C109.023 127.283 108.969 127.122 108.959 126.956C108.95 126.79 108.969 126.629 109.018 126.473C109.057 126.307 109.121 126.146 109.208 125.989C109.287 125.833 109.365 125.687 109.443 125.55C109.56 125.345 109.667 125.135 109.765 124.92C109.873 124.695 109.926 124.461 109.926 124.217C109.926 124.109 109.912 124.017 109.882 123.938C109.863 123.851 109.843 123.763 109.824 123.675L110.146 123.455C110.097 123.387 110.068 123.328 110.058 123.279C110.058 123.221 110.058 123.167 110.058 123.118C110.068 123.069 110.073 123.025 110.073 122.986C110.083 122.938 110.078 122.889 110.058 122.84V122.796L110.175 122.664C110.156 122.342 110.146 122.039 110.146 121.756C110.146 121.473 110.087 121.175 109.97 120.862C110.107 120.735 110.239 120.706 110.366 120.774C110.493 120.833 110.62 120.901 110.747 120.979V120.994L110.761 121.009C110.839 121.126 110.908 121.268 110.966 121.434C111.025 121.6 111.069 121.775 111.098 121.961C111.137 122.137 111.167 122.312 111.186 122.488C111.206 122.664 111.215 122.82 111.215 122.957C111.215 122.996 111.21 123.035 111.201 123.074C111.201 123.104 111.201 123.138 111.201 123.177L111.113 123.265C111.162 123.313 111.215 123.362 111.274 123.411C111.333 123.46 111.396 123.479 111.464 123.47C111.523 123.294 111.616 123.182 111.743 123.133C111.87 123.074 111.997 123.03 112.124 123.001C112.26 122.972 112.377 122.933 112.475 122.884C112.583 122.825 112.636 122.708 112.636 122.532C112.636 122.493 112.631 122.464 112.622 122.444L112.651 122.415C112.924 122.142 113.203 121.897 113.486 121.683C113.779 121.458 114.082 121.292 114.394 121.185C114.716 121.077 115.048 121.033 115.39 121.053C115.742 121.072 116.118 121.18 116.518 121.375L116.547 121.39L116.708 121.99L116.606 122.093C116.704 122.229 116.738 122.391 116.708 122.576C116.689 122.752 116.65 122.928 116.591 123.104C116.533 123.279 116.479 123.445 116.43 123.602C116.381 123.748 116.386 123.855 116.445 123.924C116.494 123.992 116.582 124.021 116.708 124.012C116.845 124.002 116.953 123.992 117.031 123.982C117.109 123.875 117.216 123.782 117.353 123.704C117.5 123.626 117.641 123.553 117.778 123.484C117.924 123.416 118.051 123.348 118.159 123.279C118.266 123.201 118.325 123.118 118.334 123.03C118.491 123.06 118.618 123.055 118.715 123.016C118.813 122.967 118.891 122.898 118.95 122.811C119.008 122.723 119.062 122.63 119.111 122.532C119.16 122.425 119.213 122.327 119.272 122.239C119.34 122.142 119.423 122.068 119.521 122.02C119.619 121.971 119.75 121.956 119.917 121.976C120.141 121.751 120.405 121.59 120.708 121.492C121.02 121.385 121.333 121.326 121.645 121.316C121.87 121.307 122.026 121.375 122.114 121.521C122.202 121.658 122.246 121.824 122.246 122.02C122.246 122.273 122.187 122.518 122.07 122.752C121.953 122.986 121.821 123.226 121.674 123.47C121.528 123.714 121.396 123.968 121.279 124.231C121.162 124.495 121.103 124.788 121.103 125.11C121.103 125.14 121.103 125.193 121.103 125.271C121.103 125.34 121.108 125.413 121.118 125.491C121.127 125.56 121.137 125.628 121.147 125.696C121.167 125.755 121.191 125.794 121.22 125.813C121.259 125.833 121.293 125.848 121.323 125.857L121.25 125.916C121.474 125.945 121.674 125.989 121.85 126.048C122.026 126.097 122.216 126.077 122.421 125.989C122.48 125.97 122.539 125.955 122.597 125.945C122.666 125.936 122.729 125.921 122.788 125.901C122.875 125.892 122.929 125.857 122.949 125.799C122.968 125.73 123.002 125.667 123.051 125.608C123.11 125.54 123.198 125.481 123.315 125.433C123.442 125.374 123.647 125.345 123.93 125.345V125.11C124.125 125.052 124.292 124.979 124.428 124.891C124.565 124.793 124.697 124.705 124.824 124.627C124.96 124.549 125.107 124.49 125.263 124.451C125.429 124.412 125.634 124.412 125.878 124.451ZM134.99 122.4C135.029 122.547 135.014 122.674 134.946 122.781C134.877 122.879 134.785 122.967 134.667 123.045C134.56 123.123 134.438 123.196 134.301 123.265C134.174 123.323 134.067 123.392 133.979 123.47C133.54 123.567 133.139 123.641 132.778 123.689C132.426 123.729 132.036 123.782 131.606 123.851C131.479 123.87 131.357 123.87 131.24 123.851C131.132 123.821 131.02 123.812 130.903 123.821C130.834 123.821 130.771 123.821 130.712 123.821C130.654 123.812 130.595 123.812 130.537 123.821C130.312 123.841 130.166 123.919 130.097 124.056C130.029 124.183 129.97 124.334 129.921 124.51C129.882 124.676 129.829 124.837 129.76 124.993C129.702 125.14 129.57 125.242 129.365 125.301C129.345 125.35 129.35 125.394 129.379 125.433C129.418 125.472 129.448 125.506 129.467 125.535C129.301 125.584 129.189 125.672 129.13 125.799C129.082 125.926 129.038 126.053 128.999 126.18C128.959 126.307 128.901 126.414 128.823 126.502C128.754 126.59 128.618 126.619 128.413 126.59C128.11 126.912 127.753 127.171 127.343 127.366C126.933 127.571 126.508 127.703 126.069 127.762C125.991 127.723 125.913 127.674 125.834 127.615C125.766 127.557 125.693 127.503 125.615 127.454C125.546 127.405 125.468 127.366 125.38 127.337C125.302 127.317 125.209 127.317 125.102 127.337C125.092 127.132 125.053 126.941 124.985 126.766C124.907 126.59 124.809 126.424 124.692 126.268C124.672 126.092 124.697 125.931 124.765 125.784C124.824 125.628 124.887 125.477 124.956 125.33C125.024 125.184 125.083 125.037 125.131 124.891C125.17 124.734 125.161 124.559 125.102 124.363C125.2 124.305 125.263 124.236 125.292 124.158C125.332 124.08 125.356 124.002 125.366 123.924C125.385 123.836 125.41 123.758 125.439 123.689C125.468 123.611 125.537 123.548 125.644 123.499C125.566 123.265 125.576 123.094 125.673 122.986C125.781 122.869 125.908 122.767 126.054 122.679C126.201 122.591 126.337 122.493 126.464 122.386C126.591 122.278 126.64 122.117 126.611 121.902C126.669 121.844 126.738 121.795 126.816 121.756C126.894 121.717 126.967 121.683 127.036 121.653C127.114 121.614 127.187 121.575 127.255 121.536C127.324 121.497 127.387 121.443 127.446 121.375C127.377 121.326 127.343 121.277 127.343 121.229C127.353 121.18 127.368 121.131 127.387 121.082C127.407 121.023 127.426 120.965 127.446 120.906C127.475 120.848 127.475 120.789 127.446 120.73C127.709 120.77 127.939 120.735 128.134 120.628C128.339 120.511 128.53 120.394 128.706 120.276C128.891 120.159 129.077 120.076 129.262 120.027C129.448 119.979 129.663 120.037 129.907 120.203C129.926 120.271 129.956 120.374 129.995 120.511C130.043 120.638 130.087 120.77 130.126 120.906C130.175 121.043 130.219 121.175 130.258 121.302C130.297 121.429 130.322 121.521 130.332 121.58C130.332 121.629 130.332 121.707 130.332 121.814C130.332 121.922 130.332 122.039 130.332 122.166C130.332 122.283 130.332 122.396 130.332 122.503C130.332 122.61 130.332 122.693 130.332 122.752C130.615 122.918 130.898 123.021 131.181 123.06C131.464 123.089 131.748 123.021 132.031 122.854C132.138 122.952 132.241 122.981 132.338 122.942C132.436 122.894 132.529 122.84 132.617 122.781C132.714 122.723 132.812 122.693 132.91 122.693C133.007 122.684 133.105 122.762 133.203 122.928C133.339 122.801 133.481 122.723 133.627 122.693C133.774 122.654 133.925 122.635 134.082 122.635C134.238 122.625 134.389 122.61 134.536 122.591C134.692 122.571 134.843 122.508 134.99 122.4ZM129.365 122.649C129.365 122.503 129.389 122.347 129.438 122.181C129.487 122.015 129.526 121.854 129.555 121.697C129.584 121.531 129.58 121.375 129.541 121.229C129.511 121.082 129.418 120.95 129.262 120.833C129.155 120.892 129.067 120.975 128.999 121.082C128.93 121.18 128.862 121.282 128.793 121.39C128.725 121.487 128.642 121.57 128.544 121.639C128.457 121.707 128.339 121.727 128.193 121.697C128.144 121.814 128.144 121.912 128.193 121.99C128.242 122.059 128.3 122.127 128.369 122.195C128.437 122.254 128.5 122.317 128.559 122.386C128.627 122.454 128.652 122.542 128.632 122.649C128.671 122.679 128.725 122.708 128.793 122.737C128.862 122.757 128.93 122.771 128.999 122.781C129.077 122.781 129.15 122.771 129.218 122.752C129.287 122.732 129.335 122.698 129.365 122.649ZM129.262 123.821C129.067 123.821 128.896 123.777 128.75 123.689C128.613 123.592 128.471 123.484 128.325 123.367C128.188 123.25 128.042 123.143 127.885 123.045C127.739 122.938 127.558 122.874 127.343 122.854C127.255 122.972 127.153 123.084 127.036 123.191C126.918 123.289 126.816 123.396 126.728 123.514C126.64 123.631 126.577 123.758 126.538 123.895C126.508 124.031 126.533 124.188 126.611 124.363C126.386 124.471 126.235 124.627 126.157 124.832C126.079 125.027 126.025 125.242 125.996 125.477C125.976 125.711 125.957 125.945 125.937 126.18C125.917 126.414 125.854 126.624 125.747 126.81L126.069 126.59C126.108 126.609 126.137 126.639 126.157 126.678C126.186 126.717 126.191 126.761 126.171 126.81C126.25 126.731 126.337 126.673 126.435 126.634C126.533 126.585 126.63 126.551 126.728 126.531C126.835 126.502 126.938 126.478 127.036 126.458C127.143 126.438 127.246 126.409 127.343 126.37C127.587 126.507 127.763 126.536 127.871 126.458C127.978 126.38 128.066 126.263 128.134 126.106C128.203 125.95 128.276 125.789 128.354 125.623C128.432 125.447 128.559 125.34 128.735 125.301L128.632 125.198C128.798 124.993 128.945 124.783 129.072 124.568C129.208 124.344 129.272 124.095 129.262 123.821ZM144.526 123.807C144.311 124.295 144.116 124.676 143.94 124.949C143.764 125.213 143.569 125.433 143.354 125.608C143.149 125.784 142.91 125.95 142.636 126.106C142.363 126.253 142.026 126.463 141.625 126.736C141.459 126.746 141.279 126.785 141.083 126.854C140.888 126.912 140.722 126.995 140.585 127.103C140.292 127.073 140.024 127.01 139.78 126.912C139.536 126.814 139.306 126.658 139.091 126.443C139.042 126.395 138.999 126.341 138.959 126.282C138.92 126.224 138.876 126.17 138.828 126.121C138.72 125.994 138.652 125.882 138.623 125.784C138.593 125.687 138.569 125.56 138.549 125.403C138.51 125.179 138.452 125.018 138.374 124.92C138.295 124.822 138.144 124.871 137.919 125.066L137.788 124.949L137.758 124.979C137.67 125.047 137.597 125.105 137.539 125.154C137.49 125.203 137.436 125.257 137.377 125.315C137.329 125.364 137.28 125.418 137.231 125.477C137.182 125.535 137.124 125.608 137.055 125.696C136.938 125.843 136.806 125.994 136.66 126.15C136.523 126.307 136.362 126.414 136.176 126.473C136.147 126.502 136.123 126.531 136.103 126.561C136.083 126.58 136.049 126.595 136 126.604C135.942 126.624 135.874 126.619 135.795 126.59C135.717 126.561 135.654 126.521 135.605 126.473C135.498 126.473 135.4 126.502 135.312 126.561C135.234 126.609 135.156 126.678 135.078 126.766C135.009 126.844 134.941 126.927 134.873 127.015C134.814 127.103 134.746 127.176 134.667 127.234C134.511 127.176 134.365 127.166 134.228 127.205C134.101 127.244 133.974 127.278 133.847 127.308C133.72 127.347 133.593 127.361 133.466 127.352C133.339 127.352 133.212 127.278 133.085 127.132C133.027 126.839 132.978 126.57 132.939 126.326C132.9 126.121 132.866 125.926 132.836 125.74C132.807 125.555 132.792 125.442 132.792 125.403C132.841 125.354 132.866 125.291 132.866 125.213C132.856 125.125 132.841 125.052 132.822 124.993C132.802 124.983 132.792 124.974 132.792 124.964C132.792 124.954 132.783 124.944 132.763 124.935C132.812 124.896 132.851 124.847 132.88 124.788C132.9 124.729 132.934 124.681 132.983 124.642C132.954 124.563 132.919 124.476 132.88 124.378C132.841 124.28 132.822 124.183 132.822 124.085C132.851 124.007 132.88 123.963 132.91 123.953C132.929 123.943 132.983 123.929 133.071 123.909C133.061 123.86 133.051 123.816 133.042 123.777C133.022 123.729 133.017 123.68 133.027 123.631C133.027 123.533 133.051 123.45 133.1 123.382C133.139 123.304 133.183 123.23 133.232 123.162C133.281 123.084 133.325 123.001 133.364 122.913C133.403 122.825 133.422 122.723 133.422 122.605V122.532C133.569 122.532 133.667 122.493 133.715 122.415C133.764 122.327 133.793 122.229 133.803 122.122C133.813 122.015 133.818 121.907 133.818 121.8C133.818 121.692 133.847 121.614 133.906 121.565C133.945 121.526 133.979 121.512 134.008 121.521C134.047 121.521 134.091 121.521 134.14 121.521C134.199 121.453 134.238 121.404 134.257 121.375C134.277 121.336 134.272 121.268 134.243 121.17C134.311 121.17 134.365 121.155 134.404 121.126C134.443 121.097 134.472 121.058 134.492 121.009C134.521 120.96 134.545 120.911 134.565 120.862C134.594 120.813 134.628 120.77 134.667 120.73C134.667 120.486 134.731 120.315 134.858 120.218C134.985 120.12 135.126 120.042 135.283 119.983C135.449 119.915 135.61 119.837 135.766 119.749C135.932 119.661 136.054 119.505 136.132 119.28C136.259 119.358 136.367 119.368 136.455 119.31C136.542 119.241 136.625 119.173 136.704 119.104C136.782 119.026 136.87 118.978 136.967 118.958C137.065 118.929 137.187 118.992 137.333 119.148C137.392 118.963 137.509 118.865 137.685 118.855C137.871 118.846 138.037 118.885 138.183 118.973V118.987H138.198C138.354 119.017 138.471 119.095 138.549 119.222C138.627 119.339 138.691 119.476 138.74 119.632C138.798 119.778 138.857 119.925 138.916 120.071C138.984 120.218 139.077 120.335 139.194 120.423C139.252 120.169 139.306 119.91 139.355 119.646C139.414 119.383 139.506 119.134 139.633 118.899C139.721 119.007 139.814 119.026 139.912 118.958L139.897 118.929C139.897 118.772 139.926 118.631 139.985 118.504C140.053 118.377 140.117 118.255 140.175 118.138C140.244 118.011 140.283 117.884 140.292 117.757C140.312 117.62 140.268 117.469 140.161 117.303C140.327 117.254 140.444 117.161 140.512 117.024C140.59 116.888 140.649 116.741 140.688 116.585C140.737 116.419 140.786 116.253 140.834 116.087C140.893 115.921 140.981 115.779 141.098 115.662C141.098 115.633 141.093 115.604 141.083 115.574C141.083 115.545 141.083 115.516 141.083 115.486C141.093 115.408 141.123 115.34 141.171 115.281C141.22 115.223 141.274 115.164 141.333 115.105C141.391 115.047 141.44 114.983 141.479 114.915C141.528 114.837 141.547 114.744 141.538 114.637C141.635 114.51 141.723 114.344 141.801 114.139C141.879 113.924 141.962 113.724 142.05 113.538C142.138 113.353 142.241 113.216 142.358 113.128C142.475 113.03 142.626 113.035 142.812 113.143C142.851 113.26 142.866 113.367 142.856 113.465C142.846 113.553 142.792 113.646 142.695 113.743C142.753 113.802 142.797 113.851 142.827 113.89C142.797 114.192 142.739 114.495 142.651 114.798C142.573 115.091 142.495 115.379 142.417 115.662C142.436 115.682 142.456 115.701 142.475 115.721C142.495 115.74 142.514 115.76 142.534 115.779C142.368 116.014 142.231 116.248 142.124 116.482C142.026 116.717 141.938 116.971 141.86 117.244C141.831 117.352 141.801 117.464 141.772 117.581C141.752 117.698 141.723 117.806 141.684 117.903C141.635 118.001 141.577 118.108 141.508 118.226C141.44 118.333 141.381 118.44 141.333 118.548C141.225 118.772 141.127 119.002 141.04 119.236C140.961 119.461 140.883 119.69 140.805 119.925C140.708 120.208 140.605 120.486 140.498 120.76C140.4 121.033 140.278 121.302 140.131 121.565V121.8C140.122 121.907 140.087 121.985 140.029 122.034C139.97 122.073 139.902 122.112 139.824 122.151C139.755 122.181 139.687 122.229 139.619 122.298C139.55 122.356 139.501 122.459 139.472 122.605V122.62L139.487 122.635C139.584 122.85 139.604 123.05 139.545 123.235C139.497 123.411 139.438 123.587 139.37 123.763C139.301 123.929 139.252 124.095 139.223 124.261C139.204 124.427 139.272 124.598 139.428 124.773C139.418 124.969 139.458 125.125 139.545 125.242C139.633 125.35 139.736 125.442 139.853 125.521C139.97 125.599 140.087 125.672 140.205 125.74C140.332 125.799 140.424 125.877 140.483 125.975C140.581 125.877 140.683 125.804 140.791 125.755C140.908 125.696 141.02 125.652 141.127 125.623C141.245 125.594 141.357 125.569 141.464 125.55C141.582 125.521 141.694 125.486 141.801 125.447C142.055 125.379 142.231 125.296 142.329 125.198C142.426 125.101 142.475 125.037 142.475 125.008C142.485 124.871 142.534 124.783 142.622 124.744C142.719 124.705 142.827 124.681 142.944 124.671C143.071 124.651 143.193 124.627 143.31 124.598C143.437 124.568 143.53 124.495 143.588 124.378C143.696 124.388 143.789 124.354 143.867 124.275C143.955 124.188 144.033 124.1 144.101 124.012C144.169 123.924 144.238 123.851 144.306 123.792C144.375 123.733 144.448 123.738 144.526 123.807ZM138.505 121.551C138.349 121.434 138.242 121.302 138.183 121.155C138.134 120.999 138.09 120.843 138.051 120.687C138.022 120.53 137.978 120.384 137.919 120.247C137.871 120.101 137.768 119.979 137.612 119.881L137.583 119.866C137.573 119.866 137.519 119.876 137.421 119.896C137.324 119.915 137.265 119.93 137.246 119.939C137.324 120.008 137.373 120.066 137.392 120.115C137.412 120.164 137.412 120.213 137.392 120.262C137.382 120.311 137.358 120.364 137.319 120.423C137.29 120.472 137.265 120.535 137.246 120.613C137.226 120.633 137.187 120.628 137.128 120.599C137.07 120.56 137.026 120.53 136.997 120.511C136.86 120.716 136.665 120.853 136.411 120.921C136.167 120.979 135.932 121.038 135.708 121.097C135.727 121.146 135.747 121.189 135.766 121.229C135.786 121.268 135.805 121.312 135.825 121.36C135.532 121.556 135.317 121.795 135.18 122.078C135.053 122.352 134.936 122.64 134.829 122.942C134.731 123.235 134.609 123.523 134.462 123.807C134.326 124.08 134.111 124.314 133.818 124.51C133.867 124.588 133.901 124.666 133.92 124.744C133.94 124.822 134.003 124.881 134.111 124.92C134.14 125.027 134.15 125.14 134.14 125.257C134.14 125.364 134.13 125.472 134.111 125.579C134.091 125.687 134.077 125.799 134.067 125.916C134.067 126.023 134.082 126.136 134.111 126.253L134.14 126.282C134.443 126.39 134.677 126.399 134.843 126.312C135.019 126.224 135.17 126.111 135.297 125.975C135.434 125.838 135.581 125.711 135.737 125.594C135.893 125.477 136.113 125.447 136.396 125.506L136.455 125.418C136.435 125.369 136.42 125.325 136.411 125.286C136.401 125.247 136.396 125.203 136.396 125.154C136.406 125.047 136.435 124.964 136.484 124.905C136.533 124.837 136.596 124.764 136.674 124.686C136.743 124.607 136.806 124.524 136.865 124.437C136.933 124.349 136.997 124.256 137.055 124.158C137.114 124.07 137.182 123.997 137.26 123.938C137.338 123.87 137.441 123.86 137.568 123.909L137.846 122.854C137.856 122.806 137.9 122.762 137.978 122.723C138.066 122.684 138.139 122.64 138.198 122.591C138.266 122.542 138.305 122.479 138.315 122.4C138.334 122.322 138.281 122.22 138.154 122.093C138.173 122.054 138.188 122.005 138.198 121.946C138.208 121.888 138.222 121.834 138.242 121.785C138.261 121.736 138.286 121.697 138.315 121.668C138.344 121.639 138.393 121.634 138.461 121.653L138.505 121.551ZM154.179 122.518C154.091 122.605 154.023 122.674 153.974 122.723C153.935 122.771 153.896 122.82 153.857 122.869C153.828 122.908 153.789 122.952 153.74 123.001C153.701 123.05 153.637 123.123 153.549 123.221C153.471 123.299 153.398 123.382 153.33 123.47C153.261 123.558 153.183 123.636 153.095 123.704C152.978 123.675 152.885 123.689 152.817 123.748C152.758 123.807 152.7 123.875 152.641 123.953C152.592 124.021 152.543 124.09 152.495 124.158C152.456 124.217 152.402 124.241 152.333 124.231C152.099 124.358 151.865 124.471 151.63 124.568C151.396 124.656 151.171 124.788 150.957 124.964L150.839 124.847L149.316 125.579C149.267 125.599 149.218 125.628 149.169 125.667C149.121 125.706 149.072 125.74 149.023 125.77C148.808 125.887 148.583 125.994 148.349 126.092C148.125 126.18 147.9 126.263 147.675 126.341L147.485 126.399C147.563 126.595 147.563 126.731 147.485 126.81C147.407 126.888 147.294 126.946 147.148 126.985C147.001 127.015 146.84 127.034 146.665 127.044C146.489 127.054 146.352 127.088 146.254 127.146C146.137 127.127 146.015 127.117 145.888 127.117C145.771 127.127 145.649 127.142 145.522 127.161C145.385 127.181 145.258 127.19 145.141 127.19C145.024 127.19 144.897 127.176 144.76 127.146H144.731C144.565 127.225 144.418 127.239 144.292 127.19C144.174 127.151 144.067 127.083 143.969 126.985C143.872 126.878 143.779 126.756 143.691 126.619C143.613 126.473 143.53 126.341 143.442 126.224C143.383 126.146 143.31 126.033 143.222 125.887C143.134 125.74 143.061 125.584 143.002 125.418C142.934 125.252 142.895 125.086 142.885 124.92C142.866 124.744 142.9 124.593 142.988 124.466C143.076 124.339 143.149 124.202 143.208 124.056C143.256 123.909 143.281 123.738 143.281 123.543C143.281 123.475 143.281 123.411 143.281 123.353C143.271 123.294 143.266 123.23 143.266 123.162C143.315 123.162 143.369 123.167 143.427 123.177C143.486 123.177 143.54 123.177 143.588 123.177C143.647 123.167 143.691 123.147 143.72 123.118C143.759 123.079 143.779 123.016 143.779 122.928C143.779 122.879 143.759 122.84 143.72 122.811C143.691 122.781 143.671 122.752 143.662 122.723C143.72 122.635 143.774 122.566 143.823 122.518C143.881 122.459 143.93 122.405 143.969 122.356C144.008 122.298 144.038 122.234 144.057 122.166C144.077 122.088 144.072 121.985 144.042 121.858C144.16 121.653 144.296 121.473 144.453 121.316C144.619 121.15 144.79 120.999 144.965 120.862C145.141 120.716 145.322 120.574 145.507 120.438C145.693 120.301 145.869 120.154 146.035 119.998C146.22 120.076 146.367 120.076 146.474 119.998C146.591 119.92 146.694 119.837 146.782 119.749C146.87 119.651 146.958 119.573 147.045 119.515C147.133 119.456 147.25 119.48 147.397 119.588L147.426 119.617C147.69 119.354 147.954 119.236 148.217 119.266C148.491 119.295 148.72 119.383 148.906 119.529C149.101 119.676 149.228 119.847 149.287 120.042C149.345 120.228 149.292 120.354 149.125 120.423C149.233 120.53 149.287 120.657 149.287 120.804C149.287 120.95 149.248 121.077 149.169 121.185C149.082 121.302 149.003 121.424 148.935 121.551C148.876 121.668 148.813 121.795 148.745 121.932C148.647 122.156 148.54 122.371 148.422 122.576C148.305 122.771 148.139 122.938 147.924 123.074C147.749 123.025 147.626 123.045 147.558 123.133C147.5 123.221 147.456 123.318 147.426 123.426C147.397 123.523 147.363 123.602 147.324 123.66C147.285 123.719 147.202 123.699 147.075 123.602L147.045 123.572L147.016 123.602C146.938 123.68 146.875 123.768 146.826 123.865C146.787 123.963 146.728 124.036 146.65 124.085C146.562 124.056 146.469 124.031 146.372 124.012C146.274 123.992 146.181 123.973 146.093 123.953C146.093 124.158 146.054 124.319 145.976 124.437C145.898 124.554 145.795 124.651 145.668 124.729C145.551 124.798 145.415 124.856 145.258 124.905C145.102 124.944 144.946 124.998 144.79 125.066C144.643 125.125 144.501 125.203 144.365 125.301C144.238 125.389 144.135 125.516 144.057 125.682C144.155 125.789 144.277 125.853 144.423 125.872C144.57 125.882 144.721 125.882 144.877 125.872C145.034 125.853 145.185 125.843 145.332 125.843C145.488 125.843 145.625 125.882 145.742 125.96L145.756 125.975L145.771 125.96C146.005 125.931 146.23 125.877 146.445 125.799C146.669 125.711 146.884 125.623 147.089 125.535C147.304 125.438 147.519 125.35 147.734 125.271C147.958 125.184 148.188 125.12 148.422 125.081C148.471 125.159 148.535 125.203 148.613 125.213C148.701 125.223 148.784 125.218 148.862 125.198L148.876 125.169C148.896 125.101 148.916 125.042 148.935 124.993C148.955 124.935 148.984 124.871 149.023 124.803C149.091 124.695 149.174 124.612 149.272 124.554C149.37 124.495 149.472 124.451 149.58 124.422C149.697 124.393 149.819 124.373 149.946 124.363C150.073 124.354 150.2 124.339 150.327 124.319H150.356L150.371 124.275C150.41 124.158 150.458 124.08 150.517 124.041C150.585 123.992 150.654 123.958 150.722 123.938C150.8 123.919 150.878 123.904 150.957 123.895C151.044 123.885 151.127 123.855 151.206 123.807C151.381 123.865 151.528 123.846 151.645 123.748C151.762 123.65 151.875 123.548 151.982 123.44L152.099 123.587L152.143 123.528C152.29 123.392 152.397 123.289 152.465 123.221C152.543 123.152 152.617 123.094 152.685 123.045C152.753 122.986 152.832 122.933 152.919 122.884C153.017 122.825 153.149 122.742 153.315 122.635C153.452 122.547 153.583 122.459 153.71 122.371C153.847 122.283 153.979 122.186 154.106 122.078C154.155 122.098 154.179 122.137 154.179 122.195C154.179 122.244 154.179 122.293 154.179 122.342C154.169 122.361 154.16 122.391 154.15 122.43C154.15 122.469 154.16 122.498 154.179 122.518ZM148.115 120.687C148.105 120.677 148.095 120.672 148.085 120.672C148.085 120.672 148.081 120.667 148.071 120.657C147.866 120.55 147.695 120.501 147.558 120.511C147.421 120.511 147.294 120.55 147.177 120.628C147.07 120.696 146.967 120.789 146.87 120.906C146.782 121.014 146.684 121.116 146.577 121.214C146.479 121.302 146.362 121.37 146.225 121.419C146.088 121.468 145.922 121.463 145.727 121.404C145.698 121.561 145.668 121.717 145.639 121.873C145.62 122.02 145.605 122.171 145.595 122.327C145.429 122.386 145.297 122.469 145.2 122.576C145.112 122.684 145.034 122.801 144.965 122.928C144.907 123.055 144.848 123.191 144.79 123.338C144.741 123.475 144.672 123.606 144.584 123.733L144.643 123.807C144.682 123.787 144.726 123.802 144.775 123.851C144.824 123.899 144.858 123.934 144.877 123.953C144.985 123.797 145.126 123.665 145.302 123.558C145.488 123.45 145.673 123.353 145.859 123.265C146.054 123.167 146.24 123.064 146.416 122.957C146.591 122.85 146.723 122.708 146.811 122.532C147.124 122.444 147.358 122.269 147.514 122.005C147.67 121.741 147.802 121.468 147.91 121.185C147.929 121.126 147.963 121.043 148.012 120.936C148.071 120.818 148.105 120.735 148.115 120.687Z" fill="black"/>
<rect x="35.5" y="33.5" width="144" height="51" rx="25.5" fill="#D9D9D9" fill-opacity="0.26" stroke="black" stroke-dasharray="2 2"/>
<circle cx="64.5" cy="58.5" r="17.5" fill="#FEB661"/>
</svg>
