<svg width="216" height="265" viewBox="0 0 216 265" fill="none" xmlns="http://www.w3.org/2000/svg">
<rect width="216" height="265" rx="20" fill="#5ABE6A"/>
<ellipse cx="108" cy="104.5" rx="59" ry="59.5" fill="url(#paint0_linear_7_2)"/>
<path d="M77.3115 204.532C77.3213 204.649 77.292 204.767 77.2236 204.884C77.1553 205.001 77.0918 205.104 77.0332 205.191C77.0039 205.221 76.9453 205.265 76.8574 205.323C76.7793 205.372 76.6914 205.421 76.5938 205.47C76.5059 205.519 76.418 205.572 76.3301 205.631C76.252 205.68 76.2031 205.719 76.1836 205.748C76.1348 205.826 76.0762 205.929 76.0078 206.056C75.9492 206.183 75.8955 206.285 75.8467 206.363C75.71 206.539 75.5732 206.676 75.4365 206.773C75.3096 206.871 75.1729 206.959 75.0264 207.037C74.8896 207.105 74.7432 207.174 74.5869 207.242C74.4307 207.311 74.2598 207.408 74.0742 207.535L73.957 207.901C73.752 207.882 73.6055 207.892 73.5176 207.931C73.4395 207.96 73.3809 208.009 73.3418 208.077C73.3125 208.146 73.2832 208.224 73.2539 208.312C73.2344 208.399 73.1855 208.487 73.1074 208.575C73.0684 208.624 73 208.673 72.9023 208.722C72.8145 208.771 72.7461 208.8 72.6973 208.81C72.6191 208.81 72.5508 208.805 72.4922 208.795C72.4434 208.785 72.3994 208.78 72.3604 208.78C72.3311 208.78 72.3066 208.795 72.2871 208.824C72.2676 208.844 72.2578 208.893 72.2578 208.971H72.2285C72.1211 208.971 72.0234 208.995 71.9355 209.044C71.8477 209.103 71.7598 209.156 71.6719 209.205C71.584 209.254 71.4961 209.283 71.4082 209.293C71.3203 209.312 71.2227 209.288 71.1152 209.22H71.1006C71.1006 208.985 71.0566 208.814 70.9688 208.707C70.8906 208.59 70.7979 208.487 70.6904 208.399C70.583 208.302 70.4805 208.194 70.3828 208.077C70.2949 207.96 70.2412 207.784 70.2217 207.55C70.2021 207.325 70.2266 207.096 70.2949 206.861C70.373 206.627 70.4121 206.397 70.4121 206.173C70.4121 206.036 70.3877 205.919 70.3389 205.821C70.29 205.724 70.2656 205.621 70.2656 205.514C70.2656 205.416 70.29 205.333 70.3389 205.265C70.3975 205.196 70.4512 205.133 70.5 205.074C70.5586 205.016 70.5928 204.947 70.6025 204.869C70.6221 204.791 70.5928 204.693 70.5146 204.576V204.562C70.5146 204.474 70.5342 204.366 70.5732 204.239C70.6123 204.103 70.6416 203.99 70.6611 203.902C70.7197 203.658 70.7734 203.419 70.8223 203.185C70.8809 202.94 70.9297 202.701 70.9688 202.467C71.0273 202.105 71.0859 201.754 71.1445 201.412C71.2031 201.061 71.291 200.714 71.4082 200.372L71.4229 200.357L71.3203 200.211H71.3643C71.501 200.172 71.5889 200.089 71.6279 199.962C71.6768 199.835 71.7061 199.698 71.7158 199.552C71.7256 199.405 71.7305 199.269 71.7305 199.142C71.7402 199.005 71.7842 198.907 71.8623 198.849C71.8135 198.8 71.7646 198.751 71.7158 198.702C71.6768 198.644 71.6328 198.59 71.584 198.541C71.5742 198.551 71.5693 198.565 71.5693 198.585C71.4814 198.868 71.3447 199.112 71.1592 199.317C70.9834 199.513 70.7979 199.708 70.6025 199.903C70.417 200.089 70.2461 200.294 70.0898 200.519C69.9336 200.733 69.8311 201.007 69.7822 201.339C69.6162 201.622 69.4648 201.915 69.3281 202.218C69.2012 202.521 69.0645 202.823 68.918 203.126C68.7715 203.429 68.6104 203.722 68.4346 204.005C68.2686 204.278 68.0684 204.527 67.834 204.752C67.834 204.771 67.834 204.796 67.834 204.825C67.8438 204.854 67.8486 204.879 67.8486 204.898C67.8486 204.986 67.8291 205.06 67.79 205.118C67.751 205.177 67.707 205.235 67.6582 205.294C67.6094 205.343 67.5557 205.396 67.4971 205.455C67.4385 205.504 67.3896 205.558 67.3506 205.616C67.3506 205.772 67.3115 205.919 67.2334 206.056C67.1553 206.183 67.0674 206.305 66.9697 206.422C66.8818 206.539 66.7988 206.656 66.7207 206.773C66.6426 206.891 66.6035 207.008 66.6035 207.125C66.6035 207.369 66.5596 207.555 66.4717 207.682C66.3838 207.799 66.2764 207.896 66.1494 207.975C66.0322 208.043 65.9053 208.116 65.7686 208.194C65.6416 208.263 65.5342 208.365 65.4463 208.502V208.517C65.417 208.507 65.3828 208.512 65.3438 208.531C65.3047 208.551 65.2607 208.546 65.2119 208.517C65.1631 208.497 65.1289 208.448 65.1094 208.37C65.0996 208.282 65.0898 208.189 65.0801 208.092C65.0703 207.994 65.0605 207.906 65.0508 207.828C65.041 207.75 65.0215 207.701 64.9922 207.682C65.0312 207.652 65.085 207.555 65.1533 207.389C65.2217 207.223 65.2852 207.037 65.3438 206.832C65.4121 206.627 65.4707 206.432 65.5195 206.246C65.5781 206.061 65.6172 205.938 65.6367 205.88C65.6758 205.753 65.71 205.626 65.7393 205.499C65.7783 205.372 65.8223 205.245 65.8711 205.118C65.8906 205.069 65.9102 205.016 65.9297 204.957C65.959 204.889 65.9785 204.83 65.9883 204.781C65.998 204.703 66.0029 204.62 66.0029 204.532C66.0127 204.444 66.0225 204.356 66.0322 204.269L66.0615 204.254C66.1396 204.254 66.1934 204.22 66.2227 204.151C66.2617 204.073 66.2861 203.99 66.2959 203.902C66.3057 203.805 66.3057 203.707 66.2959 203.609C66.2959 203.512 66.3008 203.438 66.3105 203.39C66.3887 202.921 66.4912 202.438 66.6182 201.939C66.7451 201.432 66.8086 200.943 66.8086 200.475V200.255C66.8184 200.099 66.833 199.938 66.8525 199.771C66.8721 199.605 66.877 199.439 66.8672 199.273C66.8672 199.098 66.8428 198.932 66.7939 198.775C66.7549 198.619 66.6865 198.473 66.5889 198.336V198.321C66.2764 198.321 65.9883 198.419 65.7246 198.614C65.4609 198.8 65.2168 199.034 64.9922 199.317C64.7773 199.591 64.5869 199.884 64.4209 200.196C64.2549 200.499 64.1182 200.768 64.0107 201.002L63.9814 201.031L63.8936 200.899L63.8789 200.914C63.7129 201.031 63.5957 201.158 63.5273 201.295C63.4688 201.422 63.4102 201.578 63.3516 201.764C63.293 201.959 63.2197 202.145 63.1318 202.32C63.0537 202.496 62.917 202.623 62.7217 202.701L62.707 202.716C62.707 202.94 62.6729 203.111 62.6045 203.229C62.5361 203.336 62.458 203.434 62.3701 203.521C62.292 203.609 62.2188 203.712 62.1504 203.829C62.082 203.937 62.0479 204.107 62.0479 204.342L62.0332 204.356C61.8379 204.503 61.7012 204.659 61.623 204.825C61.5449 204.991 61.4668 205.182 61.3887 205.396C61.3203 205.562 61.2568 205.724 61.1982 205.88C61.1396 206.026 61.0518 206.163 60.9346 206.29L60.9492 206.319C61.0078 206.349 61.0273 206.407 61.0078 206.495C60.998 206.573 60.998 206.637 61.0078 206.686C60.9102 206.852 60.8125 207.008 60.7148 207.154C60.6172 207.291 60.5293 207.433 60.4512 207.579C60.3828 207.716 60.3242 207.862 60.2754 208.019C60.2266 208.175 60.2021 208.355 60.2021 208.561V208.575H60.1729C60.0068 208.595 59.8896 208.658 59.8213 208.766C59.7529 208.863 59.6992 208.98 59.6602 209.117C59.6309 209.254 59.6113 209.391 59.6016 209.527C59.5918 209.664 59.5625 209.771 59.5137 209.85C59.4746 209.928 59.4062 209.962 59.3086 209.952C59.2109 209.952 59.0645 209.874 58.8691 209.718L58.4736 209.425C58.5811 209.19 58.6836 208.956 58.7812 208.722C58.8691 208.478 58.9473 208.229 59.0156 207.975C59.084 207.721 59.1572 207.472 59.2354 207.228C59.3135 206.983 59.4307 206.749 59.5869 206.524V206.51C59.5869 206.471 59.5967 206.407 59.6162 206.319C59.6455 206.222 59.6748 206.119 59.7041 206.012C59.7334 205.904 59.7627 205.807 59.792 205.719C59.8311 205.621 59.8604 205.548 59.8799 205.499C59.958 205.333 60.0264 205.172 60.085 205.016C60.1533 204.859 60.1875 204.684 60.1875 204.488C60.2754 204.352 60.3438 204.205 60.3926 204.049C60.4414 203.883 60.4854 203.717 60.5244 203.551C60.5732 203.385 60.627 203.224 60.6855 203.067C60.7539 202.911 60.8467 202.77 60.9639 202.643C60.9639 202.633 60.9785 202.569 61.0078 202.452C61.0469 202.335 61.0859 202.208 61.125 202.071C61.1641 201.935 61.1982 201.803 61.2275 201.676C61.2666 201.549 61.291 201.471 61.3008 201.441C61.4082 201.09 61.4961 200.758 61.5645 200.445C61.6426 200.123 61.6816 199.776 61.6816 199.405C61.6816 199.327 61.6768 199.249 61.667 199.171C61.6572 199.083 61.6572 199 61.667 198.922C61.833 198.668 61.9746 198.39 62.0918 198.087C62.209 197.784 62.292 197.486 62.3408 197.193V197.179C62.3115 197.12 62.2676 197.042 62.209 196.944C62.1504 196.847 62.0967 196.783 62.0479 196.754C61.9404 196.705 61.8281 196.705 61.7109 196.754C61.5938 196.793 61.4717 196.832 61.3447 196.871C61.2178 196.91 61.0957 196.92 60.9785 196.9C60.8613 196.881 60.7539 196.783 60.6562 196.607V196.578C60.5293 196.627 60.417 196.686 60.3193 196.754C60.2314 196.812 60.1045 196.812 59.9385 196.754L59.9238 196.739C59.9238 196.632 59.8945 196.539 59.8359 196.461C59.7773 196.373 59.7236 196.285 59.6748 196.197C59.626 196.256 59.5674 196.285 59.499 196.285C59.4307 196.285 59.3574 196.275 59.2793 196.256C59.2012 196.236 59.1279 196.212 59.0596 196.183C58.9814 196.144 58.918 196.114 58.8691 196.095L58.8398 196.08C58.8105 195.953 58.7568 195.86 58.6787 195.802C58.6006 195.733 58.5176 195.675 58.4297 195.626C58.3418 195.577 58.2686 195.523 58.21 195.465C58.1416 195.396 58.1074 195.299 58.1074 195.172C58.1074 195.025 58.1465 194.898 58.2246 194.791C58.293 194.674 58.3809 194.591 58.4883 194.542C58.5957 194.493 58.7129 194.479 58.8398 194.498C58.9668 194.518 59.084 194.581 59.1914 194.688V194.703C59.2402 194.752 59.3135 194.811 59.4111 194.879C59.5088 194.947 59.6064 195.021 59.7041 195.099C59.8115 195.167 59.9141 195.226 60.0117 195.274C60.1191 195.323 60.207 195.348 60.2754 195.348C60.3145 195.318 60.3486 195.313 60.3779 195.333C60.417 195.343 60.4463 195.362 60.4658 195.392C60.4951 195.421 60.5244 195.455 60.5537 195.494C60.583 195.523 60.6123 195.538 60.6416 195.538C60.71 195.519 60.7539 195.475 60.7734 195.406L60.7881 195.421C60.876 195.45 60.9688 195.44 61.0664 195.392C61.1738 195.333 61.2812 195.279 61.3887 195.23C61.5059 195.172 61.623 195.143 61.7402 195.143C61.8672 195.133 61.9893 195.191 62.1064 195.318C62.126 195.289 62.165 195.265 62.2236 195.245C62.2822 195.226 62.3311 195.216 62.3701 195.216C62.4971 195.216 62.6094 195.274 62.707 195.392C62.9316 195.675 63.0684 195.992 63.1172 196.344C63.166 196.695 63.1904 197.042 63.1904 197.384V197.809V197.823C63.1123 197.97 63.0439 198.116 62.9854 198.263C62.9365 198.409 62.9121 198.565 62.9121 198.731C62.9121 198.761 62.9121 198.8 62.9121 198.849C62.9219 198.897 62.9316 198.951 62.9414 199.01C62.9512 199.059 62.9561 199.107 62.9561 199.156C62.9658 199.195 62.9707 199.22 62.9707 199.229C62.9414 199.405 62.8975 199.581 62.8389 199.757C62.7803 199.933 62.7217 200.104 62.6631 200.27C62.5557 200.572 62.4629 200.88 62.3848 201.192C62.3066 201.495 62.2578 201.808 62.2383 202.13C62.4336 201.837 62.5312 201.5 62.5312 201.119L62.5459 201.104C62.79 200.909 62.9902 200.699 63.1465 200.475C63.3027 200.24 63.4541 199.991 63.6006 199.728C63.7666 199.435 63.9473 199.146 64.1426 198.863C64.3477 198.58 64.6162 198.375 64.9482 198.248C65.0557 198.141 65.1533 198.033 65.2412 197.926C65.3389 197.818 65.4561 197.74 65.5928 197.691L65.6074 197.677L65.6953 197.823C65.7344 197.794 65.7637 197.765 65.7832 197.735C65.8125 197.706 65.8418 197.677 65.8711 197.647C65.9688 197.55 66.0273 197.486 66.0469 197.457C66.0664 197.418 66.0762 197.33 66.0762 197.193C66.2227 197.076 66.3545 197.013 66.4717 197.003C66.5986 196.993 66.7109 197.018 66.8086 197.076C66.916 197.125 67.0234 197.193 67.1309 197.281C67.2383 197.369 67.3506 197.447 67.4678 197.516V197.53C67.5459 198.028 67.6143 198.521 67.6729 199.01C67.7412 199.498 67.7754 199.996 67.7754 200.504C67.7754 200.768 67.7656 201.007 67.7461 201.222C67.7363 201.427 67.7119 201.632 67.6729 201.837C67.6436 202.032 67.5996 202.232 67.541 202.438C67.4922 202.643 67.4336 202.867 67.3652 203.111V203.126C67.502 203.272 67.624 203.321 67.7314 203.272C67.8486 203.224 67.9561 203.136 68.0537 203.009C68.1514 202.872 68.2393 202.73 68.3174 202.584C68.4053 202.428 68.4883 202.311 68.5664 202.232H68.5811C68.5713 202.135 68.6006 202.018 68.6689 201.881C68.7373 201.734 68.8154 201.588 68.9033 201.441C68.9912 201.295 69.0693 201.158 69.1377 201.031C69.2061 200.895 69.2354 200.797 69.2256 200.738C69.4209 200.455 69.5967 200.177 69.7529 199.903C69.9189 199.62 70.0703 199.327 70.207 199.024C70.2559 199.063 70.2949 199.063 70.3242 199.024C70.3535 198.985 70.3828 198.951 70.4121 198.922H70.4268C70.4658 198.688 70.5439 198.497 70.6611 198.351C70.7881 198.194 70.9248 198.058 71.0713 197.94C71.2275 197.813 71.3887 197.691 71.5547 197.574C71.7207 197.457 71.8721 197.32 72.0088 197.164C72.2236 197.164 72.4141 197.208 72.5801 197.296C72.7559 197.374 72.8535 197.54 72.873 197.794C72.8242 197.95 72.7949 198.111 72.7852 198.277C72.7852 198.434 72.7803 198.595 72.7705 198.761C72.7705 198.927 72.7607 199.093 72.7412 199.259C72.7217 199.415 72.6777 199.566 72.6094 199.713C72.6094 199.732 72.5947 199.796 72.5654 199.903C72.5361 200.011 72.502 200.133 72.4629 200.27C72.4336 200.396 72.3994 200.519 72.3604 200.636C72.3213 200.753 72.2969 200.826 72.2871 200.855C72.1504 201.275 72.043 201.676 71.9648 202.057C71.8867 202.428 71.8477 202.843 71.8477 203.302C71.8086 203.341 71.7695 203.38 71.7305 203.419C71.7012 203.458 71.667 203.492 71.6279 203.521L71.6426 203.536C71.6816 203.634 71.7012 203.722 71.7012 203.8C71.7012 203.907 71.6719 204.024 71.6133 204.151C71.5645 204.278 71.5156 204.405 71.4668 204.532C71.4277 204.649 71.4082 204.771 71.4082 204.898C71.4082 205.016 71.4668 205.123 71.584 205.221C71.584 205.377 71.5596 205.548 71.5107 205.733C71.4619 205.909 71.418 206.09 71.3789 206.275C71.3496 206.451 71.335 206.627 71.335 206.803C71.335 206.979 71.3838 207.14 71.4814 207.286L71.4961 207.301C71.6523 207.301 71.7695 207.286 71.8477 207.257C71.9258 207.228 71.9893 207.208 72.0381 207.198C72.0967 207.188 72.1602 207.198 72.2285 207.228C72.2969 207.247 72.4043 207.311 72.5508 207.418L73.3857 206.847C73.5029 206.759 73.6055 206.666 73.6934 206.568C73.791 206.471 73.8887 206.383 73.9863 206.305C74.084 206.227 74.1914 206.168 74.3086 206.129C74.4258 206.09 74.5674 206.085 74.7334 206.114L74.748 206.085C74.8848 205.89 75.0557 205.724 75.2607 205.587C75.4756 205.45 75.7002 205.328 75.9346 205.221C76.1689 205.104 76.4082 204.996 76.6523 204.898C76.8965 204.791 77.1162 204.669 77.3115 204.532ZM83.7861 208.678C83.8447 208.717 83.8691 208.751 83.8594 208.78C83.8496 208.81 83.8252 208.839 83.7861 208.868C83.7568 208.897 83.7178 208.922 83.6689 208.941C83.6201 208.951 83.5811 208.961 83.5518 208.971L83.1123 209.059C82.7412 209.137 82.3896 209.244 82.0576 209.381C81.7256 209.527 81.3887 209.669 81.0469 209.806C81.0078 209.757 80.9541 209.723 80.8857 209.703C80.8271 209.684 80.7734 209.703 80.7246 209.762C80.7344 209.791 80.7393 209.835 80.7393 209.894C80.7393 210.011 80.7344 210.104 80.7246 210.172C80.7148 210.25 80.6953 210.318 80.666 210.377C80.6465 210.436 80.6123 210.489 80.5635 210.538C80.5146 210.597 80.4512 210.665 80.373 210.743C80.2754 210.841 80.29 210.89 80.417 210.89C80.3486 210.978 80.2754 211.026 80.1973 211.036C80.1777 211.046 80.1484 211.051 80.1094 211.051C80.0898 211.051 80.0703 211.056 80.0508 211.065C80.041 211.085 80.0508 211.124 80.0801 211.183C80.1094 211.251 80.1289 211.295 80.1387 211.314C80.1387 211.324 80.124 211.349 80.0947 211.388C80.0654 211.427 80.0361 211.466 80.0068 211.505C79.9775 211.554 79.9531 211.598 79.9336 211.637C79.9141 211.686 79.9141 211.725 79.9336 211.754V211.871C79.9824 211.891 79.9824 211.905 79.9336 211.915C79.8945 211.935 79.8701 211.944 79.8604 211.944C79.8506 211.944 79.8213 211.964 79.7725 212.003C79.7236 212.052 79.6992 212.081 79.6992 212.091C79.6797 212.11 79.6553 212.12 79.626 212.12C79.6064 212.13 79.582 212.145 79.5527 212.164C79.543 212.164 79.5283 212.179 79.5088 212.208C79.499 212.247 79.4893 212.286 79.4795 212.325C79.4697 212.364 79.46 212.403 79.4502 212.442C79.4404 212.481 79.4404 212.506 79.4502 212.516C79.4502 212.643 79.4355 212.75 79.4062 212.838C79.3867 212.926 79.3623 213.033 79.333 213.16C79.2939 213.316 79.2354 213.424 79.1572 213.482C79.0889 213.551 79.0156 213.609 78.9375 213.658C78.8594 213.717 78.7812 213.78 78.7031 213.849C78.6348 213.917 78.5811 214.029 78.542 214.186C78.5322 214.225 78.5225 214.259 78.5127 214.288C78.5029 214.308 78.498 214.332 78.498 214.361V214.391C78.459 214.459 78.4248 214.513 78.3955 214.552C78.376 214.601 78.3564 214.645 78.3369 214.684C78.3174 214.723 78.3027 214.767 78.293 214.815C78.2832 214.864 78.2783 214.923 78.2783 214.991C78.2979 215.021 78.2979 215.064 78.2783 215.123C78.2686 215.182 78.249 215.24 78.2197 215.299C78.1904 215.357 78.1562 215.416 78.1172 215.475C78.0879 215.533 78.0635 215.577 78.0439 215.606C78.0146 215.655 77.9805 215.704 77.9414 215.753C77.9023 215.802 77.8633 215.851 77.8242 215.899C77.6191 216.183 77.4482 216.461 77.3115 216.734C77.1064 217.145 76.8574 217.535 76.5645 217.906C76.5059 217.975 76.4375 218.048 76.3594 218.126C76.291 218.204 76.2373 218.282 76.1982 218.36V218.463C76.1982 218.658 76.1445 218.805 76.0371 218.902C75.9297 219 75.7979 219.093 75.6416 219.181C75.5928 219.22 75.5391 219.259 75.4805 219.298C75.4219 219.337 75.373 219.386 75.334 219.444C75.2754 219.522 75.1973 219.62 75.0996 219.737C74.9922 219.854 74.8945 219.938 74.8066 219.986C74.7871 219.986 74.7236 219.981 74.6162 219.972C74.5088 219.962 74.4453 219.957 74.4258 219.957C74.4062 219.967 74.377 219.986 74.3379 220.016C74.2891 220.045 74.2402 220.074 74.1914 220.104C74.1426 220.133 74.0938 220.157 74.0449 220.177C73.9961 220.196 73.9668 220.201 73.957 220.191C73.8984 220.162 73.8496 220.147 73.8105 220.147C73.791 220.147 73.7715 220.157 73.752 220.177C73.7227 220.206 73.6982 220.23 73.6787 220.25C73.6006 220.23 73.542 220.221 73.5029 220.221C73.4834 220.221 73.4541 220.201 73.415 220.162C73.3662 220.123 73.3223 220.074 73.2832 220.016C73.2344 219.967 73.1953 219.918 73.166 219.869C73.127 219.82 73.1025 219.786 73.0928 219.767C73.0244 219.659 72.9854 219.532 72.9756 219.386C72.9658 219.239 72.9707 219.083 72.9902 218.917C73 218.761 73.0195 218.604 73.0488 218.448C73.0781 218.292 73.1074 218.155 73.1367 218.038C73.1855 217.843 73.2295 217.643 73.2686 217.438C73.3076 217.242 73.3271 217.047 73.3271 216.852C73.3271 216.803 73.3369 216.764 73.3564 216.734C73.376 216.705 73.3955 216.676 73.415 216.646C73.4346 216.627 73.4395 216.603 73.4297 216.573C73.4199 216.554 73.4102 216.534 73.4004 216.515C73.3906 216.485 73.4004 216.427 73.4297 216.339C73.459 216.251 73.498 216.153 73.5469 216.046C73.5859 215.948 73.6299 215.851 73.6787 215.753C73.7178 215.665 73.7471 215.606 73.7666 215.577C73.9619 215.226 74.1426 214.854 74.3086 214.464C74.4648 214.073 74.6699 213.722 74.9238 213.409C75.0703 213.233 75.2168 213.058 75.3633 212.882C75.5098 212.706 75.6514 212.521 75.7881 212.325C75.8467 212.247 75.8955 212.188 75.9346 212.149C75.9932 212.071 76.0811 212.008 76.1982 211.959C76.3154 211.91 76.4277 211.896 76.5352 211.915C76.5449 211.915 76.5889 211.886 76.667 211.827C76.7549 211.769 76.8037 211.734 76.8135 211.725C76.8525 211.598 76.916 211.461 77.0039 211.314C77.0918 211.178 77.1797 211.056 77.2676 210.948C77.3262 210.88 77.4043 210.831 77.502 210.802C77.5996 210.772 77.7021 210.743 77.8096 210.714C77.9268 210.685 78.0391 210.646 78.1465 210.597C78.2539 210.558 78.3516 210.484 78.4395 210.377C78.5078 210.299 78.5957 210.206 78.7031 210.099C78.8203 209.991 78.9326 209.918 79.04 209.879C79.1377 209.898 79.2695 209.884 79.4355 209.835C79.6113 209.786 79.7285 209.718 79.7871 209.63C79.8359 209.562 79.8604 209.449 79.8604 209.293C79.8604 209.215 79.8896 209.117 79.9482 209C80.0166 208.883 80.0703 208.795 80.1094 208.736C80.1582 208.658 80.1973 208.58 80.2266 208.502C80.2559 208.424 80.2852 208.346 80.3145 208.268C80.334 208.219 80.3486 208.175 80.3584 208.136C80.3682 208.087 80.3779 208.038 80.3877 207.989C80.3975 207.979 80.417 207.945 80.4463 207.887C80.4756 207.828 80.5049 207.77 80.5342 207.711C80.5732 207.652 80.6025 207.599 80.6221 207.55C80.6514 207.491 80.6611 207.457 80.6514 207.447C80.6514 207.438 80.6221 207.428 80.5635 207.418C80.5049 207.408 80.4414 207.403 80.373 207.403C80.3145 207.394 80.2559 207.389 80.1973 207.389C80.1387 207.379 80.1045 207.374 80.0947 207.374C80.0557 207.374 79.9971 207.389 79.9189 207.418C79.8506 207.447 79.7725 207.481 79.6846 207.521C79.6064 207.56 79.5381 207.604 79.4795 207.652C79.4209 207.691 79.3867 207.721 79.377 207.74C79.0645 207.848 78.752 207.906 78.4395 207.916C78.127 207.926 77.8145 207.989 77.502 208.106C77.3164 208.175 77.1113 208.229 76.8867 208.268C76.6719 208.297 76.4619 208.307 76.2568 208.297C76.2471 208.297 76.2178 208.292 76.1689 208.282C76.1201 208.263 76.0664 208.243 76.0078 208.224C75.9492 208.194 75.8955 208.17 75.8467 208.15C75.7979 208.131 75.7686 208.121 75.7588 208.121C75.71 208.102 75.6611 208.067 75.6123 208.019C75.5732 207.96 75.5342 207.901 75.4951 207.843C75.4658 207.774 75.4365 207.711 75.4072 207.652C75.3779 207.584 75.3535 207.53 75.334 207.491C75.2852 207.384 75.2461 207.276 75.2168 207.169C75.1777 207.062 75.1484 206.954 75.1289 206.847C75.1191 206.847 75.1143 206.808 75.1143 206.729C75.1143 206.69 75.1094 206.656 75.0996 206.627C75.0605 206.363 75.0361 206.07 75.0264 205.748C75.0068 205.426 75.0703 205.147 75.2168 204.913C75.2559 204.845 75.2998 204.771 75.3486 204.693C75.3975 204.605 75.4463 204.532 75.4951 204.474C75.5342 204.425 75.5684 204.386 75.5977 204.356C75.627 204.327 75.6611 204.288 75.7002 204.239C75.71 204.22 75.7295 204.2 75.7588 204.181C75.7881 204.151 75.8027 204.132 75.8027 204.122C75.9102 204.015 76.0078 203.902 76.0957 203.785C76.1836 203.668 76.2666 203.551 76.3447 203.434C76.3643 203.404 76.3936 203.37 76.4326 203.331C76.4717 203.282 76.5107 203.238 76.5498 203.199C76.5986 203.15 76.6475 203.116 76.6963 203.097C76.7451 203.067 76.7891 203.062 76.8281 203.082C76.877 203.082 76.9209 203.082 76.96 203.082C77.0088 203.082 77.0576 203.087 77.1064 203.097C77.1553 203.175 77.1895 203.238 77.209 203.287C77.2383 203.336 77.2529 203.39 77.2529 203.448C77.2627 203.497 77.2627 203.556 77.2529 203.624C77.2529 203.683 77.2529 203.756 77.2529 203.844C77.2041 203.883 77.1504 203.922 77.0918 203.961C77.0332 204 76.9746 204.039 76.916 204.078C76.8965 204.098 76.8623 204.161 76.8135 204.269C76.7744 204.376 76.7305 204.498 76.6816 204.635C76.6426 204.762 76.6035 204.889 76.5645 205.016C76.5352 205.133 76.5156 205.206 76.5059 205.235C76.4473 205.489 76.3447 205.743 76.1982 205.997C76.0615 206.251 75.9053 206.471 75.7295 206.656L75.7148 206.7C75.7832 206.769 75.8418 206.837 75.8906 206.905C75.9492 206.964 76.0078 207.022 76.0664 207.081C76.1836 207.081 76.2959 207.066 76.4033 207.037C76.4521 207.076 76.501 207.115 76.5498 207.154C76.6084 207.193 76.6572 207.237 76.6963 207.286C76.8232 207.286 76.9355 207.286 77.0332 207.286C77.1406 207.286 77.2383 207.281 77.3262 207.271C77.4238 207.262 77.5215 207.242 77.6191 207.213C77.7168 207.184 77.8193 207.135 77.9268 207.066C77.9658 207.047 78.0244 207.013 78.1025 206.964C78.1807 206.905 78.2441 206.876 78.293 206.876L78.8203 206.788C78.9082 206.749 78.9912 206.705 79.0693 206.656C79.1572 206.598 79.2402 206.544 79.3184 206.495C79.3672 206.466 79.4209 206.441 79.4795 206.422C79.5479 206.393 79.6064 206.368 79.6553 206.349C79.958 206.212 80.2168 206.031 80.4316 205.807C80.6562 205.582 80.8857 205.357 81.1201 205.133C81.3057 204.957 81.4814 204.757 81.6475 204.532C81.8232 204.298 81.9648 204.068 82.0723 203.844C82.1406 203.678 82.2188 203.512 82.3066 203.346C82.3945 203.17 82.4922 203.014 82.5996 202.877C82.6777 202.789 82.79 202.716 82.9365 202.657C83.083 202.599 83.2148 202.56 83.332 202.54C83.4102 202.521 83.4834 202.55 83.5518 202.628C83.6201 202.696 83.6543 202.765 83.6543 202.833C83.6641 203.019 83.6592 203.175 83.6396 203.302C83.6201 203.429 83.5859 203.546 83.5371 203.653C83.4883 203.751 83.4248 203.854 83.3467 203.961C83.2686 204.059 83.1709 204.181 83.0537 204.327L82.7168 204.767C82.707 204.786 82.707 204.801 82.7168 204.811C82.7363 204.82 82.751 204.835 82.7607 204.854C82.7705 204.874 82.7705 204.908 82.7607 204.957C82.751 204.996 82.7363 205.045 82.7168 205.104C82.6973 205.162 82.6777 205.216 82.6582 205.265C82.6387 205.313 82.624 205.343 82.6143 205.353C82.6045 205.353 82.5947 205.367 82.585 205.396C82.5752 205.416 82.5605 205.436 82.541 205.455L82.4824 205.543C82.3555 205.729 82.248 205.914 82.1602 206.1C82.082 206.275 82.0527 206.476 82.0723 206.7C82.0723 206.788 82.0479 206.866 81.999 206.935C81.96 207.003 81.9111 207.076 81.8525 207.154C81.7939 207.223 81.7354 207.306 81.6768 207.403C81.6182 207.501 81.5791 207.633 81.5596 207.799C81.5498 207.838 81.5449 207.872 81.5449 207.901C81.5449 207.921 81.54 207.936 81.5303 207.945C81.5303 207.955 81.5303 207.965 81.5303 207.975V208.004C81.4814 208.199 81.4277 208.37 81.3691 208.517C81.3105 208.653 81.2422 208.819 81.1641 209.015C81.1738 209.015 81.2031 208.99 81.252 208.941C81.3105 208.893 81.374 208.844 81.4424 208.795C81.5205 208.746 81.5986 208.702 81.6768 208.663C81.7646 208.624 81.8477 208.619 81.9258 208.648C81.9844 208.668 82.0527 208.678 82.1309 208.678C82.209 208.668 82.2822 208.653 82.3506 208.634C82.4287 208.614 82.4922 208.6 82.541 208.59C82.5898 208.57 82.6191 208.561 82.6289 208.561C82.7168 208.561 82.7998 208.561 82.8779 208.561C82.9561 208.561 83.0342 208.565 83.1123 208.575C83.1221 208.585 83.1514 208.59 83.2002 208.59C83.2588 208.59 83.3223 208.595 83.3906 208.604C83.4688 208.614 83.542 208.624 83.6104 208.634C83.6885 208.644 83.7471 208.658 83.7861 208.678ZM79.3623 210.67C79.333 210.699 79.2793 210.753 79.2012 210.831C79.123 210.919 79.0352 211.002 78.9375 211.08C78.8496 211.168 78.7617 211.236 78.6738 211.285C78.5859 211.344 78.5225 211.363 78.4834 211.344L78.3662 211.402C78.2686 211.451 78.2051 211.52 78.1758 211.607C78.1465 211.695 78.1172 211.788 78.0879 211.886C78.0684 211.983 78.0391 212.076 78 212.164C77.9707 212.252 77.9023 212.32 77.7949 212.369C77.668 212.311 77.5752 212.267 77.5166 212.237C77.4678 212.208 77.4238 212.198 77.3848 212.208C77.3457 212.218 77.3018 212.252 77.2529 212.311C77.2041 212.379 77.1211 212.477 77.0039 212.604C76.7305 212.916 76.4521 213.224 76.1689 213.526C75.8955 213.839 75.6172 214.151 75.334 214.464C75.2656 214.659 75.1826 214.859 75.085 215.064C74.9775 215.27 74.8701 215.47 74.7627 215.665C74.6455 215.87 74.543 216.104 74.4551 216.368C74.3672 216.632 74.2939 216.9 74.2354 217.174C74.167 217.457 74.1133 217.74 74.0742 218.023C74.0254 218.307 73.9863 218.57 73.957 218.814C73.9668 218.834 74.001 218.839 74.0596 218.829C74.1182 218.829 74.1816 218.819 74.25 218.8C74.3086 218.79 74.3672 218.775 74.4258 218.756C74.4844 218.746 74.5234 218.736 74.543 218.727C74.5527 218.727 74.5771 218.707 74.6162 218.668C74.6553 218.629 74.6992 218.585 74.748 218.536C74.7871 218.487 74.8262 218.438 74.8652 218.39C74.8945 218.351 74.9092 218.326 74.9092 218.316C74.9482 218.297 75.0166 218.268 75.1143 218.229C75.2119 218.189 75.2803 218.17 75.3193 218.17C75.3389 218.17 75.3535 218.131 75.3633 218.053C75.3633 217.975 75.3633 217.926 75.3633 217.906V217.657C75.3438 217.638 75.3389 217.584 75.3486 217.496C75.3486 217.408 75.3486 217.354 75.3486 217.335C75.4561 217.286 75.5586 217.237 75.6562 217.188C75.7637 217.14 75.8711 217.086 75.9785 217.027C76.0078 216.939 76.042 216.847 76.0811 216.749C76.1201 216.661 76.1641 216.573 76.2129 216.485C76.4082 216.114 76.5938 215.743 76.7695 215.372C76.9453 215.011 77.1455 214.645 77.3701 214.273C77.5361 214 77.6924 213.722 77.8389 213.438C77.9951 213.165 78.1562 212.887 78.3223 212.604C78.332 212.584 78.3516 212.545 78.3809 212.486C78.4199 212.428 78.459 212.369 78.498 212.311C78.5469 212.252 78.5908 212.198 78.6299 212.149C78.6787 212.11 78.7178 212.091 78.7471 212.091C78.7959 212.091 78.8252 212.052 78.835 211.974C78.8447 211.905 78.8496 211.856 78.8496 211.827C78.8496 211.788 78.874 211.705 78.9229 211.578C78.9814 211.461 79.04 211.334 79.0986 211.197C79.167 211.07 79.2256 210.953 79.2744 210.846C79.333 210.738 79.3623 210.68 79.3623 210.67ZM101.291 205.411C101.271 205.655 101.203 205.875 101.086 206.07C100.979 206.266 100.842 206.441 100.676 206.598C100.51 206.754 100.329 206.896 100.134 207.022C99.9385 207.149 99.748 207.267 99.5625 207.374C99.4746 207.335 99.3867 207.34 99.2988 207.389C99.2207 207.438 99.1377 207.491 99.0498 207.55C98.9619 207.599 98.8691 207.638 98.7715 207.667C98.6836 207.687 98.5908 207.652 98.4932 207.564C98.415 207.73 98.3174 207.813 98.2002 207.813C98.0928 207.804 97.9756 207.789 97.8486 207.77C97.7314 207.74 97.6191 207.735 97.5117 207.755C97.4043 207.765 97.3213 207.872 97.2627 208.077L97.1602 207.96C96.9844 208.067 96.8135 208.209 96.6475 208.385C96.4814 208.551 96.3057 208.712 96.1201 208.868C95.9443 209.024 95.7539 209.151 95.5488 209.249C95.3535 209.347 95.1436 209.371 94.9189 209.322C94.8604 209.439 94.7773 209.498 94.6699 209.498C94.5723 209.498 94.4697 209.464 94.3623 209.396C94.2549 209.327 94.1523 209.249 94.0547 209.161C93.957 209.073 93.8838 209 93.835 208.941C93.7861 209.02 93.7324 209.054 93.6738 209.044C93.625 209.034 93.5713 209.01 93.5127 208.971C93.4541 208.922 93.3955 208.873 93.3369 208.824C93.2783 208.775 93.2148 208.756 93.1465 208.766C93.0098 208.355 92.8291 208.014 92.6045 207.74C92.3896 207.457 92.1455 207.169 91.8721 206.876C91.8428 206.983 91.7988 207.081 91.7402 207.169C91.6914 207.257 91.6377 207.345 91.5791 207.433C91.5303 207.511 91.4814 207.594 91.4326 207.682C91.3936 207.77 91.3691 207.872 91.3594 207.989L91.2715 208.106C91.3789 208.263 91.4131 208.395 91.374 208.502C91.3447 208.6 91.2861 208.692 91.1982 208.78C91.1104 208.868 91.0273 208.961 90.9492 209.059C90.8711 209.166 90.8418 209.298 90.8613 209.454C90.793 209.513 90.7441 209.591 90.7148 209.688C90.6855 209.796 90.6562 209.908 90.627 210.025C90.6074 210.143 90.583 210.26 90.5537 210.377C90.5342 210.494 90.4951 210.597 90.4365 210.685C90.4658 210.802 90.4512 210.89 90.3926 210.948C90.3438 211.017 90.2852 211.08 90.2168 211.139C90.1387 211.207 90.0654 211.28 89.9971 211.358C89.9287 211.446 89.9043 211.559 89.9238 211.695C89.9336 211.793 89.9434 211.837 89.9531 211.827C89.9531 211.827 89.9531 211.876 89.9531 211.974C89.9531 212.11 89.9189 212.242 89.8506 212.369C89.7725 212.506 89.6553 212.584 89.499 212.604C89.5967 212.848 89.6357 213.033 89.6162 213.16C89.5967 213.297 89.5479 213.404 89.4697 213.482C89.3818 213.57 89.2793 213.639 89.1621 213.688C89.0449 213.746 88.9375 213.814 88.8398 213.893C88.7324 213.971 88.6494 214.073 88.5908 214.2C88.5322 214.337 88.5225 214.518 88.5615 214.742C88.6006 214.996 88.5664 215.191 88.459 215.328C88.3516 215.465 88.2344 215.592 88.1074 215.709C87.9805 215.836 87.8779 215.973 87.7998 216.119C87.7119 216.266 87.7168 216.476 87.8145 216.749C87.7852 216.866 87.7461 216.935 87.6973 216.954C87.6387 216.974 87.5801 216.969 87.5215 216.939C87.4629 216.92 87.3994 216.891 87.3311 216.852C87.2627 216.812 87.1992 216.793 87.1406 216.793C87.1406 216.715 87.1211 216.642 87.082 216.573C87.043 216.505 87.0039 216.437 86.9648 216.368C86.9258 216.3 86.9062 216.231 86.9062 216.163C86.8965 216.095 86.9258 216.017 86.9941 215.929C86.9062 215.841 86.8623 215.738 86.8623 215.621C86.8525 215.504 86.8672 215.377 86.9062 215.24C86.9355 215.113 86.9746 214.986 87.0234 214.859C87.0625 214.732 87.0869 214.615 87.0967 214.508C87.1943 214.391 87.2676 214.264 87.3164 214.127C87.3555 214 87.3896 213.863 87.4189 213.717C87.4385 213.58 87.4678 213.443 87.5068 213.307C87.5361 213.17 87.5947 213.043 87.6826 212.926C87.6143 212.711 87.6094 212.525 87.668 212.369C87.7266 212.223 87.8047 212.086 87.9023 211.959C87.9902 211.832 88.0781 211.695 88.166 211.549C88.2441 211.412 88.2686 211.241 88.2393 211.036C88.4346 210.577 88.6689 210.128 88.9424 209.688C89.2158 209.259 89.4404 208.8 89.6162 208.312C89.8408 208.087 90.0215 207.828 90.1582 207.535C90.2949 207.242 90.373 206.939 90.3926 206.627C90.5195 206.539 90.6074 206.437 90.6562 206.319C90.7148 206.192 90.7686 206.07 90.8174 205.953C90.876 205.836 90.9443 205.724 91.0225 205.616C91.1006 205.509 91.2227 205.421 91.3887 205.353C91.3496 205.216 91.335 205.108 91.3447 205.03C91.3545 204.942 91.3887 204.83 91.4473 204.693C91.5352 204.664 91.584 204.62 91.5938 204.562C91.6133 204.493 91.6182 204.425 91.6084 204.356C91.5986 204.278 91.5938 204.2 91.5938 204.122C91.5938 204.044 91.623 203.976 91.6816 203.917C91.7207 203.878 91.7402 203.858 91.7402 203.858C91.75 203.849 91.7549 203.844 91.7549 203.844C91.7549 203.844 91.7598 203.844 91.7695 203.844C91.7793 203.834 91.7988 203.81 91.8281 203.771C91.8867 203.692 91.9404 203.604 91.9893 203.507C92.0381 203.399 92.0918 203.302 92.1504 203.214C92.209 203.126 92.2773 203.058 92.3555 203.009C92.4434 202.95 92.5557 202.936 92.6924 202.965C92.751 203.014 92.7998 203.077 92.8389 203.155C92.8779 203.233 92.9121 203.312 92.9414 203.39C92.9805 203.468 93.0244 203.531 93.0732 203.58C93.1221 203.629 93.1904 203.644 93.2783 203.624C93.3174 203.624 93.3613 203.609 93.4102 203.58C93.5371 203.492 93.6592 203.399 93.7764 203.302C93.9033 203.204 94.0254 203.102 94.1426 202.994C94.2207 203.082 94.2891 203.121 94.3477 203.111C94.416 203.092 94.4795 203.058 94.5381 203.009C94.6064 202.95 94.6748 202.892 94.7432 202.833C94.8213 202.774 94.9092 202.74 95.0068 202.73C95.4268 202.691 95.7881 202.726 96.0908 202.833C96.4033 202.94 96.7012 203.155 96.9844 203.478C97.0332 203.536 97.0869 203.604 97.1455 203.683C97.2139 203.751 97.2676 203.824 97.3066 203.902C97.3848 204.049 97.4287 204.234 97.4385 204.459C97.458 204.684 97.458 204.923 97.4385 205.177C97.4287 205.421 97.4141 205.665 97.3945 205.909C97.375 206.144 97.3652 206.349 97.3652 206.524L97.8779 206.935C98.5127 206.827 99.1182 206.656 99.6943 206.422C100.271 206.188 100.803 205.851 101.291 205.411ZM96.5889 206.363C96.4717 206.197 96.418 206.036 96.4277 205.88C96.4473 205.724 96.4766 205.567 96.5156 205.411C96.5645 205.255 96.6035 205.104 96.6328 204.957C96.6621 204.801 96.6377 204.645 96.5596 204.488C96.4912 204.352 96.4229 204.225 96.3545 204.107C96.2861 203.99 96.2129 203.873 96.1348 203.756C95.8809 203.6 95.6465 203.546 95.4316 203.595C95.2168 203.634 95.002 203.712 94.7871 203.829C94.582 203.946 94.3721 204.068 94.1572 204.195C93.9424 204.312 93.708 204.366 93.4541 204.356C93.376 204.464 93.293 204.557 93.2051 204.635C93.1172 204.703 93.0244 204.767 92.9268 204.825C92.8389 204.884 92.7412 204.942 92.6338 205.001C92.5361 205.05 92.4385 205.113 92.3408 205.191C92.2627 205.465 92.2822 205.68 92.3994 205.836C92.5166 205.982 92.6729 206.114 92.8682 206.231C93.0635 206.339 93.2637 206.451 93.4688 206.568C93.6738 206.686 93.8203 206.852 93.9082 207.066C94.0938 206.969 94.2695 206.944 94.4355 206.993C94.6016 207.032 94.7627 207.081 94.9189 207.14C95.085 207.188 95.2412 207.213 95.3877 207.213C95.5439 207.213 95.6953 207.125 95.8418 206.949C95.9395 207.027 96.0273 207.052 96.1055 207.022C96.1836 206.983 96.2471 206.93 96.2959 206.861C96.3545 206.783 96.4033 206.695 96.4424 206.598C96.4912 206.5 96.54 206.422 96.5889 206.363ZM95.7246 208.048C95.6758 208.048 95.6172 208.053 95.5488 208.062C95.4902 208.062 95.4463 208.028 95.417 207.96L95.3291 208.077C95.2412 208.106 95.1582 208.106 95.0801 208.077C95.002 208.038 94.9189 208.009 94.8311 207.989C94.7334 208.038 94.626 208.058 94.5088 208.048C94.4014 208.028 94.2891 207.994 94.1719 207.945C94.0645 207.896 93.957 207.843 93.8496 207.784C93.7422 207.726 93.6445 207.677 93.5566 207.638C93.5762 207.804 93.6201 207.916 93.6885 207.975C93.7666 208.023 93.8545 208.062 93.9521 208.092C94.0498 208.121 94.1475 208.155 94.2451 208.194C94.3428 208.233 94.4209 208.321 94.4795 208.458C94.7236 208.517 94.9482 208.521 95.1533 208.473C95.3682 208.414 95.5586 208.272 95.7246 208.048ZM110.021 204.195C110.031 204.342 110.002 204.483 109.934 204.62C109.875 204.757 109.821 204.879 109.772 204.986L109.304 205.484L109.025 206.319C108.918 206.397 108.801 206.476 108.674 206.554C108.557 206.622 108.449 206.695 108.352 206.773C108.244 206.861 108.146 206.959 108.059 207.066C107.98 207.174 107.893 207.267 107.795 207.345C107.697 207.423 107.58 207.491 107.443 207.55C107.316 207.599 107.199 207.657 107.092 207.726C106.896 207.843 106.711 207.965 106.535 208.092C106.369 208.219 106.193 208.341 106.008 208.458C105.959 208.478 105.92 208.502 105.891 208.531C105.871 208.551 105.837 208.57 105.788 208.59C105.759 208.609 105.632 208.648 105.407 208.707C105.183 208.766 104.934 208.834 104.66 208.912C104.396 208.98 104.147 209.044 103.913 209.103C103.679 209.161 103.547 209.19 103.518 209.19C103.342 209.21 103.161 209.22 102.976 209.22C102.79 209.22 102.604 209.225 102.419 209.234L102.199 209.366C102.092 209.288 101.975 209.215 101.848 209.146C101.721 209.078 101.613 209.005 101.525 208.927C101.428 208.839 101.33 208.741 101.232 208.634C101.135 208.517 101.047 208.409 100.969 208.312C100.92 208.175 100.871 208.043 100.822 207.916C100.773 207.779 100.734 207.647 100.705 207.521L100.632 206.964C100.612 206.778 100.593 206.598 100.573 206.422C100.563 206.246 100.549 206.065 100.529 205.88C100.695 205.421 100.842 204.962 100.969 204.503C101.105 204.034 101.271 203.575 101.467 203.126C101.516 203.019 101.56 202.911 101.599 202.804C101.647 202.687 101.696 202.574 101.745 202.467C101.804 202.35 101.867 202.242 101.936 202.145C102.004 202.037 102.062 201.93 102.111 201.822C102.16 201.705 102.199 201.588 102.229 201.471C102.258 201.344 102.297 201.227 102.346 201.119C102.375 201.061 102.424 200.978 102.492 200.87C102.561 200.753 102.634 200.636 102.712 200.519C102.79 200.392 102.863 200.27 102.932 200.152C103.01 200.035 103.073 199.942 103.122 199.874C103.2 199.776 103.278 199.684 103.356 199.596C103.435 199.508 103.498 199.41 103.547 199.303C103.645 199.137 103.737 198.927 103.825 198.673C103.913 198.419 104.011 198.194 104.118 197.999C104.235 197.784 104.372 197.584 104.528 197.398C104.694 197.203 104.846 197.003 104.982 196.798C105.129 196.593 105.271 196.368 105.407 196.124L106.052 195.655L106.345 195.948L107.048 195.831L107.487 196.49C107.468 196.637 107.443 196.803 107.414 196.988C107.395 197.174 107.375 197.364 107.355 197.56C107.346 197.745 107.336 197.931 107.326 198.116C107.326 198.292 107.336 198.448 107.355 198.585C107.307 198.761 107.233 198.946 107.136 199.142C107.048 199.327 106.945 199.488 106.828 199.625L106.77 200.416L106.184 200.943L106.11 201.69L105.612 202.276C105.583 202.413 105.554 202.555 105.524 202.701C105.495 202.838 105.456 202.97 105.407 203.097C105.358 203.214 105.3 203.336 105.231 203.463C105.163 203.58 105.095 203.702 105.026 203.829C104.831 203.995 104.631 204.181 104.426 204.386C104.221 204.591 104.035 204.796 103.869 205.001C103.781 205.108 103.698 205.226 103.62 205.353C103.552 205.47 103.479 205.582 103.4 205.689C103.146 206.012 102.873 206.314 102.58 206.598C102.287 206.881 101.999 207.174 101.716 207.477L102.038 208.048C102.243 208.116 102.453 208.18 102.668 208.238C102.883 208.297 103.098 208.351 103.312 208.399C103.41 208.38 103.522 208.36 103.649 208.341C103.776 208.312 103.908 208.282 104.045 208.253C104.182 208.214 104.313 208.175 104.44 208.136C104.577 208.097 104.689 208.058 104.777 208.019C104.973 207.94 105.197 207.828 105.451 207.682C105.705 207.525 105.92 207.389 106.096 207.271C106.408 207.076 106.726 206.876 107.048 206.671C107.37 206.466 107.678 206.251 107.971 206.026C108.166 205.88 108.371 205.694 108.586 205.47C108.801 205.245 109.001 205.035 109.187 204.84C109.382 204.635 109.553 204.469 109.699 204.342C109.855 204.215 109.963 204.166 110.021 204.195ZM106.037 197.267C105.832 197.608 105.612 197.94 105.378 198.263C105.153 198.575 104.943 198.902 104.748 199.244C104.68 199.361 104.621 199.483 104.572 199.61C104.523 199.728 104.46 199.845 104.382 199.962C104.313 200.069 104.24 200.177 104.162 200.284C104.084 200.392 104.016 200.509 103.957 200.636C103.84 200.86 103.732 201.1 103.635 201.354C103.547 201.598 103.449 201.837 103.342 202.071C103.225 202.306 103.088 202.525 102.932 202.73C102.775 202.936 102.634 203.155 102.507 203.39L102.272 203.858C102.253 203.907 102.233 203.946 102.214 203.976C102.194 203.995 102.175 204.029 102.155 204.078C102.116 204.186 102.097 204.303 102.097 204.43C102.097 204.557 102.082 204.674 102.053 204.781C102.023 204.898 101.979 205.011 101.921 205.118C101.862 205.226 101.809 205.333 101.76 205.44C101.711 205.548 101.672 205.66 101.643 205.777C101.613 205.885 101.579 205.992 101.54 206.1C101.618 206.021 101.701 205.953 101.789 205.895C101.887 205.826 101.979 205.753 102.067 205.675C102.155 205.587 102.238 205.494 102.316 205.396C102.395 205.299 102.482 205.211 102.58 205.133C102.668 205.055 102.761 204.986 102.858 204.928C102.966 204.859 103.068 204.791 103.166 204.723C103.322 204.508 103.459 204.288 103.576 204.063C103.635 203.956 103.684 203.834 103.723 203.697C103.771 203.561 103.83 203.438 103.898 203.331C103.957 203.224 104.03 203.121 104.118 203.023C104.216 202.926 104.299 202.823 104.367 202.716C104.445 202.608 104.509 202.496 104.558 202.379C104.616 202.262 104.68 202.149 104.748 202.042C104.885 201.827 105.036 201.622 105.202 201.427L105.275 200.504L105.803 199.889L105.876 199.332L106.242 198.819L106.286 197.999L106.037 197.267ZM118.4 207.462C118.264 207.696 118.156 207.887 118.078 208.033C118.01 208.17 117.937 208.287 117.858 208.385C117.79 208.473 117.707 208.556 117.609 208.634C117.521 208.702 117.395 208.79 117.229 208.897C117.121 208.995 117.014 209.078 116.906 209.146C116.818 209.215 116.73 209.273 116.643 209.322C116.564 209.371 116.501 209.396 116.452 209.396C116.433 209.396 116.413 209.391 116.394 209.381C116.374 209.381 116.354 209.381 116.335 209.381C116.276 209.381 116.218 209.381 116.159 209.381C116.11 209.391 116.066 209.356 116.027 209.278C115.998 209.308 115.974 209.342 115.954 209.381C115.935 209.42 115.915 209.454 115.896 209.483C115.876 209.522 115.847 209.552 115.808 209.571C115.778 209.591 115.734 209.591 115.676 209.571L115.603 209.483L115.383 209.674C115.109 209.537 114.846 209.42 114.592 209.322C114.348 209.234 114.128 209.127 113.933 209C113.737 208.873 113.571 208.712 113.435 208.517C113.298 208.312 113.2 208.033 113.142 207.682C113.093 207.623 113.039 207.574 112.98 207.535C112.922 207.486 112.854 207.472 112.775 207.491C112.678 207.657 112.561 207.799 112.424 207.916C112.287 208.033 112.15 208.16 112.014 208.297C111.965 208.346 111.926 208.399 111.896 208.458C111.867 208.517 111.828 208.57 111.779 208.619C111.701 208.707 111.608 208.771 111.501 208.81C111.394 208.839 111.286 208.868 111.179 208.897C111.071 208.927 110.969 208.976 110.871 209.044C110.783 209.112 110.72 209.229 110.681 209.396C110.563 209.327 110.446 209.308 110.329 209.337C110.241 209.356 110.148 209.376 110.051 209.396C109.953 209.425 109.855 209.439 109.758 209.439C109.67 209.449 109.582 209.439 109.494 209.41C109.406 209.381 109.328 209.317 109.26 209.22C109.123 209.278 108.996 209.273 108.879 209.205C108.762 209.146 108.649 209.063 108.542 208.956C108.444 208.839 108.347 208.717 108.249 208.59C108.151 208.463 108.059 208.37 107.971 208.312C107.912 208.155 107.917 208.023 107.985 207.916C108.044 207.799 108.112 207.691 108.19 207.594C108.259 207.486 108.308 207.384 108.337 207.286C108.366 207.179 108.322 207.052 108.205 206.905C108.303 206.759 108.391 206.607 108.469 206.451C108.547 206.285 108.625 206.124 108.703 205.968C108.791 205.802 108.879 205.646 108.967 205.499C109.064 205.343 109.182 205.211 109.318 205.104C109.26 205.035 109.23 204.972 109.23 204.913C109.23 204.845 109.245 204.781 109.274 204.723C109.304 204.654 109.338 204.591 109.377 204.532C109.416 204.464 109.445 204.4 109.465 204.342L109.89 204.137L109.787 203.785C109.895 203.805 109.973 203.8 110.021 203.771C110.08 203.741 110.119 203.697 110.139 203.639C110.168 203.58 110.188 203.517 110.197 203.448C110.217 203.37 110.241 203.302 110.271 203.243C110.319 203.155 110.393 203.092 110.49 203.053C110.695 202.896 110.896 202.73 111.091 202.555C111.296 202.379 111.496 202.208 111.691 202.042C111.896 201.876 112.106 201.72 112.321 201.573C112.536 201.417 112.771 201.285 113.024 201.178C113.2 201.207 113.337 201.261 113.435 201.339C113.542 201.417 113.62 201.51 113.669 201.617C113.728 201.725 113.771 201.847 113.801 201.983C113.83 202.11 113.859 202.237 113.889 202.364C113.938 202.53 113.996 202.672 114.064 202.789C114.133 202.906 114.25 203.004 114.416 203.082C114.279 203.316 114.226 203.551 114.255 203.785C114.284 204.01 114.313 204.249 114.343 204.503C114.372 204.737 114.367 204.967 114.328 205.191C114.299 205.416 114.157 205.616 113.903 205.792C113.884 205.86 113.879 205.934 113.889 206.012C113.898 206.09 113.903 206.168 113.903 206.246C113.903 206.324 113.889 206.397 113.859 206.466C113.83 206.534 113.776 206.588 113.698 206.627C113.786 206.734 113.83 206.842 113.83 206.949C113.84 207.057 113.845 207.159 113.845 207.257C113.854 207.354 113.879 207.442 113.918 207.521C113.967 207.599 114.074 207.657 114.24 207.696C114.27 207.823 114.294 207.921 114.313 207.989C114.343 208.048 114.372 208.097 114.401 208.136C114.44 208.175 114.489 208.214 114.548 208.253C114.606 208.282 114.685 208.331 114.782 208.399C114.86 208.419 114.948 208.419 115.046 208.399C115.144 208.38 115.222 208.409 115.28 208.487C115.329 208.438 115.388 208.414 115.456 208.414C115.524 208.404 115.588 208.404 115.646 208.414L115.837 208.736C115.944 208.658 116.066 208.59 116.203 208.531C116.34 208.473 116.472 208.424 116.599 208.385C116.745 208.346 116.892 208.312 117.038 208.282L118.4 207.462ZM112.775 202.452C112.688 202.53 112.58 202.608 112.453 202.687C112.326 202.765 112.199 202.848 112.072 202.936C111.955 203.023 111.853 203.121 111.765 203.229C111.677 203.326 111.623 203.443 111.604 203.58C111.379 203.619 111.223 203.712 111.135 203.858C111.047 204.005 110.974 204.166 110.915 204.342C110.856 204.518 110.793 204.693 110.725 204.869C110.656 205.035 110.534 205.167 110.358 205.265C110.3 205.304 110.246 205.323 110.197 205.323C110.207 205.323 110.178 205.343 110.109 205.382C110.002 205.46 109.909 205.558 109.831 205.675C109.753 205.792 109.685 205.919 109.626 206.056C109.577 206.192 109.528 206.334 109.479 206.48C109.44 206.617 109.401 206.744 109.362 206.861C109.226 206.881 109.123 206.91 109.055 206.949C108.986 206.988 108.942 207.032 108.923 207.081C108.913 207.12 108.918 207.169 108.938 207.228C108.957 207.286 108.986 207.35 109.025 207.418C109.064 207.477 109.104 207.545 109.143 207.623C109.191 207.701 109.23 207.779 109.26 207.857C109.289 207.936 109.304 208.014 109.304 208.092C109.313 208.17 109.294 208.243 109.245 208.312C109.382 208.419 109.514 208.443 109.641 208.385C109.768 208.316 109.885 208.243 109.992 208.165C110.031 208.136 110.07 208.106 110.109 208.077C110.158 208.038 110.207 208.009 110.256 207.989C110.48 208.038 110.686 208.023 110.871 207.945C111.057 207.867 111.228 207.76 111.384 207.623C111.54 207.486 111.691 207.34 111.838 207.184C111.984 207.027 112.131 206.891 112.277 206.773L112.16 206.656C112.336 206.607 112.458 206.544 112.526 206.466C112.604 206.378 112.653 206.28 112.673 206.173C112.692 206.065 112.692 205.953 112.673 205.836C112.653 205.709 112.639 205.577 112.629 205.44C112.619 205.362 112.614 205.289 112.614 205.221C112.624 205.143 112.644 205.064 112.673 204.986C112.595 204.762 112.58 204.547 112.629 204.342C112.688 204.137 112.761 203.941 112.849 203.756C112.946 203.561 113.039 203.365 113.127 203.17C113.215 202.975 113.259 202.77 113.259 202.555L112.775 202.452ZM126.384 208.678C126.442 208.717 126.467 208.751 126.457 208.78C126.447 208.81 126.423 208.839 126.384 208.868C126.354 208.897 126.315 208.922 126.267 208.941C126.218 208.951 126.179 208.961 126.149 208.971L125.71 209.059C125.339 209.137 124.987 209.244 124.655 209.381C124.323 209.527 123.986 209.669 123.645 209.806C123.605 209.757 123.552 209.723 123.483 209.703C123.425 209.684 123.371 209.703 123.322 209.762C123.332 209.791 123.337 209.835 123.337 209.894C123.337 210.011 123.332 210.104 123.322 210.172C123.312 210.25 123.293 210.318 123.264 210.377C123.244 210.436 123.21 210.489 123.161 210.538C123.112 210.597 123.049 210.665 122.971 210.743C122.873 210.841 122.888 210.89 123.015 210.89C122.946 210.978 122.873 211.026 122.795 211.036C122.775 211.046 122.746 211.051 122.707 211.051C122.688 211.051 122.668 211.056 122.648 211.065C122.639 211.085 122.648 211.124 122.678 211.183C122.707 211.251 122.727 211.295 122.736 211.314C122.736 211.324 122.722 211.349 122.692 211.388C122.663 211.427 122.634 211.466 122.604 211.505C122.575 211.554 122.551 211.598 122.531 211.637C122.512 211.686 122.512 211.725 122.531 211.754V211.871C122.58 211.891 122.58 211.905 122.531 211.915C122.492 211.935 122.468 211.944 122.458 211.944C122.448 211.944 122.419 211.964 122.37 212.003C122.321 212.052 122.297 212.081 122.297 212.091C122.277 212.11 122.253 212.12 122.224 212.12C122.204 212.13 122.18 212.145 122.15 212.164C122.141 212.164 122.126 212.179 122.106 212.208C122.097 212.247 122.087 212.286 122.077 212.325C122.067 212.364 122.058 212.403 122.048 212.442C122.038 212.481 122.038 212.506 122.048 212.516C122.048 212.643 122.033 212.75 122.004 212.838C121.984 212.926 121.96 213.033 121.931 213.16C121.892 213.316 121.833 213.424 121.755 213.482C121.687 213.551 121.613 213.609 121.535 213.658C121.457 213.717 121.379 213.78 121.301 213.849C121.232 213.917 121.179 214.029 121.14 214.186C121.13 214.225 121.12 214.259 121.11 214.288C121.101 214.308 121.096 214.332 121.096 214.361V214.391C121.057 214.459 121.022 214.513 120.993 214.552C120.974 214.601 120.954 214.645 120.935 214.684C120.915 214.723 120.9 214.767 120.891 214.815C120.881 214.864 120.876 214.923 120.876 214.991C120.896 215.021 120.896 215.064 120.876 215.123C120.866 215.182 120.847 215.24 120.817 215.299C120.788 215.357 120.754 215.416 120.715 215.475C120.686 215.533 120.661 215.577 120.642 215.606C120.612 215.655 120.578 215.704 120.539 215.753C120.5 215.802 120.461 215.851 120.422 215.899C120.217 216.183 120.046 216.461 119.909 216.734C119.704 217.145 119.455 217.535 119.162 217.906C119.104 217.975 119.035 218.048 118.957 218.126C118.889 218.204 118.835 218.282 118.796 218.36V218.463C118.796 218.658 118.742 218.805 118.635 218.902C118.527 219 118.396 219.093 118.239 219.181C118.19 219.22 118.137 219.259 118.078 219.298C118.02 219.337 117.971 219.386 117.932 219.444C117.873 219.522 117.795 219.62 117.697 219.737C117.59 219.854 117.492 219.938 117.404 219.986C117.385 219.986 117.321 219.981 117.214 219.972C117.106 219.962 117.043 219.957 117.023 219.957C117.004 219.967 116.975 219.986 116.936 220.016C116.887 220.045 116.838 220.074 116.789 220.104C116.74 220.133 116.691 220.157 116.643 220.177C116.594 220.196 116.564 220.201 116.555 220.191C116.496 220.162 116.447 220.147 116.408 220.147C116.389 220.147 116.369 220.157 116.35 220.177C116.32 220.206 116.296 220.23 116.276 220.25C116.198 220.23 116.14 220.221 116.101 220.221C116.081 220.221 116.052 220.201 116.013 220.162C115.964 220.123 115.92 220.074 115.881 220.016C115.832 219.967 115.793 219.918 115.764 219.869C115.725 219.82 115.7 219.786 115.69 219.767C115.622 219.659 115.583 219.532 115.573 219.386C115.563 219.239 115.568 219.083 115.588 218.917C115.598 218.761 115.617 218.604 115.646 218.448C115.676 218.292 115.705 218.155 115.734 218.038C115.783 217.843 115.827 217.643 115.866 217.438C115.905 217.242 115.925 217.047 115.925 216.852C115.925 216.803 115.935 216.764 115.954 216.734C115.974 216.705 115.993 216.676 116.013 216.646C116.032 216.627 116.037 216.603 116.027 216.573C116.018 216.554 116.008 216.534 115.998 216.515C115.988 216.485 115.998 216.427 116.027 216.339C116.057 216.251 116.096 216.153 116.145 216.046C116.184 215.948 116.228 215.851 116.276 215.753C116.315 215.665 116.345 215.606 116.364 215.577C116.56 215.226 116.74 214.854 116.906 214.464C117.062 214.073 117.268 213.722 117.521 213.409C117.668 213.233 117.814 213.058 117.961 212.882C118.107 212.706 118.249 212.521 118.386 212.325C118.444 212.247 118.493 212.188 118.532 212.149C118.591 212.071 118.679 212.008 118.796 211.959C118.913 211.91 119.025 211.896 119.133 211.915C119.143 211.915 119.187 211.886 119.265 211.827C119.353 211.769 119.401 211.734 119.411 211.725C119.45 211.598 119.514 211.461 119.602 211.314C119.689 211.178 119.777 211.056 119.865 210.948C119.924 210.88 120.002 210.831 120.1 210.802C120.197 210.772 120.3 210.743 120.407 210.714C120.524 210.685 120.637 210.646 120.744 210.597C120.852 210.558 120.949 210.484 121.037 210.377C121.105 210.299 121.193 210.206 121.301 210.099C121.418 209.991 121.53 209.918 121.638 209.879C121.735 209.898 121.867 209.884 122.033 209.835C122.209 209.786 122.326 209.718 122.385 209.63C122.434 209.562 122.458 209.449 122.458 209.293C122.458 209.215 122.487 209.117 122.546 209C122.614 208.883 122.668 208.795 122.707 208.736C122.756 208.658 122.795 208.58 122.824 208.502C122.854 208.424 122.883 208.346 122.912 208.268C122.932 208.219 122.946 208.175 122.956 208.136C122.966 208.087 122.976 208.038 122.985 207.989C122.995 207.979 123.015 207.945 123.044 207.887C123.073 207.828 123.103 207.77 123.132 207.711C123.171 207.652 123.2 207.599 123.22 207.55C123.249 207.491 123.259 207.457 123.249 207.447C123.249 207.438 123.22 207.428 123.161 207.418C123.103 207.408 123.039 207.403 122.971 207.403C122.912 207.394 122.854 207.389 122.795 207.389C122.736 207.379 122.702 207.374 122.692 207.374C122.653 207.374 122.595 207.389 122.517 207.418C122.448 207.447 122.37 207.481 122.282 207.521C122.204 207.56 122.136 207.604 122.077 207.652C122.019 207.691 121.984 207.721 121.975 207.74C121.662 207.848 121.35 207.906 121.037 207.916C120.725 207.926 120.412 207.989 120.1 208.106C119.914 208.175 119.709 208.229 119.484 208.268C119.27 208.297 119.06 208.307 118.854 208.297C118.845 208.297 118.815 208.292 118.767 208.282C118.718 208.263 118.664 208.243 118.605 208.224C118.547 208.194 118.493 208.17 118.444 208.15C118.396 208.131 118.366 208.121 118.356 208.121C118.308 208.102 118.259 208.067 118.21 208.019C118.171 207.96 118.132 207.901 118.093 207.843C118.063 207.774 118.034 207.711 118.005 207.652C117.976 207.584 117.951 207.53 117.932 207.491C117.883 207.384 117.844 207.276 117.814 207.169C117.775 207.062 117.746 206.954 117.727 206.847C117.717 206.847 117.712 206.808 117.712 206.729C117.712 206.69 117.707 206.656 117.697 206.627C117.658 206.363 117.634 206.07 117.624 205.748C117.604 205.426 117.668 205.147 117.814 204.913C117.854 204.845 117.897 204.771 117.946 204.693C117.995 204.605 118.044 204.532 118.093 204.474C118.132 204.425 118.166 204.386 118.195 204.356C118.225 204.327 118.259 204.288 118.298 204.239C118.308 204.22 118.327 204.2 118.356 204.181C118.386 204.151 118.4 204.132 118.4 204.122C118.508 204.015 118.605 203.902 118.693 203.785C118.781 203.668 118.864 203.551 118.942 203.434C118.962 203.404 118.991 203.37 119.03 203.331C119.069 203.282 119.108 203.238 119.147 203.199C119.196 203.15 119.245 203.116 119.294 203.097C119.343 203.067 119.387 203.062 119.426 203.082C119.475 203.082 119.519 203.082 119.558 203.082C119.606 203.082 119.655 203.087 119.704 203.097C119.753 203.175 119.787 203.238 119.807 203.287C119.836 203.336 119.851 203.39 119.851 203.448C119.86 203.497 119.86 203.556 119.851 203.624C119.851 203.683 119.851 203.756 119.851 203.844C119.802 203.883 119.748 203.922 119.689 203.961C119.631 204 119.572 204.039 119.514 204.078C119.494 204.098 119.46 204.161 119.411 204.269C119.372 204.376 119.328 204.498 119.279 204.635C119.24 204.762 119.201 204.889 119.162 205.016C119.133 205.133 119.113 205.206 119.104 205.235C119.045 205.489 118.942 205.743 118.796 205.997C118.659 206.251 118.503 206.471 118.327 206.656L118.312 206.7C118.381 206.769 118.439 206.837 118.488 206.905C118.547 206.964 118.605 207.022 118.664 207.081C118.781 207.081 118.894 207.066 119.001 207.037C119.05 207.076 119.099 207.115 119.147 207.154C119.206 207.193 119.255 207.237 119.294 207.286C119.421 207.286 119.533 207.286 119.631 207.286C119.738 207.286 119.836 207.281 119.924 207.271C120.021 207.262 120.119 207.242 120.217 207.213C120.314 207.184 120.417 207.135 120.524 207.066C120.563 207.047 120.622 207.013 120.7 206.964C120.778 206.905 120.842 206.876 120.891 206.876L121.418 206.788C121.506 206.749 121.589 206.705 121.667 206.656C121.755 206.598 121.838 206.544 121.916 206.495C121.965 206.466 122.019 206.441 122.077 206.422C122.146 206.393 122.204 206.368 122.253 206.349C122.556 206.212 122.814 206.031 123.029 205.807C123.254 205.582 123.483 205.357 123.718 205.133C123.903 204.957 124.079 204.757 124.245 204.532C124.421 204.298 124.562 204.068 124.67 203.844C124.738 203.678 124.816 203.512 124.904 203.346C124.992 203.17 125.09 203.014 125.197 202.877C125.275 202.789 125.388 202.716 125.534 202.657C125.681 202.599 125.812 202.56 125.93 202.54C126.008 202.521 126.081 202.55 126.149 202.628C126.218 202.696 126.252 202.765 126.252 202.833C126.262 203.019 126.257 203.175 126.237 203.302C126.218 203.429 126.184 203.546 126.135 203.653C126.086 203.751 126.022 203.854 125.944 203.961C125.866 204.059 125.769 204.181 125.651 204.327L125.314 204.767C125.305 204.786 125.305 204.801 125.314 204.811C125.334 204.82 125.349 204.835 125.358 204.854C125.368 204.874 125.368 204.908 125.358 204.957C125.349 204.996 125.334 205.045 125.314 205.104C125.295 205.162 125.275 205.216 125.256 205.265C125.236 205.313 125.222 205.343 125.212 205.353C125.202 205.353 125.192 205.367 125.183 205.396C125.173 205.416 125.158 205.436 125.139 205.455L125.08 205.543C124.953 205.729 124.846 205.914 124.758 206.1C124.68 206.275 124.65 206.476 124.67 206.7C124.67 206.788 124.646 206.866 124.597 206.935C124.558 207.003 124.509 207.076 124.45 207.154C124.392 207.223 124.333 207.306 124.274 207.403C124.216 207.501 124.177 207.633 124.157 207.799C124.147 207.838 124.143 207.872 124.143 207.901C124.143 207.921 124.138 207.936 124.128 207.945C124.128 207.955 124.128 207.965 124.128 207.975V208.004C124.079 208.199 124.025 208.37 123.967 208.517C123.908 208.653 123.84 208.819 123.762 209.015C123.771 209.015 123.801 208.99 123.85 208.941C123.908 208.893 123.972 208.844 124.04 208.795C124.118 208.746 124.196 208.702 124.274 208.663C124.362 208.624 124.445 208.619 124.523 208.648C124.582 208.668 124.65 208.678 124.729 208.678C124.807 208.668 124.88 208.653 124.948 208.634C125.026 208.614 125.09 208.6 125.139 208.59C125.188 208.57 125.217 208.561 125.227 208.561C125.314 208.561 125.397 208.561 125.476 208.561C125.554 208.561 125.632 208.565 125.71 208.575C125.72 208.585 125.749 208.59 125.798 208.59C125.856 208.59 125.92 208.595 125.988 208.604C126.066 208.614 126.14 208.624 126.208 208.634C126.286 208.644 126.345 208.658 126.384 208.678ZM121.96 210.67C121.931 210.699 121.877 210.753 121.799 210.831C121.721 210.919 121.633 211.002 121.535 211.08C121.447 211.168 121.359 211.236 121.271 211.285C121.184 211.344 121.12 211.363 121.081 211.344L120.964 211.402C120.866 211.451 120.803 211.52 120.773 211.607C120.744 211.695 120.715 211.788 120.686 211.886C120.666 211.983 120.637 212.076 120.598 212.164C120.568 212.252 120.5 212.32 120.393 212.369C120.266 212.311 120.173 212.267 120.114 212.237C120.065 212.208 120.021 212.198 119.982 212.208C119.943 212.218 119.899 212.252 119.851 212.311C119.802 212.379 119.719 212.477 119.602 212.604C119.328 212.916 119.05 213.224 118.767 213.526C118.493 213.839 118.215 214.151 117.932 214.464C117.863 214.659 117.78 214.859 117.683 215.064C117.575 215.27 117.468 215.47 117.36 215.665C117.243 215.87 117.141 216.104 117.053 216.368C116.965 216.632 116.892 216.9 116.833 217.174C116.765 217.457 116.711 217.74 116.672 218.023C116.623 218.307 116.584 218.57 116.555 218.814C116.564 218.834 116.599 218.839 116.657 218.829C116.716 218.829 116.779 218.819 116.848 218.8C116.906 218.79 116.965 218.775 117.023 218.756C117.082 218.746 117.121 218.736 117.141 218.727C117.15 218.727 117.175 218.707 117.214 218.668C117.253 218.629 117.297 218.585 117.346 218.536C117.385 218.487 117.424 218.438 117.463 218.39C117.492 218.351 117.507 218.326 117.507 218.316C117.546 218.297 117.614 218.268 117.712 218.229C117.81 218.189 117.878 218.17 117.917 218.17C117.937 218.17 117.951 218.131 117.961 218.053C117.961 217.975 117.961 217.926 117.961 217.906V217.657C117.941 217.638 117.937 217.584 117.946 217.496C117.946 217.408 117.946 217.354 117.946 217.335C118.054 217.286 118.156 217.237 118.254 217.188C118.361 217.14 118.469 217.086 118.576 217.027C118.605 216.939 118.64 216.847 118.679 216.749C118.718 216.661 118.762 216.573 118.811 216.485C119.006 216.114 119.191 215.743 119.367 215.372C119.543 215.011 119.743 214.645 119.968 214.273C120.134 214 120.29 213.722 120.437 213.438C120.593 213.165 120.754 212.887 120.92 212.604C120.93 212.584 120.949 212.545 120.979 212.486C121.018 212.428 121.057 212.369 121.096 212.311C121.145 212.252 121.188 212.198 121.228 212.149C121.276 212.11 121.315 212.091 121.345 212.091C121.394 212.091 121.423 212.052 121.433 211.974C121.442 211.905 121.447 211.856 121.447 211.827C121.447 211.788 121.472 211.705 121.521 211.578C121.579 211.461 121.638 211.334 121.696 211.197C121.765 211.07 121.823 210.953 121.872 210.846C121.931 210.738 121.96 210.68 121.96 210.67ZM137.297 204.195C137.307 204.342 137.277 204.483 137.209 204.62C137.15 204.757 137.097 204.879 137.048 204.986L136.579 205.484L136.301 206.319C136.193 206.397 136.076 206.476 135.949 206.554C135.832 206.622 135.725 206.695 135.627 206.773C135.52 206.861 135.422 206.959 135.334 207.066C135.256 207.174 135.168 207.267 135.07 207.345C134.973 207.423 134.855 207.491 134.719 207.55C134.592 207.599 134.475 207.657 134.367 207.726C134.172 207.843 133.986 207.965 133.811 208.092C133.645 208.219 133.469 208.341 133.283 208.458C133.234 208.478 133.195 208.502 133.166 208.531C133.146 208.551 133.112 208.57 133.063 208.59C133.034 208.609 132.907 208.648 132.683 208.707C132.458 208.766 132.209 208.834 131.936 208.912C131.672 208.98 131.423 209.044 131.188 209.103C130.954 209.161 130.822 209.19 130.793 209.19C130.617 209.21 130.437 209.22 130.251 209.22C130.065 209.22 129.88 209.225 129.694 209.234L129.475 209.366C129.367 209.288 129.25 209.215 129.123 209.146C128.996 209.078 128.889 209.005 128.801 208.927C128.703 208.839 128.605 208.741 128.508 208.634C128.41 208.517 128.322 208.409 128.244 208.312C128.195 208.175 128.146 208.043 128.098 207.916C128.049 207.779 128.01 207.647 127.98 207.521L127.907 206.964C127.888 206.778 127.868 206.598 127.849 206.422C127.839 206.246 127.824 206.065 127.805 205.88C127.971 205.421 128.117 204.962 128.244 204.503C128.381 204.034 128.547 203.575 128.742 203.126C128.791 203.019 128.835 202.911 128.874 202.804C128.923 202.687 128.972 202.574 129.021 202.467C129.079 202.35 129.143 202.242 129.211 202.145C129.279 202.037 129.338 201.93 129.387 201.822C129.436 201.705 129.475 201.588 129.504 201.471C129.533 201.344 129.572 201.227 129.621 201.119C129.65 201.061 129.699 200.978 129.768 200.87C129.836 200.753 129.909 200.636 129.987 200.519C130.065 200.392 130.139 200.27 130.207 200.152C130.285 200.035 130.349 199.942 130.397 199.874C130.476 199.776 130.554 199.684 130.632 199.596C130.71 199.508 130.773 199.41 130.822 199.303C130.92 199.137 131.013 198.927 131.101 198.673C131.188 198.419 131.286 198.194 131.394 197.999C131.511 197.784 131.647 197.584 131.804 197.398C131.97 197.203 132.121 197.003 132.258 196.798C132.404 196.593 132.546 196.368 132.683 196.124L133.327 195.655L133.62 195.948L134.323 195.831L134.763 196.49C134.743 196.637 134.719 196.803 134.689 196.988C134.67 197.174 134.65 197.364 134.631 197.56C134.621 197.745 134.611 197.931 134.602 198.116C134.602 198.292 134.611 198.448 134.631 198.585C134.582 198.761 134.509 198.946 134.411 199.142C134.323 199.327 134.221 199.488 134.104 199.625L134.045 200.416L133.459 200.943L133.386 201.69L132.888 202.276C132.858 202.413 132.829 202.555 132.8 202.701C132.771 202.838 132.731 202.97 132.683 203.097C132.634 203.214 132.575 203.336 132.507 203.463C132.438 203.58 132.37 203.702 132.302 203.829C132.106 203.995 131.906 204.181 131.701 204.386C131.496 204.591 131.311 204.796 131.145 205.001C131.057 205.108 130.974 205.226 130.896 205.353C130.827 205.47 130.754 205.582 130.676 205.689C130.422 206.012 130.148 206.314 129.855 206.598C129.562 206.881 129.274 207.174 128.991 207.477L129.313 208.048C129.519 208.116 129.729 208.18 129.943 208.238C130.158 208.297 130.373 208.351 130.588 208.399C130.686 208.38 130.798 208.36 130.925 208.341C131.052 208.312 131.184 208.282 131.32 208.253C131.457 208.214 131.589 208.175 131.716 208.136C131.853 208.097 131.965 208.058 132.053 208.019C132.248 207.94 132.473 207.828 132.727 207.682C132.98 207.525 133.195 207.389 133.371 207.271C133.684 207.076 134.001 206.876 134.323 206.671C134.646 206.466 134.953 206.251 135.246 206.026C135.441 205.88 135.646 205.694 135.861 205.47C136.076 205.245 136.276 205.035 136.462 204.84C136.657 204.635 136.828 204.469 136.975 204.342C137.131 204.215 137.238 204.166 137.297 204.195ZM133.312 197.267C133.107 197.608 132.888 197.94 132.653 198.263C132.429 198.575 132.219 198.902 132.023 199.244C131.955 199.361 131.896 199.483 131.848 199.61C131.799 199.728 131.735 199.845 131.657 199.962C131.589 200.069 131.516 200.177 131.438 200.284C131.359 200.392 131.291 200.509 131.232 200.636C131.115 200.86 131.008 201.1 130.91 201.354C130.822 201.598 130.725 201.837 130.617 202.071C130.5 202.306 130.363 202.525 130.207 202.73C130.051 202.936 129.909 203.155 129.782 203.39L129.548 203.858C129.528 203.907 129.509 203.946 129.489 203.976C129.47 203.995 129.45 204.029 129.431 204.078C129.392 204.186 129.372 204.303 129.372 204.43C129.372 204.557 129.357 204.674 129.328 204.781C129.299 204.898 129.255 205.011 129.196 205.118C129.138 205.226 129.084 205.333 129.035 205.44C128.986 205.548 128.947 205.66 128.918 205.777C128.889 205.885 128.854 205.992 128.815 206.1C128.894 206.021 128.977 205.953 129.064 205.895C129.162 205.826 129.255 205.753 129.343 205.675C129.431 205.587 129.514 205.494 129.592 205.396C129.67 205.299 129.758 205.211 129.855 205.133C129.943 205.055 130.036 204.986 130.134 204.928C130.241 204.859 130.344 204.791 130.441 204.723C130.598 204.508 130.734 204.288 130.852 204.063C130.91 203.956 130.959 203.834 130.998 203.697C131.047 203.561 131.105 203.438 131.174 203.331C131.232 203.224 131.306 203.121 131.394 203.023C131.491 202.926 131.574 202.823 131.643 202.716C131.721 202.608 131.784 202.496 131.833 202.379C131.892 202.262 131.955 202.149 132.023 202.042C132.16 201.827 132.312 201.622 132.478 201.427L132.551 200.504L133.078 199.889L133.151 199.332L133.518 198.819L133.562 197.999L133.312 197.267ZM139.377 199.859C139.201 199.928 139.104 200.03 139.084 200.167C139.064 200.304 139.055 200.445 139.055 200.592C139.064 200.738 139.06 200.875 139.04 201.002C139.021 201.129 138.923 201.212 138.747 201.251C138.679 201.134 138.591 201.026 138.483 200.929C138.386 200.821 138.288 200.719 138.19 200.621C138.093 200.514 138.015 200.401 137.956 200.284C137.897 200.167 137.878 200.025 137.897 199.859L138.63 199.01C138.747 199.049 138.84 199.098 138.908 199.156C138.977 199.215 139.035 199.283 139.084 199.361C139.133 199.439 139.177 199.522 139.216 199.61C139.265 199.688 139.318 199.771 139.377 199.859ZM142.219 206.422C142.229 206.637 142.209 206.788 142.16 206.876C142.121 206.964 142.072 207.037 142.014 207.096C141.955 207.145 141.901 207.203 141.853 207.271C141.813 207.33 141.794 207.438 141.794 207.594C141.569 207.838 141.389 208.019 141.252 208.136C141.115 208.243 140.983 208.336 140.856 208.414C140.729 208.482 140.588 208.561 140.432 208.648C140.275 208.736 140.061 208.873 139.787 209.059L139.685 209.073C139.655 209.22 139.602 209.303 139.523 209.322C139.455 209.352 139.372 209.366 139.274 209.366C139.187 209.366 139.099 209.376 139.011 209.396C138.923 209.415 138.85 209.498 138.791 209.645C138.625 209.693 138.483 209.713 138.366 209.703C138.249 209.693 138.098 209.688 137.912 209.688C137.854 209.688 137.775 209.684 137.678 209.674C137.59 209.664 137.517 209.669 137.458 209.688C137.419 209.698 137.375 209.723 137.326 209.762C137.287 209.811 137.243 209.85 137.194 209.879C137.146 209.908 137.097 209.918 137.048 209.908C136.999 209.908 136.955 209.869 136.916 209.791C136.799 209.82 136.691 209.82 136.594 209.791C136.496 209.762 136.403 209.713 136.315 209.645C136.228 209.576 136.145 209.493 136.066 209.396C135.998 209.308 135.93 209.225 135.861 209.146C135.812 209.088 135.759 209.034 135.7 208.985C135.642 208.937 135.588 208.888 135.539 208.839C135.432 208.731 135.354 208.595 135.305 208.429C135.256 208.263 135.227 208.092 135.217 207.916C135.207 207.74 135.212 207.564 135.231 207.389C135.251 207.213 135.28 207.057 135.319 206.92C135.407 206.832 135.471 206.734 135.51 206.627C135.539 206.51 135.563 206.393 135.583 206.275C135.612 206.158 135.642 206.046 135.671 205.938C135.71 205.821 135.773 205.719 135.861 205.631C135.861 205.504 135.881 205.387 135.92 205.279C135.969 205.172 136.027 205.069 136.096 204.972C136.174 204.874 136.257 204.786 136.345 204.708C136.442 204.62 136.53 204.537 136.608 204.459C136.687 204.459 136.765 204.459 136.843 204.459C136.921 204.449 136.994 204.454 137.062 204.474C137.131 204.483 137.189 204.513 137.238 204.562C137.287 204.601 137.326 204.669 137.355 204.767C137.424 205.03 137.404 205.245 137.297 205.411C137.199 205.567 137.087 205.719 136.96 205.865C136.833 206.012 136.73 206.163 136.652 206.319C136.574 206.476 136.594 206.676 136.711 206.92C136.604 206.92 136.53 206.949 136.491 207.008C136.462 207.066 136.438 207.135 136.418 207.213C136.408 207.281 136.389 207.35 136.359 207.418C136.33 207.486 136.271 207.535 136.184 207.564C136.242 207.623 136.271 207.726 136.271 207.872C136.281 208.019 136.296 208.16 136.315 208.297C136.345 208.424 136.389 208.526 136.447 208.604C136.516 208.683 136.638 208.688 136.813 208.619C136.94 208.727 137.092 208.771 137.268 208.751C137.453 208.731 137.624 208.727 137.78 208.736C137.917 208.648 138.034 208.604 138.132 208.604C138.229 208.595 138.322 208.604 138.41 208.634C138.498 208.653 138.591 208.673 138.688 208.692C138.786 208.712 138.903 208.697 139.04 208.648C139.079 208.482 139.147 208.385 139.245 208.355C139.343 208.326 139.44 208.312 139.538 208.312C139.636 208.302 139.724 208.282 139.802 208.253C139.89 208.224 139.948 208.126 139.978 207.96C140.056 207.862 140.148 207.809 140.256 207.799C140.363 207.779 140.471 207.76 140.578 207.74C140.695 207.721 140.798 207.682 140.886 207.623C140.983 207.555 141.052 207.428 141.091 207.242C141.257 207.115 141.374 207.022 141.442 206.964C141.521 206.896 141.584 206.842 141.633 206.803C141.682 206.764 141.745 206.72 141.823 206.671C141.901 206.622 142.033 206.539 142.219 206.422ZM151.184 205.338C151.135 205.641 151.076 205.875 151.008 206.041C150.939 206.197 150.852 206.329 150.744 206.437C150.646 206.534 150.52 206.632 150.363 206.729C150.207 206.817 150.021 206.949 149.807 207.125C149.729 207.184 149.655 207.237 149.587 207.286C149.519 207.335 149.45 207.394 149.382 207.462C149.187 207.521 148.947 207.618 148.664 207.755C148.381 207.882 148.088 208.014 147.785 208.15C147.492 208.277 147.209 208.39 146.936 208.487C146.672 208.585 146.457 208.624 146.291 208.604C146.232 208.683 146.13 208.731 145.983 208.751C145.837 208.771 145.725 208.78 145.646 208.78C145.52 208.78 145.388 208.79 145.251 208.81C145.124 208.829 145.012 208.888 144.914 208.985C144.895 209.005 144.88 209.015 144.87 209.015C144.87 209.024 144.87 209.029 144.87 209.029C144.88 209.029 144.88 209.029 144.87 209.029C144.87 209.039 144.86 209.059 144.841 209.088C144.733 209.215 144.621 209.283 144.504 209.293C144.396 209.303 144.289 209.283 144.182 209.234C144.074 209.195 143.962 209.142 143.845 209.073C143.737 209.005 143.625 208.956 143.508 208.927C143.4 208.888 143.288 208.883 143.171 208.912C143.054 208.932 142.937 209.01 142.819 209.146C142.751 208.971 142.644 208.868 142.497 208.839C142.351 208.81 142.199 208.795 142.043 208.795C141.896 208.785 141.755 208.771 141.618 208.751C141.481 208.722 141.389 208.629 141.34 208.473V208.458L141.032 208.194L140.988 208.238C140.939 208.287 140.9 208.341 140.871 208.399C140.842 208.458 140.808 208.512 140.769 208.561C140.69 208.678 140.607 208.795 140.52 208.912C140.432 209.02 140.334 209.112 140.227 209.19C140.109 209.278 139.987 209.342 139.86 209.381C139.733 209.43 139.597 209.444 139.45 209.425C139.45 209.19 139.519 208.976 139.655 208.78C139.782 208.585 139.909 208.395 140.036 208.209C140.153 208.014 140.231 207.818 140.271 207.623C140.3 207.418 140.217 207.203 140.021 206.979C140.012 206.842 139.953 206.71 139.846 206.583C139.729 206.446 139.621 206.314 139.523 206.188C139.426 206.051 139.372 205.919 139.362 205.792C139.343 205.665 139.426 205.538 139.611 205.411C139.523 205.392 139.465 205.357 139.436 205.309C139.436 205.26 139.45 205.211 139.479 205.162C139.499 205.104 139.519 205.05 139.538 205.001C139.597 205.001 139.66 204.991 139.729 204.972C139.787 204.942 139.846 204.923 139.904 204.913C139.953 204.894 140.002 204.894 140.051 204.913C140.09 204.923 140.129 204.967 140.168 205.045C140.197 205.104 140.222 205.167 140.241 205.235C140.261 205.304 140.285 205.372 140.314 205.44C140.393 205.636 140.49 205.821 140.607 205.997C140.725 206.163 140.856 206.319 141.003 206.466L141.047 206.51C141.047 206.5 141.066 206.476 141.105 206.437C141.145 206.397 141.188 206.358 141.237 206.319C141.286 206.271 141.33 206.227 141.369 206.188C141.408 206.148 141.438 206.119 141.457 206.1C141.574 205.992 141.687 205.89 141.794 205.792C141.901 205.694 141.994 205.597 142.072 205.499C142.16 205.392 142.224 205.274 142.263 205.147C142.312 205.011 142.336 204.854 142.336 204.679C142.639 204.474 142.937 204.249 143.229 204.005C143.522 203.751 143.82 203.507 144.123 203.272C144.426 203.038 144.738 202.828 145.061 202.643C145.393 202.457 145.749 202.33 146.13 202.262C146.218 202.418 146.32 202.54 146.438 202.628C146.555 202.716 146.667 202.804 146.774 202.892C146.892 202.979 146.994 203.087 147.082 203.214C147.18 203.341 147.248 203.517 147.287 203.741C147.365 204.161 147.365 204.557 147.287 204.928C147.219 205.299 147.116 205.685 146.979 206.085C146.901 206.319 146.828 206.559 146.76 206.803C146.701 207.047 146.672 207.296 146.672 207.55L146.774 207.579C146.862 207.462 146.96 207.389 147.067 207.359C147.185 207.33 147.302 207.311 147.419 207.301C147.536 207.291 147.648 207.276 147.756 207.257C147.873 207.228 147.971 207.154 148.049 207.037C148.176 207.086 148.293 207.091 148.4 207.052C148.518 207.003 148.63 206.939 148.737 206.861C148.845 206.783 148.952 206.7 149.06 206.612C149.167 206.524 149.279 206.466 149.396 206.437L149.382 206.319C149.558 206.202 149.709 206.119 149.836 206.07C149.963 206.021 150.08 205.973 150.188 205.924C150.295 205.875 150.402 205.807 150.51 205.719C150.617 205.631 150.739 205.484 150.876 205.279C150.925 205.26 150.979 205.255 151.037 205.265C151.105 205.265 151.154 205.289 151.184 205.338ZM146.071 203.888C146.022 203.868 145.969 203.854 145.91 203.844C145.861 203.824 145.812 203.8 145.764 203.771C145.676 203.712 145.593 203.668 145.515 203.639C145.437 203.609 145.344 203.619 145.236 203.668V203.697H145.222C144.724 204.078 144.26 204.498 143.83 204.957C143.41 205.406 142.966 205.846 142.497 206.275L142.365 206.144C142.297 206.231 142.258 206.324 142.248 206.422C142.248 206.52 142.248 206.612 142.248 206.7C142.248 206.788 142.238 206.871 142.219 206.949C142.199 207.027 142.141 207.101 142.043 207.169L141.999 207.198C142.038 207.335 142.092 207.423 142.16 207.462C142.238 207.491 142.316 207.506 142.395 207.506C142.482 207.496 142.565 207.486 142.644 207.477C142.722 207.467 142.785 207.481 142.834 207.521C142.863 207.54 142.883 207.569 142.893 207.608C142.902 207.647 142.907 207.682 142.907 207.711C142.956 207.711 143.005 207.711 143.054 207.711C143.112 207.711 143.171 207.706 143.229 207.696C143.337 207.677 143.449 207.677 143.566 207.696C143.693 207.706 143.767 207.779 143.786 207.916C143.981 207.838 144.182 207.755 144.387 207.667C144.592 207.579 144.758 207.438 144.885 207.242L144.987 207.345C144.997 207.345 145.002 207.345 145.002 207.345C145.012 207.335 145.021 207.33 145.031 207.33C145.275 207.184 145.466 206.969 145.603 206.686C145.749 206.402 145.856 206.095 145.925 205.763C145.993 205.431 146.032 205.099 146.042 204.767C146.062 204.435 146.071 204.142 146.071 203.888ZM160.251 198.409C160.114 198.556 159.963 198.634 159.797 198.644C159.631 198.644 159.465 198.629 159.299 198.6C159.143 198.57 158.986 198.561 158.83 198.57C158.684 198.57 158.557 198.648 158.449 198.805C158.293 198.766 158.132 198.761 157.966 198.79C157.8 198.81 157.629 198.844 157.453 198.893C157.277 198.932 157.102 198.971 156.926 199.01C156.75 199.049 156.574 199.063 156.398 199.054L156.149 198.805C156.081 198.912 155.983 198.98 155.856 199.01C155.739 199.029 155.622 199 155.505 198.922C155.3 199.059 155.095 199.122 154.89 199.112C154.685 199.103 154.484 199.098 154.289 199.098C154.094 199.088 153.908 199.127 153.732 199.215C153.566 199.293 153.425 199.493 153.308 199.815C153.22 200.04 153.137 200.27 153.059 200.504C152.98 200.729 152.902 200.953 152.824 201.178C152.609 201.764 152.39 202.345 152.165 202.921C151.95 203.487 151.706 204.049 151.433 204.605C151.413 205.045 151.423 205.489 151.462 205.938C151.501 206.388 151.545 206.832 151.594 207.271C151.555 207.389 151.54 207.511 151.55 207.638C151.569 207.765 151.604 207.892 151.652 208.019C151.701 208.146 151.76 208.268 151.828 208.385C151.896 208.492 151.97 208.59 152.048 208.678L152.312 208.429L152.678 208.941C152.775 208.814 152.888 208.683 153.015 208.546C153.151 208.399 153.293 208.268 153.439 208.15C153.586 208.023 153.737 207.921 153.894 207.843C154.06 207.755 154.226 207.696 154.392 207.667C154.46 207.599 154.523 207.525 154.582 207.447C154.641 207.369 154.704 207.306 154.772 207.257C154.841 207.198 154.914 207.159 154.992 207.14C155.08 207.11 155.183 207.115 155.3 207.154C155.612 206.979 155.891 206.759 156.135 206.495C156.379 206.222 156.623 205.953 156.867 205.689C157.111 205.416 157.365 205.167 157.629 204.942C157.902 204.718 158.22 204.562 158.581 204.474C158.347 205.04 158.049 205.592 157.688 206.129C157.326 206.656 156.921 207.13 156.472 207.55C156.354 207.687 156.208 207.809 156.032 207.916C155.954 207.965 155.871 208.019 155.783 208.077C155.695 208.126 155.612 208.175 155.534 208.224C155.271 208.399 155.017 208.59 154.772 208.795C154.528 208.99 154.294 209.21 154.069 209.454C154.04 209.396 154.001 209.356 153.952 209.337C153.903 209.317 153.845 209.308 153.776 209.308C153.718 209.308 153.654 209.312 153.586 209.322C153.527 209.332 153.474 209.332 153.425 209.322C153.239 209.459 152.995 209.566 152.692 209.645C152.399 209.732 152.136 209.752 151.901 209.703C151.833 209.684 151.74 209.645 151.623 209.586C151.506 209.537 151.418 209.493 151.359 209.454C150.979 209.2 150.69 208.888 150.495 208.517C150.31 208.136 150.207 207.721 150.188 207.271L150.07 207.154C150.197 207.037 150.275 206.92 150.305 206.803C150.344 206.686 150.354 206.568 150.334 206.451C150.324 206.324 150.3 206.197 150.261 206.07C150.231 205.934 150.212 205.797 150.202 205.66C150.192 205.572 150.192 205.499 150.202 205.44C150.222 205.382 150.241 205.313 150.261 205.235C150.339 204.923 150.412 204.62 150.48 204.327C150.549 204.024 150.622 203.722 150.7 203.419C150.896 202.677 151.12 201.944 151.374 201.222C151.638 200.489 151.911 199.767 152.194 199.054C152.038 198.995 151.882 198.961 151.726 198.951C151.569 198.932 151.408 198.922 151.242 198.922C151.086 198.922 150.925 198.917 150.759 198.907C150.603 198.897 150.446 198.863 150.29 198.805C150.222 198.775 150.188 198.761 150.188 198.761C150.188 198.751 150.148 198.746 150.07 198.746C150.021 198.746 149.953 198.756 149.865 198.775C149.777 198.785 149.689 198.79 149.602 198.79C149.514 198.79 149.436 198.78 149.367 198.761C149.289 198.741 149.245 198.697 149.235 198.629V198.482C149.245 198.326 149.279 198.224 149.338 198.175C149.396 198.116 149.47 198.082 149.558 198.072C149.646 198.053 149.743 198.043 149.851 198.043C149.958 198.033 150.061 197.999 150.158 197.94C150.432 197.999 150.69 198.043 150.935 198.072C151.179 198.092 151.413 198.087 151.638 198.058C151.872 198.028 152.097 197.965 152.312 197.867C152.536 197.77 152.756 197.623 152.971 197.428C153.127 197.125 153.244 196.803 153.322 196.461C153.4 196.109 153.488 195.768 153.586 195.436C153.693 195.094 153.83 194.781 153.996 194.498C154.162 194.205 154.416 193.961 154.758 193.766C154.914 193.746 155.051 193.766 155.168 193.824C155.285 193.883 155.402 193.946 155.52 194.015C155.471 194.151 155.432 194.293 155.402 194.439C155.373 194.586 155.339 194.732 155.3 194.879C155.271 195.025 155.231 195.167 155.183 195.304C155.134 195.44 155.061 195.567 154.963 195.685C155.09 195.733 155.163 195.792 155.183 195.86C155.202 195.929 155.192 196.002 155.153 196.08C155.114 196.158 155.065 196.241 155.007 196.329C154.948 196.417 154.914 196.495 154.904 196.563C154.797 196.573 154.704 196.642 154.626 196.769C154.558 196.896 154.484 196.993 154.406 197.062C154.328 197.228 154.343 197.369 154.45 197.486C154.558 197.604 154.655 197.716 154.743 197.823C154.831 197.853 154.919 197.857 155.007 197.838C155.095 197.809 155.173 197.779 155.241 197.75C155.319 197.721 155.393 197.706 155.461 197.706C155.529 197.706 155.593 197.745 155.651 197.823C155.749 197.716 155.847 197.672 155.944 197.691C156.042 197.701 156.14 197.726 156.237 197.765C156.335 197.794 156.433 197.809 156.53 197.809C156.628 197.799 156.721 197.721 156.809 197.574C156.926 197.516 157.033 197.501 157.131 197.53C157.238 197.56 157.336 197.599 157.424 197.647C157.512 197.687 157.595 197.721 157.673 197.75C157.761 197.77 157.849 197.75 157.937 197.691C158.083 197.711 158.244 197.716 158.42 197.706C158.605 197.696 158.786 197.677 158.962 197.647C159.147 197.618 159.328 197.584 159.504 197.545C159.689 197.496 159.855 197.457 160.002 197.428C160.148 197.516 160.236 197.594 160.266 197.662C160.295 197.73 160.3 197.799 160.28 197.867C160.271 197.936 160.251 198.014 160.222 198.102C160.202 198.18 160.212 198.282 160.251 198.409Z" fill="#D6EDFF"/>
<defs>
<linearGradient id="paint0_linear_7_2" x1="108" y1="45" x2="108" y2="164" gradientUnits="userSpaceOnUse">
<stop stop-color="#61FE71"/>
<stop offset="1" stop-color="#D9D9D9" stop-opacity="0"/>
</linearGradient>
</defs>
</svg>
